<?xml version="1.0" encoding="UTF-8"?>
<!--Generator: Apple Native CoreSVG 175.5-->
<!DOCTYPE svg
PUBLIC "-//W3C//DTD SVG 1.1//EN"
       "http://www.w3.org/Graphics/SVG/1.1/DTD/svg11.dtd">
<svg version="1.1" xmlns="http://www.w3.org/2000/svg" xmlns:xlink="http://www.w3.org/1999/xlink" width="3300" height="2200">
 <!--glyph: "uni10003B.medium", point size: 100.0, font version: "18.0d12e2", template writer version: "101"-->
 <g id="Notes">
  <rect height="2200" id="artboard" style="fill:white;opacity:1" width="3300" x="0" y="0"/>
  <line style="fill:none;stroke:black;opacity:1;stroke-width:0.5;" x1="263" x2="3036" y1="292" y2="292"/>
  <text style="stroke:none;fill:black;font-family:sans-serif;font-size:13;font-weight:bold;" transform="matrix(1 0 0 1 263 322)">Weight/Scale Variations</text>
  <text style="stroke:none;fill:black;font-family:sans-serif;font-size:13;text-anchor:middle;" transform="matrix(1 0 0 1 559.711 322)">Ultralight</text>
  <text style="stroke:none;fill:black;font-family:sans-serif;font-size:13;text-anchor:middle;" transform="matrix(1 0 0 1 856.422 322)">Thin</text>
  <text style="stroke:none;fill:black;font-family:sans-serif;font-size:13;text-anchor:middle;" transform="matrix(1 0 0 1 1153.13 322)">Light</text>
  <text style="stroke:none;fill:black;font-family:sans-serif;font-size:13;text-anchor:middle;" transform="matrix(1 0 0 1 1449.84 322)">Regular</text>
  <text style="stroke:none;fill:black;font-family:sans-serif;font-size:13;text-anchor:middle;" transform="matrix(1 0 0 1 1746.56 322)">Medium</text>
  <text style="stroke:none;fill:black;font-family:sans-serif;font-size:13;text-anchor:middle;" transform="matrix(1 0 0 1 2043.27 322)">Semibold</text>
  <text style="stroke:none;fill:black;font-family:sans-serif;font-size:13;text-anchor:middle;" transform="matrix(1 0 0 1 2339.98 322)">Bold</text>
  <text style="stroke:none;fill:black;font-family:sans-serif;font-size:13;text-anchor:middle;" transform="matrix(1 0 0 1 2636.69 322)">Heavy</text>
  <text style="stroke:none;fill:black;font-family:sans-serif;font-size:13;text-anchor:middle;" transform="matrix(1 0 0 1 2933.4 322)">Black</text>
  <line style="fill:none;stroke:black;opacity:1;stroke-width:0.5;" x1="263" x2="3036" y1="1903" y2="1903"/>
  <g transform="matrix(1 0 0 1 263 1933)">
   <path d="M9.24805 0.830078C13.5547 0.830078 17.1387-2.74414 17.1387-7.05078C17.1387-11.3574 13.5449-14.9316 9.23828-14.9316C4.94141-14.9316 1.36719-11.3574 1.36719-7.05078C1.36719-2.74414 4.95117 0.830078 9.24805 0.830078ZM9.24805-0.654297C5.70312-0.654297 2.87109-3.49609 2.87109-7.05078C2.87109-10.6055 5.69336-13.4473 9.23828-13.4473C12.793-13.4473 15.6445-10.6055 15.6445-7.05078C15.6445-3.49609 12.8027-0.654297 9.24805-0.654297ZM5.6543-7.05078C5.6543-6.62109 5.95703-6.32812 6.40625-6.32812L8.50586-6.32812L8.50586-4.20898C8.50586-3.76953 8.79883-3.4668 9.22852-3.4668C9.67773-3.4668 9.9707-3.76953 9.9707-4.20898L9.9707-6.32812L12.0898-6.32812C12.5293-6.32812 12.832-6.62109 12.832-7.05078C12.832-7.49023 12.5293-7.79297 12.0898-7.79297L9.9707-7.79297L9.9707-9.90234C9.9707-10.3516 9.67773-10.6543 9.22852-10.6543C8.79883-10.6543 8.50586-10.3516 8.50586-9.90234L8.50586-7.79297L6.40625-7.79297C5.95703-7.79297 5.6543-7.49023 5.6543-7.05078Z"/>
  </g>
  <g transform="matrix(1 0 0 1 281.867 1933)">
   <path d="M11.709 2.91016C17.1582 2.91016 21.6699-1.61133 21.6699-7.05078C21.6699-12.5 17.1484-17.0117 11.6992-17.0117C6.25977-17.0117 1.74805-12.5 1.74805-7.05078C1.74805-1.61133 6.26953 2.91016 11.709 2.91016ZM11.709 1.25C7.09961 1.25 3.41797-2.44141 3.41797-7.05078C3.41797-11.6602 7.08984-15.3516 11.6992-15.3516C16.3086-15.3516 20.0098-11.6602 20.0098-7.05078C20.0098-2.44141 16.3184 1.25 11.709 1.25ZM7.17773-7.05078C7.17773-6.57227 7.50977-6.25 8.00781-6.25L10.8789-6.25L10.8789-3.36914C10.8789-2.88086 11.2109-2.53906 11.6895-2.53906C12.1777-2.53906 12.5195-2.87109 12.5195-3.36914L12.5195-6.25L15.4004-6.25C15.8887-6.25 16.2305-6.57227 16.2305-7.05078C16.2305-7.53906 15.8887-7.88086 15.4004-7.88086L12.5195-7.88086L12.5195-10.752C12.5195-11.25 12.1777-11.5918 11.6895-11.5918C11.2109-11.5918 10.8789-11.25 10.8789-10.752L10.8789-7.88086L8.00781-7.88086C7.50977-7.88086 7.17773-7.53906 7.17773-7.05078Z"/>
  </g>
  <g transform="matrix(1 0 0 1 305.646 1933)">
   <path d="M14.9707 5.66406C21.9336 5.66406 27.6953-0.0976562 27.6953-7.05078C27.6953-14.0137 21.9238-19.7754 14.9609-19.7754C8.00781-19.7754 2.25586-14.0137 2.25586-7.05078C2.25586-0.0976562 8.01758 5.66406 14.9707 5.66406ZM14.9707 3.84766C8.93555 3.84766 4.08203-1.01562 4.08203-7.05078C4.08203-13.0957 8.92578-17.9492 14.9609-17.9492C21.0059-17.9492 25.8691-13.0957 25.8691-7.05078C25.8691-1.01562 21.0156 3.84766 14.9707 3.84766ZM9.19922-7.05078C9.19922-6.5332 9.57031-6.17188 10.1172-6.17188L14.0625-6.17188L14.0625-2.2168C14.0625-1.67969 14.4336-1.29883 14.9512-1.29883C15.4883-1.29883 15.8594-1.66992 15.8594-2.2168L15.8594-6.17188L19.8145-6.17188C20.3516-6.17188 20.7324-6.5332 20.7324-7.05078C20.7324-7.59766 20.3613-7.96875 19.8145-7.96875L15.8594-7.96875L15.8594-11.9141C15.8594-12.4609 15.4883-12.8418 14.9512-12.8418C14.4336-12.8418 14.0625-12.4609 14.0625-11.9141L14.0625-7.96875L10.1172-7.96875C9.57031-7.96875 9.19922-7.59766 9.19922-7.05078Z"/>
  </g>
  <text style="stroke:none;fill:black;font-family:sans-serif;font-size:13;font-weight:bold;" transform="matrix(1 0 0 1 263 1953)">Design Variations</text>
  <text style="stroke:none;fill:black;font-family:sans-serif;font-size:13;" transform="matrix(1 0 0 1 263 1971)">Symbols are supported in up to nine weights and three scales.</text>
  <text style="stroke:none;fill:black;font-family:sans-serif;font-size:13;" transform="matrix(1 0 0 1 263 1989)">For optimal layout with text and other symbols, vertically align</text>
  <text style="stroke:none;fill:black;font-family:sans-serif;font-size:13;" transform="matrix(1 0 0 1 263 2007)">symbols with the adjacent text.</text>
  <line style="fill:none;stroke:#00AEEF;stroke-width:0.5;opacity:1.0;" x1="776" x2="776" y1="1919" y2="1933"/>
  <g transform="matrix(1 0 0 1 776 1933)">
   <path d="M3.31055 0.15625C3.82812 0.15625 4.08203-0.0390625 4.26758-0.585938L5.52734-4.0332L11.2891-4.0332L12.5488-0.585938C12.7344-0.0390625 12.9883 0.15625 13.4961 0.15625C14.0137 0.15625 14.3457-0.15625 14.3457-0.644531C14.3457-0.810547 14.3164-0.966797 14.2383-1.17188L9.6582-13.3691C9.43359-13.9648 9.0332-14.2676 8.4082-14.2676C7.80273-14.2676 7.39258-13.9746 7.17773-13.3789L2.59766-1.16211C2.51953-0.957031 2.49023-0.800781 2.49023-0.634766C2.49023-0.146484 2.80273 0.15625 3.31055 0.15625ZM6.00586-5.51758L8.37891-12.0898L8.42773-12.0898L10.8008-5.51758Z"/>
  </g>
  <line style="fill:none;stroke:#00AEEF;stroke-width:0.5;opacity:1.0;" x1="793.197" x2="793.197" y1="1919" y2="1933"/>
  <text style="stroke:none;fill:black;font-family:sans-serif;font-size:13;font-weight:bold;" transform="matrix(1 0 0 1 776 1953)">Margins</text>
  <text style="stroke:none;fill:black;font-family:sans-serif;font-size:13;" transform="matrix(1 0 0 1 776 1971)">Leading and trailing margins on the left and right side of each symbol</text>
  <text style="stroke:none;fill:black;font-family:sans-serif;font-size:13;" transform="matrix(1 0 0 1 776 1989)">can be adjusted by modifying the x-location of the margin guidelines.</text>
  <text style="stroke:none;fill:black;font-family:sans-serif;font-size:13;" transform="matrix(1 0 0 1 776 2007)">Modifications are automatically applied proportionally to all</text>
  <text style="stroke:none;fill:black;font-family:sans-serif;font-size:13;" transform="matrix(1 0 0 1 776 2025)">scales and weights.</text>
  <g transform="matrix(1 0 0 1 1289 1933)">
   <path d="M2.8418 1.86523L4.54102 3.57422C5.40039 4.44336 6.38672 4.38477 7.31445 3.35938L18.0078-8.42773L17.041-9.4043L6.42578 2.27539C6.07422 2.67578 5.74219 2.77344 5.27344 2.30469L4.10156 1.14258C3.63281 0.683594 3.74023 0.341797 4.14062-0.0195312L15.6152-10.8203L14.6387-11.7871L3.04688-0.898438C2.06055 0.0195312 1.98242 0.996094 2.8418 1.86523ZM9.25781-16.3281C8.83789-15.918 8.80859-15.3418 9.04297-14.9512C9.27734-14.5898 9.73633-14.3555 10.3809-14.5215C11.8457-14.8633 13.3691-14.9219 14.7949-13.9844L14.209-12.5293C13.8672-11.6992 14.043-11.1133 14.5801-10.5664L16.875-8.25195C17.3633-7.76367 17.7734-7.74414 18.3398-7.8418L19.4043-8.03711L20.0684-7.36328L20.0293-6.80664C19.9902-6.30859 20.1172-5.92773 20.6055-5.44922L21.3672-4.70703C21.8457-4.22852 22.4609-4.19922 22.9297-4.66797L25.8398-7.58789C26.3086-8.05664 26.2891-8.65234 25.8105-9.13086L25.0391-9.89258C24.5605-10.3711 24.1895-10.5273 23.7109-10.4883L23.1348-10.4395L22.4902-11.0742L22.7344-12.1973C22.8613-12.7637 22.7051-13.2031 22.1191-13.7891L19.9219-15.9766C16.582-19.2969 12.1484-19.2188 9.25781-16.3281ZM10.752-15.957C13.1836-17.7344 16.4746-17.4316 18.7012-15.2051L21.1328-12.793C21.3672-12.5586 21.4062-12.373 21.3379-12.0312L21.0156-10.5469L22.5195-9.0625L23.5059-9.12109C23.7598-9.13086 23.8379-9.11133 24.0332-8.91602L24.6094-8.33984L22.168-5.89844L21.5918-6.47461C21.3965-6.66992 21.3672-6.74805 21.377-7.01172L21.4453-7.98828L19.9512-9.47266L18.4277-9.21875C18.1055-9.15039 17.959-9.17969 17.7148-9.41406L15.7129-11.416C15.459-11.6504 15.4297-11.8164 15.5859-12.1875L16.4648-14.2773C14.9023-15.7324 12.8711-16.3574 10.8398-15.7617C10.6836-15.7227 10.625-15.8496 10.752-15.957Z"/>
  </g>
  <text style="stroke:none;fill:black;font-family:sans-serif;font-size:13;font-weight:bold;" transform="matrix(1 0 0 1 1289 1953)">Exporting</text>
  <text style="stroke:none;fill:black;font-family:sans-serif;font-size:13;" transform="matrix(1 0 0 1 1289 1971)">Symbols should be outlined when exporting to ensure the</text>
  <text style="stroke:none;fill:black;font-family:sans-serif;font-size:13;" transform="matrix(1 0 0 1 1289 1989)">design is preserved when submitting to Xcode.</text>
  <text id="template-version" style="stroke:none;fill:black;font-family:sans-serif;font-size:13;text-anchor:end;" transform="matrix(1 0 0 1 3036 1933)">Template v.2.0</text>
  <text style="stroke:none;fill:black;font-family:sans-serif;font-size:13;text-anchor:end;" transform="matrix(1 0 0 1 3036 1951)">Requires Xcode 12 or greater</text>
  <text id="descriptive-name" style="stroke:none;fill:black;font-family:sans-serif;font-size:13;text-anchor:end;" transform="matrix(1 0 0 1 3036 1969)">Generated from 1.circle.fill</text>
  <text style="stroke:none;fill:black;font-family:sans-serif;font-size:13;text-anchor:end;" transform="matrix(1 0 0 1 3036 1987)">Typeset at 100 points</text>
  <text style="stroke:none;fill:black;font-family:sans-serif;font-size:13;" transform="matrix(1 0 0 1 263 726)">Small</text>
  <text style="stroke:none;fill:black;font-family:sans-serif;font-size:13;" transform="matrix(1 0 0 1 263 1156)">Medium</text>
  <text style="stroke:none;fill:black;font-family:sans-serif;font-size:13;" transform="matrix(1 0 0 1 263 1586)">Large</text>
 </g>
 <g id="Guides">
  <g id="H-reference" style="fill:#27AAE1;stroke:none;" transform="matrix(1 0 0 1 339 696)">
   <path d="M0.993654 0L3.63775 0L29.3281-67.1323L30.0303-67.1323L30.0303-70.459L28.1226-70.459ZM11.6885-24.4799L46.9815-24.4799L46.2315-26.7285L12.4385-26.7285ZM55.1196 0L57.7637 0L30.6382-70.459L29.4326-70.459L29.4326-67.1323Z"/>
  </g>
  <line id="Baseline-S" style="fill:none;stroke:#27AAE1;opacity:1;stroke-width:0.5;" x1="263" x2="3036" y1="696" y2="696"/>
  <line id="Capline-S" style="fill:none;stroke:#27AAE1;opacity:1;stroke-width:0.5;" x1="263" x2="3036" y1="625.541" y2="625.541"/>
  <g id="H-reference" style="fill:#27AAE1;stroke:none;" transform="matrix(1 0 0 1 339 1126)">
   <path d="M0.993654 0L3.63775 0L29.3281-67.1323L30.0303-67.1323L30.0303-70.459L28.1226-70.459ZM11.6885-24.4799L46.9815-24.4799L46.2315-26.7285L12.4385-26.7285ZM55.1196 0L57.7637 0L30.6382-70.459L29.4326-70.459L29.4326-67.1323Z"/>
  </g>
  <line id="Baseline-M" style="fill:none;stroke:#27AAE1;opacity:1;stroke-width:0.5;" x1="263" x2="3036" y1="1126" y2="1126"/>
  <line id="Capline-M" style="fill:none;stroke:#27AAE1;opacity:1;stroke-width:0.5;" x1="263" x2="3036" y1="1055.54" y2="1055.54"/>
  <g id="H-reference" style="fill:#27AAE1;stroke:none;" transform="matrix(1 0 0 1 339 1556)">
   <path d="M0.993654 0L3.63775 0L29.3281-67.1323L30.0303-67.1323L30.0303-70.459L28.1226-70.459ZM11.6885-24.4799L46.9815-24.4799L46.2315-26.7285L12.4385-26.7285ZM55.1196 0L57.7637 0L30.6382-70.459L29.4326-70.459L29.4326-67.1323Z"/>
  </g>
  <line id="Baseline-L" style="fill:none;stroke:#27AAE1;opacity:1;stroke-width:0.5;" x1="263" x2="3036" y1="1556" y2="1556"/>
  <line id="Capline-L" style="fill:none;stroke:#27AAE1;opacity:1;stroke-width:0.5;" x1="263" x2="3036" y1="1485.54" y2="1485.54"/>
  <line id="left-margin" style="fill:none;stroke:#00AEEF;stroke-width:0.5;opacity:1.0;" x1="1391.32" x2="1391.32" y1="1030.79" y2="1150.12"/>
  <line id="right-margin" style="fill:none;stroke:#00AEEF;stroke-width:0.5;opacity:1.0;" x1="1508.37" x2="1508.37" y1="1030.79" y2="1150.12"/>
 </g>
 <g id="Symbols">
  <g id="Black-L" transform="matrix(1 0 0 1 2854.19 1556)">
   <path d="M79.1958 32.7257C116.56 32.7257 147.154 2.15259 147.154-35.2113C147.154-72.5752 116.539-103.148 79.175-103.148C41.8307-103.148 11.2588-72.5752 11.2588-35.2113C11.2588 2.15259 41.8515 32.7257 79.1958 32.7257ZM83.9077-4.64134C77.7959-4.64134 73.7783-7.86733 73.7783-15.1749L73.7783-46.8206L73.123-46.8206L67.372-43.0316C65.101-41.4696 64.0716-41.2516 62.3736-41.2516C58.5456-41.2516 55.799-44.2567 55.799-48.1443C55.799-51.3182 57.1956-53.369 60.0734-55.2434L70.1416-61.8695C74.6486-64.7786 78.0769-65.904 82.4387-65.904C89.3357-65.904 94.0774-61.5892 94.0774-55.3681L94.0774-15.1749C94.0774-7.86733 89.9442-4.64134 83.9077-4.64134Z"/>
  </g>
  <g id="Heavy-L" transform="matrix(1 0 0 1 2558.42 1556)">
   <path d="M78.2532 31.7694C115.056 31.7694 145.278 1.57794 145.278-35.2251C145.278-72.0281 115.026-102.22 78.2231-102.22C41.4446-102.22 11.2588-72.0281 11.2588-35.2251C11.2588 1.57794 41.4748 31.7694 78.2532 31.7694ZM82.6414-4.92707C77.2588-4.92707 73.7661-7.87669 73.7661-14.2682L73.7661-48.5457L73.161-48.5457L66.6779-44.2912C64.6194-42.86 63.676-42.6601 62.16-42.6601C58.7743-42.6601 56.3194-45.3696 56.3194-48.8055C56.3194-51.5917 57.5148-53.3866 60.0319-55.0421L70.522-61.9875C74.5834-64.6379 77.5783-65.6404 81.4574-65.6404C87.5019-65.6404 91.5714-61.8731 91.5714-56.288L91.5714-14.2682C91.5714-7.87669 87.9951-4.92707 82.6414-4.92707Z"/>
  </g>
  <g id="Bold-L" transform="matrix(1 0 0 1 2262.89 1556)">
   <path d="M77.0704 30.5711C113.182 30.5711 142.92 0.870872 142.92-35.2405C142.92-71.3519 113.144-101.052 77.0324-101.052C40.9458-101.052 11.2588-71.3519 11.2588-35.2405C11.2588 0.870872 40.9838 30.5711 77.0704 30.5711ZM81.0589-5.3029C76.5829-5.3029 73.7284-7.8845 73.7284-13.1389L73.7284-50.7192L73.1848-50.7192L65.6981-45.8287C63.9307-44.5812 63.1023-44.4044 61.8167-44.4044C58.9766-44.4044 56.8829-46.7376 56.8829-49.6202C56.8829-51.9298 57.8397-53.4171 59.9186-54.8036L70.961-62.141C74.4543-64.4538 76.9187-65.3027 80.1912-65.3027C85.1828-65.3027 88.4522-62.2042 88.4522-57.4402L88.4522-13.1389C88.4522-7.8845 85.5525-5.3029 81.0589-5.3029Z"/>
  </g>
  <g id="Semibold-L" transform="matrix(1 0 0 1 1966.99 1556)">
   <path d="M76.2549 29.745C111.889 29.745 141.294 0.383422 141.294-35.2511C141.294-70.8857 111.846-100.247 76.2116-100.247C40.6019-100.247 11.2588-70.8857 11.2588-35.2511C11.2588 0.383422 40.6453 29.745 76.2549 29.745ZM79.968-5.56199C76.117-5.56199 73.7024-7.88987 73.7024-12.3603L73.7024-52.2175L73.2012-52.2175L65.0227-46.8886C63.4559-45.7678 62.7068-45.6069 61.58-45.6069C59.116-45.6069 57.2713-47.6808 57.2713-50.1818C57.2713-52.1629 58.0637-53.4381 59.8405-54.6391L71.2637-62.2468C74.3653-64.3269 76.4641-65.0698 79.3182-65.0698C83.5841-65.0698 86.3018-62.4324 86.3018-58.2346L86.3018-12.3603C86.3018-7.88987 83.8686-5.56199 79.968-5.56199Z"/>
  </g>
  <g id="Medium-L" transform="matrix(1 0 0 1 1670.9 1556)">
   <path d="M75.6366 29.1187C110.91 29.1187 140.062 0.0138167 140.062-35.2592C140.062-70.5322 110.862-99.637 75.5892-99.637C40.3412-99.637 11.2588-70.5322 11.2588-35.2592C11.2588 0.0138167 40.3886 29.1187 75.6366 29.1187ZM79.1408-5.75845C75.7637-5.75845 73.6827-7.89395 73.6827-11.77L73.6827-53.3536L73.2136-53.3536L64.5105-47.6923C63.0959-46.6675 62.4069-46.5186 61.4005-46.5186C59.2218-46.5186 57.5658-48.3959 57.5658-50.6076C57.5658-52.3397 58.2335-53.454 59.7812-54.5144L71.4931-62.327C74.2978-64.2307 76.1193-64.8933 78.6563-64.8933C82.3718-64.8933 84.6713-62.6055 84.6713-58.8368L84.6713-11.77C84.6713-7.89395 82.5918-5.75845 79.1408-5.75845Z"/>
  </g>
  <g id="Regular-L" transform="matrix(1 0 0 1 1374.99 1556)">
   <path d="M74.8301 28.3017C109.632 28.3017 138.454-0.468277 138.454-35.2697C138.454-70.0711 109.579-98.8411 74.7774-98.8411C40.0011-98.8411 11.2588-70.0711 11.2588-35.2697C11.2588-0.468277 40.0538 28.3017 74.8301 28.3017ZM78.0618-6.0147C75.3029-6.0147 73.657-7.89927 73.657-10.9999L73.657-54.8355L73.2298-54.8355L63.8424-48.7406C62.6263-47.8411 62.0157-47.7079 61.1664-47.7079C59.3597-47.7079 57.95-49.3287 57.95-51.163C57.95-52.5702 58.4551-53.4748 59.7039-54.3518L71.7924-62.4316C74.2097-64.1051 75.6697-64.663 77.7929-64.663C80.7906-64.663 82.5446-62.8312 82.5446-59.6224L82.5446-10.9999C82.5446-7.89927 80.9264-6.0147 78.0618-6.0147Z"/>
  </g>
  <g id="Light-L" transform="matrix(1 0 0 1 1079.2 1556)">
   <path d="M73.9141 27.3856C108.257 27.3856 136.603-0.926323 136.603-35.2697C136.603-69.6131 108.224-97.925 73.8804-97.925C39.5239-97.925 11.2588-69.6131 11.2588-35.2697C11.2588-0.926323 39.5576 27.3856 73.9141 27.3856ZM76.8786-6.41549C74.7685-6.41549 73.4852-7.88019 73.4852-10.1793L73.4852-56.5722L73.0962-56.5722L62.3919-49.6567C61.5575-49.0244 61.0805-48.9103 60.4221-48.9103C58.978-48.9103 57.8164-50.2066 57.8164-51.6974C57.8164-52.7992 58.2261-53.5512 59.2268-54.2564L71.8879-62.5843C73.8089-63.9143 74.9444-64.3576 76.5906-64.3576C78.8821-64.3576 80.2925-62.9266 80.2925-60.5003L80.2925-10.1793C80.2925-7.88019 79.056-6.41549 76.8786-6.41549Z"/>
  </g>
  <g id="Thin-L" transform="matrix(1 0 0 1 783.716 1556)">
   <path d="M72.7024 26.174C106.44 26.174 134.155-1.53213 134.155-35.2697C134.155-69.0073 106.432-96.7134 72.694-96.7134C38.8929-96.7134 11.2588-69.0073 11.2588-35.2697C11.2588-1.53213 38.9013 26.174 72.7024 26.174ZM75.3136-6.94557C74.0617-6.94557 73.2581-7.85494 73.2581-9.09388L73.2581-58.8692L72.9195-58.8692L60.4736-50.8683C60.144-50.5894 59.8437-50.5005 59.4377-50.5005C58.4732-50.5005 57.6397-51.3677 57.6397-52.4042C57.6397-53.1021 57.9232-53.6521 58.5958-54.1301L72.0141-62.7862C73.2789-63.6619 73.9852-63.9538 75.0003-63.9538C76.3579-63.9538 77.314-63.0528 77.314-61.6615L77.314-9.09388C77.314-7.85494 76.5823-6.94557 75.3136-6.94557Z"/>
  </g>
  <g id="Ultralight-L" transform="matrix(1 0 0 1 487.631 1556)">
   <path d="M72.0819 25.5534C105.509 25.5534 132.9-1.84242 132.9-35.2697C132.9-68.697 105.514-96.0928 72.0864-96.0928C38.5697-96.0928 11.2588-68.697 11.2588-35.2697C11.2588-1.84242 38.5652 25.5534 72.0819 25.5534ZM74.512-7.21707C73.6997-7.21707 73.1417-7.84202 73.1417-8.53795L73.1417-60.0458L72.829-60.0458L59.491-51.4889C59.42-51.391 59.2102-51.315 58.9334-51.315C58.2146-51.315 57.5492-51.9624 57.5492-52.7662C57.5492-53.2573 57.768-53.7038 58.2725-54.0655L72.0787-62.8897C73.0074-63.5326 73.4939-63.7469 74.1858-63.7469C75.065-63.7469 75.7884-63.1175 75.7884-62.2562L75.7884-8.53795C75.7884-7.84202 75.3153-7.21707 74.512-7.21707Z"/>
  </g>
  <g id="Black-M" transform="matrix(1 0 0 1 2871.36 1126)">
   <path d="M62.0422 18.116C91.4096 18.116 115.367-5.83621 115.367-35.2035C115.367-64.5709 91.4041-88.5231 62.0367-88.5231C32.6752-88.5231 8.72266-64.5709 8.72266-35.2035C8.72266-5.83621 32.6807 18.116 62.0422 18.116ZM65.9347-11.3403C60.6611-11.3403 57.1464-14.0202 57.1464-20.3604L57.1464-42.9622L56.6007-42.9622L52.5959-40.3157C50.7056-39.0294 49.8522-38.8474 48.4062-38.8474C45.1094-38.8474 42.7644-41.3857 42.7644-44.7392C42.7644-47.49 44.0065-49.2781 46.5124-50.8951L54.0276-55.7879C57.8351-58.2174 60.8197-59.1796 64.5491-59.1796C70.5296-59.1796 74.7344-55.4203 74.7344-50.1601L74.7344-20.3604C74.7344-14.0202 71.1052-11.3403 65.9347-11.3403Z"/>
  </g>
  <g id="Heavy-M" transform="matrix(1 0 0 1 2575.48 1126)">
   <path d="M61.2053 17.2657C90.0667 17.2657 113.704-6.35571 113.704-35.217C113.704-64.0783 90.0502-87.6997 61.1889-87.6997C32.3418-87.6997 8.72266-64.0783 8.72266-35.217C8.72266-6.35571 32.3582 17.2657 61.2053 17.2657ZM64.806-11.5827C60.1852-11.5827 57.1503-14.0312 57.1503-19.5498L57.1503-44.4885L56.6502-44.4885L52.0512-41.4626C50.3334-40.2794 49.5518-40.1134 48.266-40.1134C45.3682-40.1134 43.2855-42.3927 43.2855-45.3363C43.2855-47.7363 44.3397-49.2883 46.5159-50.7072L54.3907-55.8892C57.8084-58.0976 60.3992-58.95 63.7008-58.95C68.913-58.95 72.4923-55.6891 72.4923-50.9784L72.4923-19.5498C72.4923-14.0312 69.3724-11.5827 64.806-11.5827Z"/>
  </g>
  <g id="Bold-M" transform="matrix(1 0 0 1 2279.69 1126)">
   <path d="M60.2692 16.3144C88.5644 16.3144 111.844-6.93686 111.844-35.2321C111.844-63.5273 88.5358-86.7786 60.2405-86.7786C31.9688-86.7786 8.72266-63.5273 8.72266-35.2321C8.72266-6.93686 31.9974 16.3144 60.2692 16.3144ZM63.5434-11.8537C59.6529-11.8537 57.1547-14.0434 57.1547-18.6429L57.1547-46.1958L56.7055-46.1958L51.4419-42.7454C49.917-41.6777 49.2157-41.5297 48.1092-41.5297C45.6577-41.5297 43.8684-43.5191 43.8684-46.0043C43.8684-48.0118 44.7123-49.2997 46.5197-50.4969L54.7969-56.0025C57.7784-57.9634 59.9287-58.6932 62.7519-58.6932C67.1045-58.6932 69.9842-55.9898 69.9842-51.8937L69.9842-18.6429C69.9842-14.0434 67.434-11.8537 63.5434-11.8537Z"/>
  </g>
  <g id="Semibold-M" transform="matrix(1 0 0 1 1983.62 1126)">
   <path d="M59.6238 15.6586C87.5288 15.6586 110.562-7.33749 110.562-35.2425C110.562-63.1475 87.4917-86.1436 59.5867-86.1436C31.7117-86.1436 8.72266-63.1475 8.72266-35.2425C8.72266-7.33749 31.7487 15.6586 59.6238 15.6586ZM62.673-12.0406C59.286-12.0406 57.1577-14.0518 57.1577-18.0178L57.1577-47.3728L56.7437-47.3728L51.0219-43.6298C49.6299-42.6416 48.9839-42.506 48.0012-42.506C45.8573-42.506 44.2703-44.2956 44.2703-46.4648C44.2703-48.2017 44.9692-49.3076 46.5224-50.352L55.0769-56.0806C57.7578-57.871 59.6044-58.5162 62.0977-58.5162C65.8578-58.5162 68.2552-56.1971 68.2552-52.5248L68.2552-18.0178C68.2552-14.0518 66.0977-12.0406 62.673-12.0406Z"/>
  </g>
  <g id="Medium-M" transform="matrix(1 0 0 1 1687.4 1126)">
   <path d="M59.1344 15.1614C86.7435 15.1614 109.59-7.64127 109.59-35.2504C109.59-62.8595 86.7001-85.6621 59.091-85.6621C31.5167-85.6621 8.72266-62.8595 8.72266-35.2504C8.72266-7.64127 31.5601 15.1614 59.1344 15.1614ZM62.013-12.1823C59.0077-12.1823 57.16-14.0582 57.16-17.5438L57.16-48.2653L56.7726-48.2653L50.7034-44.3004C49.4122-43.3726 48.8083-43.2463 47.9192-43.2463C46.0086-43.2463 44.575-44.8844 44.575-46.8139C44.575-48.3457 45.164-49.3136 46.5244-50.2421L55.2893-56.1399C57.7422-57.8009 59.3585-58.382 61.6016-58.382C64.9125-58.382 66.9441-56.3543 66.9441-53.0033L66.9441-17.5438C66.9441-14.0582 65.0845-12.1823 62.013-12.1823Z"/>
  </g>
  <g id="Regular-M" transform="matrix(1 0 0 1 1391.32 1126)">
   <path d="M58.4961 14.5128C85.7192 14.5128 108.321-8.0375 108.321-35.2606C108.321-62.4838 85.6675-85.0341 58.4443-85.0341C31.2624-85.0341 8.72266-62.4838 8.72266-35.2606C8.72266-8.0375 31.3141 14.5128 58.4961 14.5128ZM61.1521-12.3672C58.6448-12.3672 57.163-14.0665 57.163-16.9255L57.163-49.4294L56.8103-49.4294L50.288-45.1751C49.1283-44.3259 48.5791-44.2119 47.8123-44.2119C46.206-44.2119 44.9724-45.6524 44.9724-47.2694C44.9724-48.5335 45.4181-49.3214 46.527-50.0987L55.5662-56.2171C57.7218-57.7094 59.0377-58.2069 60.9546-58.2069C63.6795-58.2069 65.2341-56.5593 65.2341-53.6274L65.2341-16.9255C65.2341-14.0665 63.7629-12.3672 61.1521-12.3672Z"/>
  </g>
  <g id="Light-M" transform="matrix(1 0 0 1 1095.44 1126)">
   <path d="M57.6748 13.6915C84.4872 13.6915 106.662-8.44816 106.662-35.2606C106.662-62.0731 84.4526-84.2128 57.6401-84.2128C30.8346-84.2128 8.72266-62.0731 8.72266-35.2606C8.72266-8.44816 30.8693 13.6915 57.6748 13.6915ZM60.0912-12.7265C58.1657-12.7265 57.0091-14.0494 57.0091-16.1897L57.0091-50.9865L56.6905-50.9865L48.9875-45.9964C48.1701-45.3868 47.7407-45.2899 47.145-45.2899C45.8638-45.2899 44.8527-46.4395 44.8527-47.7485C44.8527-48.7389 45.2128-49.3898 46.0993-50.0132L55.6518-56.354C57.3625-57.5383 58.3875-57.9331 59.8766-57.9331C61.9684-57.9331 63.215-56.6449 63.215-54.4145L63.215-16.1897C63.215-14.0494 62.086-12.7265 60.0912-12.7265Z"/>
  </g>
  <g id="Thin-M" transform="matrix(1 0 0 1 799.828 1126)">
   <path d="M56.5885 12.6052C82.8578 12.6052 104.466-8.9913 104.466-35.2606C104.466-61.53 82.8458-83.1265 56.5765-83.1265C30.2689-83.1265 8.72266-61.53 8.72266-35.2606C8.72266-8.9913 30.2809 12.6052 56.5885 12.6052ZM58.6881-13.2017C57.532-13.2017 56.8054-14.0268 56.8054-15.2166L56.8054-53.0459L56.5321-53.0459L47.2676-47.0827C46.9028-46.7899 46.6318-46.7156 46.2624-46.7156C45.4111-46.7156 44.6942-47.4805 44.6942-48.3821C44.6942-49.0104 44.9412-49.4804 45.5335-49.9L55.7649-56.5351C56.8872-57.312 57.5276-57.571 58.4509-57.571C59.7053-57.571 60.5446-56.758 60.5446-55.4555L60.5446-15.2166C60.5446-14.0268 59.8682-13.2017 58.6881-13.2017Z"/>
  </g>
  <g id="Ultralight-M" transform="matrix(1 0 0 1 503.679 1126)">
   <path d="M56.0321 12.0488C82.0233 12.0488 103.342-9.26949 103.342-35.2606C103.342-61.2518 82.0228-82.5701 56.0317-82.5701C29.9791-82.5701 8.72266-61.2518 8.72266-35.2606C8.72266-9.26949 29.9795 12.0488 56.0321 12.0488ZM57.9695-13.4452C57.2075-13.4452 56.7011-14.0152 56.7011-14.7182L56.7011-54.1007L56.451-54.1007L46.3867-47.6391C46.2536-47.5086 46.0638-47.4459 45.8104-47.4459C45.1793-47.4459 44.6131-48.0137 44.6131-48.7067C44.6131-49.1495 44.8021-49.5267 45.2437-49.842L55.8229-56.6278C56.6438-57.1961 57.0871-57.3855 57.7207-57.3855C58.5462-57.3855 59.1768-56.816 59.1768-55.9887L59.1768-14.7182C59.1768-14.0152 58.7323-13.4452 57.9695-13.4452Z"/>
  </g>
  <g id="Black-S" transform="matrix(1 0 0 1 2884.57 696)">
   <path d="M48.8281 6.78711C71.9727 6.78711 90.8203-12.0605 90.8203-35.2051C90.8203-58.3496 71.9727-77.1973 48.8281-77.1973C25.6836-77.1973 6.83594-58.3496 6.83594-35.2051C6.83594-12.0605 25.6836 6.78711 48.8281 6.78711ZM51.9531-16.4551C47.6562-16.4551 44.7754-18.6035 44.7754-23.7793L44.7754-40.918L44.3359-40.918L41.3086-38.916C39.7949-37.8906 39.1113-37.7441 37.9395-37.7441C35.2539-37.7441 33.3496-39.7949 33.3496-42.5293C33.3496-44.7754 34.375-46.2402 36.4258-47.5586L42.2363-51.3184C45.3125-53.2715 47.7539-54.0527 50.7812-54.0527C55.6641-54.0527 59.1309-50.9766 59.1309-46.7285L59.1309-23.7793C59.1309-18.6035 56.1523-16.4551 51.9531-16.4551Z"/>
  </g>
  <g id="Heavy-S" transform="matrix(1 0 0 1 2588.47 696)">
   <path d="M48.2173 6.16479C70.9816 6.16479 89.6102-12.4524 89.6102-35.2166C89.6102-57.9808 70.97-76.598 48.2058-76.598C25.4531-76.598 6.83594-57.9808 6.83594-35.2166C6.83594-12.4524 25.4646 6.16479 48.2173 6.16479ZM51.1234-16.6164C47.3105-16.6164 44.7984-18.615 44.7984-23.18L44.7984-42.0243L44.3936-42.0243L41.009-39.7919C39.599-38.8241 38.9615-38.6891 37.9049-38.6891C35.519-38.6891 33.8106-40.5555 33.8106-42.9788C33.8106-44.9598 34.6862-46.2402 36.4834-47.4088L42.536-51.3875C45.3355-53.1908 47.4773-53.8914 50.1935-53.8914C54.5001-53.8914 57.4713-51.1955 57.4713-47.3278L57.4713-23.18C57.4713-18.615 54.8847-16.6164 51.1234-16.6164Z"/>
  </g>
  <g id="Bold-S" transform="matrix(1 0 0 1 2292.43 696)">
   <path d="M47.5342 5.46875C69.873 5.46875 88.2568-12.8906 88.2568-35.2295C88.2568-57.5684 69.8486-75.9277 47.5098-75.9277C25.1953-75.9277 6.83594-57.5684 6.83594-35.2295C6.83594-12.8906 25.2197 5.46875 47.5342 5.46875ZM50.1953-16.7969C46.9238-16.7969 44.8242-18.6279 44.8242-22.5098L44.8242-43.2617L44.458-43.2617L40.6738-40.7715C39.3799-39.8682 38.7939-39.7461 37.8662-39.7461C35.8154-39.7461 34.3262-41.4062 34.3262-43.4814C34.3262-45.166 35.0342-46.2402 36.5479-47.2412L42.8711-51.4648C45.3613-53.1006 47.168-53.7109 49.5361-53.7109C53.1982-53.7109 55.6152-51.4404 55.6152-47.998L55.6152-22.5098C55.6152-18.6279 53.4668-16.7969 50.1953-16.7969Z"/>
  </g>
  <g id="Semibold-S" transform="matrix(1 0 0 1 1996.19 696)">
   <path d="M47.0632 4.98887C69.1088 4.98887 87.3237-13.1928 87.3237-35.2384C87.3237-57.284 69.0755-75.4656 47.0299-75.4656C25.0176-75.4656 6.83594-57.284 6.83594-35.2384C6.83594-13.1928 25.0509 4.98887 47.0632 4.98887ZM49.5555-16.9213C46.6572-16.9213 44.842-18.6368 44.842-22.0477L44.842-44.1148L44.5024-44.1148L40.4428-41.4469C39.2288-40.588 38.6784-40.4748 37.8396-40.4748C36.0198-40.4748 34.6816-41.9928 34.6816-43.828C34.6816-45.3082 35.2741-46.2402 36.5923-47.1257L43.1021-51.5182C45.3791-53.0384 46.9547-53.5865 49.0829-53.5865C52.3007-53.5865 54.3355-51.6093 54.3355-48.4602L54.3355-22.0477C54.3355-18.6368 52.4893-16.9213 49.5555-16.9213Z"/>
  </g>
  <g id="Medium-S" transform="matrix(1 0 0 1 1699.83 696)">
   <path d="M46.7061 4.625C68.5293 4.625 86.6162-13.4219 86.6162-35.2451C86.6162-57.0684 68.4893-75.1152 46.666-75.1152C24.8828-75.1152 6.83594-57.0684 6.83594-35.2451C6.83594-13.4219 24.9229 4.625 46.7061 4.625ZM49.0703-17.0156C46.4551-17.0156 44.8555-18.6436 44.8555-21.6973L44.8555-44.7617L44.5361-44.7617L40.2676-41.959C39.1143-41.1338 38.5908-41.0273 37.8193-41.0273C36.1748-41.0273 34.9512-42.4375 34.9512-44.0908C34.9512-45.416 35.4561-46.2402 36.626-47.0381L43.2773-51.5586C45.3926-52.9912 46.793-53.4922 48.7393-53.4922C51.6201-53.4922 53.3652-51.7373 53.3652-48.8105L53.3652-21.6973C53.3652-18.6436 51.748-17.0156 49.0703-17.0156Z"/>
  </g>
  <g id="Regular-S" transform="matrix(1 0 0 1 1403.58 696)">
   <path d="M46.2402 4.15039C67.7734 4.15039 85.6934-13.7207 85.6934-35.2539C85.6934-56.7871 67.7246-74.6582 46.1914-74.6582C24.707-74.6582 6.83594-56.7871 6.83594-35.2539C6.83594-13.7207 24.7559 4.15039 46.2402 4.15039ZM48.4375-17.1387C46.1914-17.1387 44.873-18.6523 44.873-21.2402L44.873-45.6055L44.5801-45.6055L40.0391-42.627C38.9648-41.8457 38.4766-41.748 37.793-41.748C36.377-41.748 35.3027-43.0176 35.3027-44.4336C35.3027-45.5566 35.6934-46.2402 36.6699-46.9238L43.5059-51.6113C45.4102-52.9297 46.582-53.3691 48.291-53.3691C50.7324-53.3691 52.0996-51.9043 52.0996-49.2676L52.0996-21.2402C52.0996-18.6523 50.7812-17.1387 48.4375-17.1387Z"/>
  </g>
  <g id="Light-S" transform="matrix(1 0 0 1 1107.6 696)">
   <path d="M45.5137 3.42383C66.6836 3.42383 84.2251-14.084 84.2251-35.2539C84.2251-56.4238 66.6499-73.9316 45.48-73.9316C24.3286-73.9316 6.83594-56.4238 6.83594-35.2539C6.83594-14.084 24.3623 3.42383 45.5137 3.42383ZM47.499-17.4565C45.7676-17.4565 44.7368-18.6372 44.7368-20.5894L44.7368-46.9829L44.4741-46.9829L38.8887-43.3535C38.1172-42.7842 37.7349-42.7017 37.2026-42.7017C36.0742-42.7017 35.1968-43.7139 35.1968-44.8574C35.1968-45.7383 35.5117-46.3008 36.2915-46.8481L43.5815-51.7324C45.0923-52.7783 46.0068-53.127 47.3374-53.127C49.2188-53.127 50.3135-51.98 50.3135-49.9639L50.3135-20.5894C50.3135-18.6372 49.2979-17.4565 47.499-17.4565Z"/>
  </g>
  <g id="Thin-S" transform="matrix(1 0 0 1 811.863 696)">
   <path d="M44.5527 2.4629C65.2422 2.4629 82.2832-14.5644 82.2832-35.2539C82.2832-55.9434 65.2285-72.9707 44.5391-72.9707C23.8281-72.9707 6.83594-55.9434 6.83594-35.2539C6.83594-14.5644 23.8418 2.4629 44.5527 2.4629ZM46.2578-17.8769C45.207-17.8769 44.5566-18.6172 44.5566-19.7285L44.5566-48.8047L44.334-48.8047L37.3672-44.3144C36.9961-44.0254 36.7539-43.9629 36.4219-43.9629C35.6738-43.9629 35.0566-44.6348 35.0566-45.418C35.0566-45.9785 35.2715-46.3809 35.791-46.748L43.6816-51.8926C44.6719-52.5781 45.2461-52.8066 46.0762-52.8066C47.2168-52.8066 47.9512-52.0801 47.9512-50.8848L47.9512-19.7285C47.9512-18.6172 47.336-17.8769 46.2578-17.8769Z"/>
  </g>
  <g id="Ultralight-S" transform="matrix(1 0 0 1 515.649 696)">
   <path d="M44.0606 1.97072C64.5039 1.97072 81.2886-14.8105 81.2886-35.2539C81.2886-55.6973 64.5005-72.4785 44.0571-72.4785C23.5718-72.4785 6.83594-55.6973 6.83594-35.2539C6.83594-14.8105 23.5752 1.97072 44.0606 1.97072ZM45.6221-18.0923C44.9199-18.0923 44.4644-18.6069 44.4644-19.2876L44.4644-49.7378L44.2622-49.7378L36.5879-44.8066C36.4219-44.6611 36.2515-44.6089 36.022-44.6089C35.4688-44.6089 34.9849-45.1064 34.9849-45.7051C34.9849-46.1016 35.1484-46.4219 35.5347-46.6968L43.7329-51.9746C44.4566-52.4756 44.8565-52.6426 45.4302-52.6426C46.1914-52.6426 46.7413-52.1313 46.7413-51.3564L46.7413-19.2876C46.7413-18.6069 46.3311-18.0923 45.6221-18.0923Z"/>
  </g>
 </g>
</svg>
