<?xml version="1.0" encoding="UTF-8"?>
<!--Generator: Apple Native CoreSVG 175.5-->
<!DOCTYPE svg
PUBLIC "-//W3C//DTD SVG 1.1//EN"
       "http://www.w3.org/Graphics/SVG/1.1/DTD/svg11.dtd">
<svg version="1.1" xmlns="http://www.w3.org/2000/svg" xmlns:xlink="http://www.w3.org/1999/xlink" width="3300" height="2200">
 <!--glyph: "uni10003F.medium", point size: 100.0, font version: "18.0d12e2", template writer version: "101"-->
 <g id="Notes">
  <rect height="2200" id="artboard" style="fill:white;opacity:1" width="3300" x="0" y="0"/>
  <line style="fill:none;stroke:black;opacity:1;stroke-width:0.5;" x1="263" x2="3036" y1="292" y2="292"/>
  <text style="stroke:none;fill:black;font-family:sans-serif;font-size:13;font-weight:bold;" transform="matrix(1 0 0 1 263 322)">Weight/Scale Variations</text>
  <text style="stroke:none;fill:black;font-family:sans-serif;font-size:13;text-anchor:middle;" transform="matrix(1 0 0 1 559.711 322)">Ultralight</text>
  <text style="stroke:none;fill:black;font-family:sans-serif;font-size:13;text-anchor:middle;" transform="matrix(1 0 0 1 856.422 322)">Thin</text>
  <text style="stroke:none;fill:black;font-family:sans-serif;font-size:13;text-anchor:middle;" transform="matrix(1 0 0 1 1153.13 322)">Light</text>
  <text style="stroke:none;fill:black;font-family:sans-serif;font-size:13;text-anchor:middle;" transform="matrix(1 0 0 1 1449.84 322)">Regular</text>
  <text style="stroke:none;fill:black;font-family:sans-serif;font-size:13;text-anchor:middle;" transform="matrix(1 0 0 1 1746.56 322)">Medium</text>
  <text style="stroke:none;fill:black;font-family:sans-serif;font-size:13;text-anchor:middle;" transform="matrix(1 0 0 1 2043.27 322)">Semibold</text>
  <text style="stroke:none;fill:black;font-family:sans-serif;font-size:13;text-anchor:middle;" transform="matrix(1 0 0 1 2339.98 322)">Bold</text>
  <text style="stroke:none;fill:black;font-family:sans-serif;font-size:13;text-anchor:middle;" transform="matrix(1 0 0 1 2636.69 322)">Heavy</text>
  <text style="stroke:none;fill:black;font-family:sans-serif;font-size:13;text-anchor:middle;" transform="matrix(1 0 0 1 2933.4 322)">Black</text>
  <line style="fill:none;stroke:black;opacity:1;stroke-width:0.5;" x1="263" x2="3036" y1="1903" y2="1903"/>
  <g transform="matrix(1 0 0 1 263 1933)">
   <path d="M9.24805 0.830078C13.5547 0.830078 17.1387-2.74414 17.1387-7.05078C17.1387-11.3574 13.5449-14.9316 9.23828-14.9316C4.94141-14.9316 1.36719-11.3574 1.36719-7.05078C1.36719-2.74414 4.95117 0.830078 9.24805 0.830078ZM9.24805-0.654297C5.70312-0.654297 2.87109-3.49609 2.87109-7.05078C2.87109-10.6055 5.69336-13.4473 9.23828-13.4473C12.793-13.4473 15.6445-10.6055 15.6445-7.05078C15.6445-3.49609 12.8027-0.654297 9.24805-0.654297ZM5.6543-7.05078C5.6543-6.62109 5.95703-6.32812 6.40625-6.32812L8.50586-6.32812L8.50586-4.20898C8.50586-3.76953 8.79883-3.4668 9.22852-3.4668C9.67773-3.4668 9.9707-3.76953 9.9707-4.20898L9.9707-6.32812L12.0898-6.32812C12.5293-6.32812 12.832-6.62109 12.832-7.05078C12.832-7.49023 12.5293-7.79297 12.0898-7.79297L9.9707-7.79297L9.9707-9.90234C9.9707-10.3516 9.67773-10.6543 9.22852-10.6543C8.79883-10.6543 8.50586-10.3516 8.50586-9.90234L8.50586-7.79297L6.40625-7.79297C5.95703-7.79297 5.6543-7.49023 5.6543-7.05078Z"/>
  </g>
  <g transform="matrix(1 0 0 1 281.867 1933)">
   <path d="M11.709 2.91016C17.1582 2.91016 21.6699-1.61133 21.6699-7.05078C21.6699-12.5 17.1484-17.0117 11.6992-17.0117C6.25977-17.0117 1.74805-12.5 1.74805-7.05078C1.74805-1.61133 6.26953 2.91016 11.709 2.91016ZM11.709 1.25C7.09961 1.25 3.41797-2.44141 3.41797-7.05078C3.41797-11.6602 7.08984-15.3516 11.6992-15.3516C16.3086-15.3516 20.0098-11.6602 20.0098-7.05078C20.0098-2.44141 16.3184 1.25 11.709 1.25ZM7.17773-7.05078C7.17773-6.57227 7.50977-6.25 8.00781-6.25L10.8789-6.25L10.8789-3.36914C10.8789-2.88086 11.2109-2.53906 11.6895-2.53906C12.1777-2.53906 12.5195-2.87109 12.5195-3.36914L12.5195-6.25L15.4004-6.25C15.8887-6.25 16.2305-6.57227 16.2305-7.05078C16.2305-7.53906 15.8887-7.88086 15.4004-7.88086L12.5195-7.88086L12.5195-10.752C12.5195-11.25 12.1777-11.5918 11.6895-11.5918C11.2109-11.5918 10.8789-11.25 10.8789-10.752L10.8789-7.88086L8.00781-7.88086C7.50977-7.88086 7.17773-7.53906 7.17773-7.05078Z"/>
  </g>
  <g transform="matrix(1 0 0 1 305.646 1933)">
   <path d="M14.9707 5.66406C21.9336 5.66406 27.6953-0.0976562 27.6953-7.05078C27.6953-14.0137 21.9238-19.7754 14.9609-19.7754C8.00781-19.7754 2.25586-14.0137 2.25586-7.05078C2.25586-0.0976562 8.01758 5.66406 14.9707 5.66406ZM14.9707 3.84766C8.93555 3.84766 4.08203-1.01562 4.08203-7.05078C4.08203-13.0957 8.92578-17.9492 14.9609-17.9492C21.0059-17.9492 25.8691-13.0957 25.8691-7.05078C25.8691-1.01562 21.0156 3.84766 14.9707 3.84766ZM9.19922-7.05078C9.19922-6.5332 9.57031-6.17188 10.1172-6.17188L14.0625-6.17188L14.0625-2.2168C14.0625-1.67969 14.4336-1.29883 14.9512-1.29883C15.4883-1.29883 15.8594-1.66992 15.8594-2.2168L15.8594-6.17188L19.8145-6.17188C20.3516-6.17188 20.7324-6.5332 20.7324-7.05078C20.7324-7.59766 20.3613-7.96875 19.8145-7.96875L15.8594-7.96875L15.8594-11.9141C15.8594-12.4609 15.4883-12.8418 14.9512-12.8418C14.4336-12.8418 14.0625-12.4609 14.0625-11.9141L14.0625-7.96875L10.1172-7.96875C9.57031-7.96875 9.19922-7.59766 9.19922-7.05078Z"/>
  </g>
  <text style="stroke:none;fill:black;font-family:sans-serif;font-size:13;font-weight:bold;" transform="matrix(1 0 0 1 263 1953)">Design Variations</text>
  <text style="stroke:none;fill:black;font-family:sans-serif;font-size:13;" transform="matrix(1 0 0 1 263 1971)">Symbols are supported in up to nine weights and three scales.</text>
  <text style="stroke:none;fill:black;font-family:sans-serif;font-size:13;" transform="matrix(1 0 0 1 263 1989)">For optimal layout with text and other symbols, vertically align</text>
  <text style="stroke:none;fill:black;font-family:sans-serif;font-size:13;" transform="matrix(1 0 0 1 263 2007)">symbols with the adjacent text.</text>
  <line style="fill:none;stroke:#00AEEF;stroke-width:0.5;opacity:1.0;" x1="776" x2="776" y1="1919" y2="1933"/>
  <g transform="matrix(1 0 0 1 776 1933)">
   <path d="M3.31055 0.15625C3.82812 0.15625 4.08203-0.0390625 4.26758-0.585938L5.52734-4.0332L11.2891-4.0332L12.5488-0.585938C12.7344-0.0390625 12.9883 0.15625 13.4961 0.15625C14.0137 0.15625 14.3457-0.15625 14.3457-0.644531C14.3457-0.810547 14.3164-0.966797 14.2383-1.17188L9.6582-13.3691C9.43359-13.9648 9.0332-14.2676 8.4082-14.2676C7.80273-14.2676 7.39258-13.9746 7.17773-13.3789L2.59766-1.16211C2.51953-0.957031 2.49023-0.800781 2.49023-0.634766C2.49023-0.146484 2.80273 0.15625 3.31055 0.15625ZM6.00586-5.51758L8.37891-12.0898L8.42773-12.0898L10.8008-5.51758Z"/>
  </g>
  <line style="fill:none;stroke:#00AEEF;stroke-width:0.5;opacity:1.0;" x1="793.197" x2="793.197" y1="1919" y2="1933"/>
  <text style="stroke:none;fill:black;font-family:sans-serif;font-size:13;font-weight:bold;" transform="matrix(1 0 0 1 776 1953)">Margins</text>
  <text style="stroke:none;fill:black;font-family:sans-serif;font-size:13;" transform="matrix(1 0 0 1 776 1971)">Leading and trailing margins on the left and right side of each symbol</text>
  <text style="stroke:none;fill:black;font-family:sans-serif;font-size:13;" transform="matrix(1 0 0 1 776 1989)">can be adjusted by modifying the x-location of the margin guidelines.</text>
  <text style="stroke:none;fill:black;font-family:sans-serif;font-size:13;" transform="matrix(1 0 0 1 776 2007)">Modifications are automatically applied proportionally to all</text>
  <text style="stroke:none;fill:black;font-family:sans-serif;font-size:13;" transform="matrix(1 0 0 1 776 2025)">scales and weights.</text>
  <g transform="matrix(1 0 0 1 1289 1933)">
   <path d="M2.8418 1.86523L4.54102 3.57422C5.40039 4.44336 6.38672 4.38477 7.31445 3.35938L18.0078-8.42773L17.041-9.4043L6.42578 2.27539C6.07422 2.67578 5.74219 2.77344 5.27344 2.30469L4.10156 1.14258C3.63281 0.683594 3.74023 0.341797 4.14062-0.0195312L15.6152-10.8203L14.6387-11.7871L3.04688-0.898438C2.06055 0.0195312 1.98242 0.996094 2.8418 1.86523ZM9.25781-16.3281C8.83789-15.918 8.80859-15.3418 9.04297-14.9512C9.27734-14.5898 9.73633-14.3555 10.3809-14.5215C11.8457-14.8633 13.3691-14.9219 14.7949-13.9844L14.209-12.5293C13.8672-11.6992 14.043-11.1133 14.5801-10.5664L16.875-8.25195C17.3633-7.76367 17.7734-7.74414 18.3398-7.8418L19.4043-8.03711L20.0684-7.36328L20.0293-6.80664C19.9902-6.30859 20.1172-5.92773 20.6055-5.44922L21.3672-4.70703C21.8457-4.22852 22.4609-4.19922 22.9297-4.66797L25.8398-7.58789C26.3086-8.05664 26.2891-8.65234 25.8105-9.13086L25.0391-9.89258C24.5605-10.3711 24.1895-10.5273 23.7109-10.4883L23.1348-10.4395L22.4902-11.0742L22.7344-12.1973C22.8613-12.7637 22.7051-13.2031 22.1191-13.7891L19.9219-15.9766C16.582-19.2969 12.1484-19.2188 9.25781-16.3281ZM10.752-15.957C13.1836-17.7344 16.4746-17.4316 18.7012-15.2051L21.1328-12.793C21.3672-12.5586 21.4062-12.373 21.3379-12.0312L21.0156-10.5469L22.5195-9.0625L23.5059-9.12109C23.7598-9.13086 23.8379-9.11133 24.0332-8.91602L24.6094-8.33984L22.168-5.89844L21.5918-6.47461C21.3965-6.66992 21.3672-6.74805 21.377-7.01172L21.4453-7.98828L19.9512-9.47266L18.4277-9.21875C18.1055-9.15039 17.959-9.17969 17.7148-9.41406L15.7129-11.416C15.459-11.6504 15.4297-11.8164 15.5859-12.1875L16.4648-14.2773C14.9023-15.7324 12.8711-16.3574 10.8398-15.7617C10.6836-15.7227 10.625-15.8496 10.752-15.957Z"/>
  </g>
  <text style="stroke:none;fill:black;font-family:sans-serif;font-size:13;font-weight:bold;" transform="matrix(1 0 0 1 1289 1953)">Exporting</text>
  <text style="stroke:none;fill:black;font-family:sans-serif;font-size:13;" transform="matrix(1 0 0 1 1289 1971)">Symbols should be outlined when exporting to ensure the</text>
  <text style="stroke:none;fill:black;font-family:sans-serif;font-size:13;" transform="matrix(1 0 0 1 1289 1989)">design is preserved when submitting to Xcode.</text>
  <text id="template-version" style="stroke:none;fill:black;font-family:sans-serif;font-size:13;text-anchor:end;" transform="matrix(1 0 0 1 3036 1933)">Template v.2.0</text>
  <text style="stroke:none;fill:black;font-family:sans-serif;font-size:13;text-anchor:end;" transform="matrix(1 0 0 1 3036 1951)">Requires Xcode 12 or greater</text>
  <text id="descriptive-name" style="stroke:none;fill:black;font-family:sans-serif;font-size:13;text-anchor:end;" transform="matrix(1 0 0 1 3036 1969)">Generated from 3.circle.fill</text>
  <text style="stroke:none;fill:black;font-family:sans-serif;font-size:13;text-anchor:end;" transform="matrix(1 0 0 1 3036 1987)">Typeset at 100 points</text>
  <text style="stroke:none;fill:black;font-family:sans-serif;font-size:13;" transform="matrix(1 0 0 1 263 726)">Small</text>
  <text style="stroke:none;fill:black;font-family:sans-serif;font-size:13;" transform="matrix(1 0 0 1 263 1156)">Medium</text>
  <text style="stroke:none;fill:black;font-family:sans-serif;font-size:13;" transform="matrix(1 0 0 1 263 1586)">Large</text>
 </g>
 <g id="Guides">
  <g id="H-reference" style="fill:#27AAE1;stroke:none;" transform="matrix(1 0 0 1 339 696)">
   <path d="M0.993654 0L3.63775 0L29.3281-67.1323L30.0303-67.1323L30.0303-70.459L28.1226-70.459ZM11.6885-24.4799L46.9815-24.4799L46.2315-26.7285L12.4385-26.7285ZM55.1196 0L57.7637 0L30.6382-70.459L29.4326-70.459L29.4326-67.1323Z"/>
  </g>
  <line id="Baseline-S" style="fill:none;stroke:#27AAE1;opacity:1;stroke-width:0.5;" x1="263" x2="3036" y1="696" y2="696"/>
  <line id="Capline-S" style="fill:none;stroke:#27AAE1;opacity:1;stroke-width:0.5;" x1="263" x2="3036" y1="625.541" y2="625.541"/>
  <g id="H-reference" style="fill:#27AAE1;stroke:none;" transform="matrix(1 0 0 1 339 1126)">
   <path d="M0.993654 0L3.63775 0L29.3281-67.1323L30.0303-67.1323L30.0303-70.459L28.1226-70.459ZM11.6885-24.4799L46.9815-24.4799L46.2315-26.7285L12.4385-26.7285ZM55.1196 0L57.7637 0L30.6382-70.459L29.4326-70.459L29.4326-67.1323Z"/>
  </g>
  <line id="Baseline-M" style="fill:none;stroke:#27AAE1;opacity:1;stroke-width:0.5;" x1="263" x2="3036" y1="1126" y2="1126"/>
  <line id="Capline-M" style="fill:none;stroke:#27AAE1;opacity:1;stroke-width:0.5;" x1="263" x2="3036" y1="1055.54" y2="1055.54"/>
  <g id="H-reference" style="fill:#27AAE1;stroke:none;" transform="matrix(1 0 0 1 339 1556)">
   <path d="M0.993654 0L3.63775 0L29.3281-67.1323L30.0303-67.1323L30.0303-70.459L28.1226-70.459ZM11.6885-24.4799L46.9815-24.4799L46.2315-26.7285L12.4385-26.7285ZM55.1196 0L57.7637 0L30.6382-70.459L29.4326-70.459L29.4326-67.1323Z"/>
  </g>
  <line id="Baseline-L" style="fill:none;stroke:#27AAE1;opacity:1;stroke-width:0.5;" x1="263" x2="3036" y1="1556" y2="1556"/>
  <line id="Capline-L" style="fill:none;stroke:#27AAE1;opacity:1;stroke-width:0.5;" x1="263" x2="3036" y1="1485.54" y2="1485.54"/>
  <line id="left-margin" style="fill:none;stroke:#00AEEF;stroke-width:0.5;opacity:1.0;" x1="1391.32" x2="1391.32" y1="1030.79" y2="1150.12"/>
  <line id="right-margin" style="fill:none;stroke:#00AEEF;stroke-width:0.5;opacity:1.0;" x1="1508.37" x2="1508.37" y1="1030.79" y2="1150.12"/>
 </g>
 <g id="Symbols">
  <g id="Black-L" transform="matrix(1 0 0 1 2854.19 1556)">
   <path d="M79.1958 32.7257C116.56 32.7257 147.154 2.15259 147.154-35.2113C147.154-72.5752 116.539-103.148 79.175-103.148C41.8307-103.148 11.2588-72.5752 11.2588-35.2113C11.2588 2.15259 41.8515 32.7257 79.1958 32.7257ZM79.5233-4.22022C68.056-4.22022 58.4976-9.08631 55.9835-16.1462C55.5682-17.3401 55.3126-18.4859 55.3126-19.8162C55.3126-24.3984 58.6097-27.2855 63.8528-27.2855C67.0824-27.2855 69.4721-25.9731 71.3609-23.364C73.1581-20.56 75.8368-18.907 79.9362-18.907C83.7555-18.907 86.3428-20.7769 86.3428-23.5314C86.3428-26.5504 83.8335-28.3671 79.4057-28.3671L78.0803-28.3671C73.0569-28.3671 69.8038-31.2113 69.8038-35.6299C69.8038-40.1484 72.9401-42.855 78.0803-42.855L79.3153-42.855C82.9701-42.855 85.3836-44.8625 85.3836-47.8698C85.3836-50.5227 83.1206-52.158 79.5886-52.158C76.2723-52.158 73.6356-50.5519 71.8663-47.701C69.9423-44.9971 67.6098-43.7796 64.4166-43.7796C59.1359-43.7796 55.8984-46.6262 55.8984-51.2072C55.8984-52.4791 56.0957-53.725 56.5097-54.9189C59.0071-61.9816 67.6629-66.3192 79.7095-66.3192C94.5389-66.3192 104.152-59.8535 104.152-49.8819C104.152-43.8895 99.0703-38.2508 92.8871-37.4198L92.8871-36.4724C100.277-35.903 105.716-29.8895 105.716-22.376C105.716-11.2576 95.7169-4.22022 79.5233-4.22022Z"/>
  </g>
  <g id="Heavy-L" transform="matrix(1 0 0 1 2558.42 1556)">
   <path d="M78.2532 31.7694C115.056 31.7694 145.278 1.57794 145.278-35.2251C145.278-72.0281 115.026-102.22 78.2231-102.22C41.4446-102.22 11.2588-72.0281 11.2588-35.2251C11.2588 1.57794 41.4748 31.7694 78.2532 31.7694ZM78.427-4.30093C67.2019-4.30093 57.9293-9.20997 55.553-16.3552C55.1835-17.4763 54.9692-18.4799 54.9692-19.7148C54.9692-23.805 57.9018-26.4196 62.5018-26.4196C65.4683-26.4196 67.5983-25.1746 69.2267-22.6632C70.9655-19.44 73.9785-17.3663 78.7853-17.3663C83.5194-17.3663 86.7243-19.7286 86.7243-23.2458C86.7243-26.9514 83.5886-29.3206 78.4556-29.3206L76.3669-29.3206C72.0014-29.3206 69.1404-31.8692 69.1404-35.7583C69.1404-39.7524 71.9122-42.1816 76.3669-42.1816L78.3011-42.1816C82.5873-42.1816 85.5171-44.6633 85.5171-48.2602C85.5171-51.5434 82.821-53.5747 78.5579-53.5747C74.5776-53.5747 71.5725-51.6129 69.8976-48.2778C68.2659-45.713 66.1749-44.5214 63.2173-44.5214C58.6028-44.5214 55.7204-47.0812 55.7204-51.1659C55.7204-52.3561 55.8901-53.4647 56.254-54.5858C58.5517-61.7714 67.0442-66.2385 78.693-66.2385C92.7239-66.2385 101.995-59.7894 101.995-50.0351C101.995-43.8768 96.9267-38.1499 90.6558-37.2874L90.6558-36.4592C98.162-35.8391 103.679-29.7974 103.679-22.2917C103.679-11.3813 94.0133-4.30093 78.427-4.30093Z"/>
  </g>
  <g id="Bold-L" transform="matrix(1 0 0 1 2262.89 1556)">
   <path d="M77.0704 30.5711C113.182 30.5711 142.92 0.870872 142.92-35.2405C142.92-71.3519 113.144-101.052 77.0324-101.052C40.9458-101.052 11.2588-71.3519 11.2588-35.2405C11.2588 0.870872 40.9838 30.5711 77.0704 30.5711ZM77.1043-4.49025C66.2385-4.49025 57.3417-9.42325 55.1196-16.6239C54.804-17.6528 54.6359-18.4945 54.6359-19.6066C54.6359-23.0823 57.1152-25.344 60.9237-25.344C63.545-25.344 65.3522-24.1983 66.6654-21.8471C68.3201-18.1015 71.7926-15.5277 77.3934-15.5277C83.2125-15.5277 87.1485-18.4971 87.1485-22.9371C87.1485-27.4508 83.2665-30.489 77.3097-30.489L74.3057-30.489C70.7324-30.489 68.3555-32.6614 68.3555-35.9047C68.3555-39.2532 70.674-41.3293 74.3057-41.3293L77.0784-41.3293C82.111-41.3293 85.6636-44.3951 85.6636-48.6996C85.6636-52.7441 82.4298-55.2746 77.2898-55.2746C72.532-55.2746 69.0585-52.8747 67.5213-48.9552C66.2433-46.5967 64.452-45.4583 61.8087-45.4583C58.009-45.4583 55.5722-47.6571 55.5722-51.1196C55.5722-52.2025 55.711-53.1494 56.0134-54.1784C58.0503-61.4505 66.328-66.0492 77.4329-66.0492C90.4875-66.0492 99.3288-59.6454 99.3288-50.1824C99.3288-43.8465 94.2905-38.0343 87.9269-37.126L87.9269-36.4363C95.5418-35.7622 101.144-29.6971 101.144-22.2215C101.144-11.5946 91.8853-4.49025 77.1043-4.49025Z"/>
  </g>
  <g id="Semibold-L" transform="matrix(1 0 0 1 1966.99 1556)">
   <path d="M76.2549 29.745C111.889 29.745 141.294 0.383422 141.294-35.2511C141.294-70.8857 111.846-100.247 76.2116-100.247C40.6019-100.247 11.2588-70.8857 11.2588-35.2511C11.2588 0.383422 40.6453 29.745 76.2549 29.745ZM76.1924-4.62076C65.5743-4.62076 56.9366-9.57029 54.8208-16.8091C54.5423-17.7745 54.4062-18.5047 54.4062-19.5321C54.4062-22.5841 56.5729-24.6024 59.8357-24.6024C62.219-24.6024 63.8038-23.5253 64.8997-21.2844C66.4963-17.1787 70.2857-14.2601 76.4339-14.2601C83.001-14.2601 87.4409-17.6481 87.4409-22.7242C87.4409-27.795 83.0444-31.2944 76.5197-31.2944L72.8848-31.2944C69.8575-31.2944 67.8144-33.2075 67.8144-36.0056C67.8144-38.9091 69.8204-40.7417 72.8848-40.7417L76.2354-40.7417C81.7826-40.7417 85.7647-44.2101 85.7647-49.0025C85.7647-53.5718 82.1601-56.4464 76.4155-56.4464C71.1218-56.4464 67.3254-53.7446 65.8831-49.4221C64.849-47.206 63.2643-46.1041 60.8377-46.1041C57.5997-46.1041 55.47-48.0542 55.47-51.0877C55.47-52.0966 55.5876-52.9321 55.8476-53.8975C57.7047-61.2293 65.8343-65.9186 76.5642-65.9186C88.9458-65.9186 97.4905-59.5462 97.4905-50.284C97.4905-43.8256 92.4731-37.9547 86.0456-37.0147L86.0456-36.4206C93.7355-35.7091 99.3958-29.628 99.3958-22.1731C99.3958-11.7416 90.4184-4.62076 76.1924-4.62076Z"/>
  </g>
  <g id="Medium-L" transform="matrix(1 0 0 1 1670.9 1556)">
   <path d="M75.6366 29.1187C110.91 29.1187 140.062 0.0138167 140.062-35.2592C140.062-70.5322 110.862-99.637 75.5892-99.637C40.3412-99.637 11.2588-70.5322 11.2588-35.2592C11.2588 0.0138167 40.3886 29.1187 75.6366 29.1187ZM75.501-4.71973C65.0707-4.71973 56.6295-9.68178 54.5943-16.9495C54.3439-17.8667 54.232-18.5123 54.232-19.4756C54.232-22.2064 56.1618-24.0401 59.0107-24.0401C61.2136-24.0401 62.6297-23.015 63.5608-20.8578C65.1134-16.4791 69.1431-13.299 75.7064-13.299C82.8405-13.299 87.6626-17.0043 87.6626-22.5628C87.6626-28.0561 82.876-31.9052 75.9207-31.9052L71.8073-31.9052C69.1941-31.9052 67.4041-33.6216 67.4041-36.0822C67.4041-38.6482 69.1731-40.2961 71.8073-40.2961L75.5962-40.2961C81.5336-40.2961 85.8413-44.0699 85.8413-49.2321C85.8413-54.1994 81.9556-57.335 75.7526-57.335C70.0525-57.335 66.0113-54.4041 64.641-49.7762C63.7917-47.6679 62.3637-46.5939 60.1014-46.5939C57.2894-46.5939 55.3925-48.3552 55.3925-51.0635C55.3925-52.0163 55.494-52.7673 55.7218-53.6845C57.4426-61.0616 65.4599-65.8197 75.9055-65.8197C87.7767-65.8197 96.0967-59.4709 96.0967-50.361C96.0967-43.8098 91.0951-37.8943 84.6192-36.9303L84.6192-36.4086C92.3658-35.6689 98.0705-29.5755 98.0705-22.1364C98.0705-11.8531 89.3061-4.71973 75.501-4.71973Z"/>
  </g>
  <g id="Regular-L" transform="matrix(1 0 0 1 1374.99 1556)">
   <path d="M74.8301 28.3017C109.632 28.3017 138.454-0.468277 138.454-35.2697C138.454-70.0711 109.579-98.8411 74.7774-98.8411C40.0011-98.8411 11.2588-70.0711 11.2588-35.2697C11.2588-0.468277 40.0538 28.3017 74.8301 28.3017ZM74.5991-4.84881C64.4138-4.84881 56.2288-9.82719 54.2987-17.1327C54.0851-17.9871 54.0047-18.5224 54.0047-19.4019C54.0047-21.7136 55.6255-23.3067 57.9347-23.3067C59.9022-23.3067 61.0983-22.3494 61.8145-20.3014C63.3097-15.5664 67.6528-12.0454 74.7574-12.0454C82.6313-12.0454 87.9517-16.1647 87.9517-22.3523C87.9517-28.3965 82.6564-32.7018 75.1395-32.7018L70.402-32.7018C68.3289-32.7018 66.869-34.1617 66.869-36.182C66.869-38.3078 68.3289-39.715 70.402-39.715L74.7625-39.715C81.2088-39.715 85.9412-43.887 85.9412-49.5317C85.9412-55.0181 81.6888-58.494 74.888-58.494C68.6578-58.494 64.2973-55.2645 63.0208-50.238C62.4127-48.2705 61.189-47.2327 59.141-47.2327C56.8845-47.2327 55.2914-48.7479 55.2914-51.032C55.2914-51.9115 55.3719-52.5523 55.5578-53.4067C57.1007-60.8428 64.9716-65.6906 75.0463-65.6906C86.2519-65.6906 94.2786-59.3727 94.2786-50.4614C94.2786-43.7891 89.2977-37.8155 82.7586-36.8202L82.7586-36.393C90.5793-35.6165 96.3419-29.5071 96.3419-22.0885C96.3419-11.9985 87.8552-4.84881 74.5991-4.84881Z"/>
  </g>
  <g id="Light-L" transform="matrix(1 0 0 1 1079.2 1556)">
   <path d="M73.9141 27.3856C108.257 27.3856 136.603-0.926323 136.603-35.2697C136.603-69.6131 108.224-97.925 73.8804-97.925C39.5239-97.925 11.2588-69.6131 11.2588-35.2697C11.2588-0.926323 39.5576 27.3856 73.9141 27.3856ZM73.912-5.55496C64.3566-5.55496 56.5724-10.3616 54.6423-17.3808C54.4478-18.1588 54.3673-18.675 54.3673-19.44C54.3673-21.2938 55.6636-22.5433 57.4576-22.5433C59.0625-22.5433 60.0296-21.7577 60.5739-20.0724C61.9356-14.9557 66.8894-11.2247 74.0131-11.2247C82.3259-11.2247 87.9327-15.7448 87.9327-22.4286C87.9327-28.7592 82.3128-33.427 74.5478-33.427L69.3713-33.427C67.6991-33.427 66.5636-34.5625 66.5636-36.2011C66.5636-37.907 67.6991-39.0088 69.3713-39.0088L74.1327-39.0088C80.8653-39.0088 85.9222-43.5625 85.9222-49.5508C85.9222-55.438 81.288-59.3147 74.0673-59.3147C67.589-59.3147 62.8277-55.7988 61.7802-50.467C61.363-48.8621 60.3492-47.9961 58.6639-47.9961C56.9036-47.9961 55.6541-49.225 55.6541-51.032C55.6541-51.797 55.7345-52.3806 55.8823-53.1586C57.158-60.2321 64.7999-64.9844 74.1684-64.9844C84.7824-64.9844 92.4655-58.8574 92.4655-50.2896C92.4655-43.6746 87.5991-37.7964 81.0981-36.7248L81.0981-36.3358C88.7662-35.5783 94.5097-29.5262 94.5097-22.2603C94.5097-12.5329 86.2712-5.55496 73.912-5.55496Z"/>
  </g>
  <g id="Thin-L" transform="matrix(1 0 0 1 783.716 1556)">
   <path d="M72.7024 26.174C106.44 26.174 134.155-1.53213 134.155-35.2697C134.155-69.0073 106.432-96.7134 72.694-96.7134C38.8929-96.7134 11.2588-69.0073 11.2588-35.2697C11.2588-1.53213 38.9013 26.174 72.7024 26.174ZM73.0033-6.48891C64.2808-6.48891 57.0267-11.0684 55.0966-17.7089C54.9274-18.386 54.8469-18.877 54.8469-19.4905C54.8469-20.7385 55.7141-21.5337 56.8265-21.5337C57.9519-21.5337 58.616-20.9752 58.9332-19.7695C60.1181-14.148 65.8797-10.1393 73.0286-10.1393C81.922-10.1393 87.9074-15.1895 87.9074-22.5296C87.9074-29.2388 81.8585-34.3862 73.7653-34.3862L68.0083-34.3862C66.8661-34.3862 66.1597-35.0925 66.1597-36.2263C66.1597-37.3769 66.8661-38.0749 68.0083-38.0749L73.2997-38.0749C80.4109-38.0749 85.8969-43.1334 85.8969-49.576C85.8969-55.9933 80.7579-60.4001 72.9819-60.4001C66.1755-60.4001 60.8841-56.5056 60.1395-50.7699C59.9747-49.6446 59.2386-49.0057 58.0328-49.0057C56.9289-49.0057 56.1337-49.8561 56.1337-51.032C56.1337-51.6456 56.2141-52.1534 56.3114-52.8305C57.2337-59.4244 64.5727-64.0505 73.0073-64.0505C82.8387-64.0505 90.0675-58.1759 90.0675-50.0625C90.0675-43.5232 85.3526-37.7712 78.9021-36.5986L78.9021-36.26C86.3682-35.5278 92.0865-29.5515 92.0865-22.4874C92.0865-13.2397 84.1761-6.48891 73.0033-6.48891Z"/>
  </g>
  <g id="Ultralight-L" transform="matrix(1 0 0 1 487.631 1556)">
   <path d="M72.0819 25.5534C105.509 25.5534 132.9-1.84242 132.9-35.2697C132.9-68.697 105.514-96.0928 72.0864-96.0928C38.5697-96.0928 11.2588-68.697 11.2588-35.2697C11.2588-1.84242 38.5652 25.5534 72.0819 25.5534ZM72.5379-6.96728C64.242-6.96728 57.2594-11.4304 55.3294-17.877C55.173-18.5024 55.0926-18.9804 55.0926-19.5164C55.0926-20.454 55.74-21.0165 56.5033-21.0165C57.383-21.0165 57.892-20.5744 58.0928-19.6143C59.1873-13.7342 65.3625-9.58341 72.5244-9.58341C81.7152-9.58341 87.8945-14.905 87.8945-22.5813C87.8945-29.4844 81.6258-34.8775 73.3645-34.8775L67.3101-34.8775C66.4394-34.8775 65.9529-35.364 65.9529-36.2392C65.9529-37.1054 66.4394-37.5965 67.3101-37.5965L72.873-37.5965C80.1782-37.5965 85.884-42.9136 85.884-49.5889C85.884-56.2777 80.4864-60.956 72.426-60.956C65.4515-60.956 59.8886-56.8676 59.2991-50.9251C59.2637-50.0454 58.6697-49.5229 57.7096-49.5229C56.9418-49.5229 56.3793-50.1793 56.3793-51.032C56.3793-51.568 56.4597-52.037 56.5312-52.6624C57.2725-59.0107 64.4563-63.5721 72.4125-63.5721C81.8432-63.5721 88.8393-57.8268 88.8393-49.9461C88.8393-43.4456 84.2019-37.7582 77.7773-36.534L77.7773-36.2213C85.14-35.502 90.8453-29.5644 90.8453-22.6038C90.8453-13.6017 83.103-6.96728 72.5379-6.96728Z"/>
  </g>
  <g id="Black-M" transform="matrix(1 0 0 1 2871.36 1126)">
   <path d="M62.0422 18.116C91.4096 18.116 115.367-5.83621 115.367-35.2035C115.367-64.5709 91.4041-88.5231 62.0367-88.5231C32.6752-88.5231 8.72266-64.5709 8.72266-35.2035C8.72266-5.83621 32.6807 18.116 62.0422 18.116ZM62.4591-11.2316C53.4521-11.2316 45.8556-14.9414 43.7893-20.2988C43.4308-21.276 43.1972-22.2834 43.1972-23.3805C43.1972-27.2913 46.021-29.7157 50.5659-29.7157C53.2449-29.7157 55.2886-28.6643 56.9523-26.6081C58.3769-24.7442 60.2476-23.7968 62.8182-23.7968C65.0504-23.7968 66.5629-24.8764 66.5629-26.4223C66.5629-28.21 65.1133-29.1917 62.2554-29.1917L61.825-29.1917C57.422-29.1917 54.6087-31.6054 54.6087-35.4318C54.6087-39.3264 57.3078-41.6204 61.825-41.6204L62.2351-41.6204C64.5628-41.6204 66.033-42.8198 66.033-44.6896C66.033-46.2575 64.6001-47.2384 62.4353-47.2384C60.403-47.2384 58.6225-46.261 57.2017-44.427C55.4858-42.2618 53.4996-41.3195 50.8724-41.3195C46.2759-41.3195 43.5089-43.7326 43.5089-47.6437C43.5089-48.6837 43.6854-49.7592 44.0442-50.7363C46.1145-56.0534 52.9297-59.2897 62.5089-59.2897C74.604-59.2897 82.2982-54.2921 82.2982-46.4263C82.2982-41.9342 78.3661-37.6544 73.6562-37.0272L73.6562-36.1961C79.2609-35.8011 83.4045-31.1741 83.4045-25.3671C83.4045-16.6236 75.4054-11.2316 62.4591-11.2316Z"/>
  </g>
  <g id="Heavy-M" transform="matrix(1 0 0 1 2575.48 1126)">
   <path d="M61.2053 17.2657C90.0667 17.2657 113.704-6.35571 113.704-35.217C113.704-64.0783 90.0502-87.6997 61.1889-87.6997C32.3418-87.6997 8.72266-64.0783 8.72266-35.217C8.72266-6.35571 32.3582 17.2657 61.2053 17.2657ZM61.4508-11.2454C52.6225-11.2454 45.2683-15.013 43.3368-20.4803C43.0213-21.3933 42.8281-22.2634 42.8281-23.2778C42.8281-26.7499 45.3254-28.9396 49.2892-28.9396C51.7445-28.9396 53.5554-27.9383 54.9805-25.9441C56.3602-23.7057 58.5014-22.3663 61.7618-22.3663C64.8478-22.3663 66.9376-23.8904 66.9376-26.1361C66.9376-28.5685 64.9056-30.0569 61.3811-30.0569L60.2451-30.0569C56.4483-30.0569 53.9884-32.2115 53.9884-35.5557C53.9884-38.9763 56.3611-41.0272 60.2451-41.0272L61.3018-41.0272C64.2203-41.0272 66.1652-42.655 66.1652-45.0694C66.1652-47.2165 64.3443-48.5476 61.5034-48.5476C58.8449-48.5476 56.7413-47.2489 55.3916-44.9698C53.9438-42.907 52.1743-41.9742 49.744-41.9742C45.7529-41.9742 43.3015-44.1334 43.3015-47.6032C43.3015-48.574 43.4511-49.5205 43.7643-50.4336C45.664-55.9042 52.3407-59.2759 61.5962-59.2759C72.9653-59.2759 80.3575-54.2769 80.3575-46.592C80.3575-41.9323 76.4272-37.5575 71.6281-36.9066L71.6281-36.1884C77.3606-35.7421 81.5825-31.0823 81.5825-25.2688C81.5825-16.6952 73.8861-11.2454 61.4508-11.2454Z"/>
  </g>
  <g id="Bold-M" transform="matrix(1 0 0 1 2279.69 1126)">
   <path d="M60.2692 16.3144C88.5644 16.3144 111.844-6.93686 111.844-35.2321C111.844-63.5273 88.5358-86.7786 60.2405-86.7786C31.9688-86.7786 8.72266-63.5273 8.72266-35.2321C8.72266-6.93686 31.9974 16.3144 60.2692 16.3144ZM60.3229-11.2608C51.6944-11.2608 44.6113-15.0931 42.8305-20.6833C42.5631-21.5246 42.4152-22.2411 42.4152-23.163C42.4152-26.1444 44.5473-28.0716 47.8611-28.0716C50.0661-28.0716 51.6165-27.1261 52.7748-25.2013C54.1043-22.544 56.548-20.7661 60.58-20.7661C64.6212-20.7661 67.3568-22.7874 67.3568-25.8159C67.3568-28.9696 64.6732-31.0248 60.4031-31.0248L58.4778-31.0248C55.3591-31.0248 53.2945-32.8896 53.2945-35.6942C53.2945-38.5846 55.302-40.3637 58.4778-40.3637L60.2578-40.3637C63.8372-40.3637 66.3131-42.4707 66.3131-45.4944C66.3131-48.2894 64.0581-50.0121 60.4609-50.0121C57.102-50.0121 54.6369-48.3539 53.3667-45.5769C52.2189-43.6288 50.6919-42.7067 48.4816-42.7067C45.1679-42.7067 43.0695-44.5817 43.0695-47.558C43.0695-48.4514 43.1889-49.2536 43.4511-50.0949C45.1601-55.7373 51.6819-59.2605 60.5753-59.2605C71.1322-59.2605 78.1865-54.26 78.1865-46.7773C78.1865-41.9302 74.2583-37.4491 69.3595-36.7718L69.3595-36.1798C75.2348-35.6761 79.5443-30.9797 79.5443-25.1589C79.5443-16.7753 72.1866-11.2608 60.3229-11.2608Z"/>
  </g>
  <g id="Semibold-M" transform="matrix(1 0 0 1 1983.62 1126)">
   <path d="M59.6238 15.6586C87.5288 15.6586 110.562-7.33749 110.562-35.2425C110.562-63.1475 87.4917-86.1436 59.5867-86.1436C31.7117-86.1436 8.72266-63.1475 8.72266-35.2425C8.72266-7.33749 31.7487 15.6586 59.6238 15.6586ZM59.5452-11.2714C51.0546-11.2714 44.1584-15.1483 42.4815-20.8232C42.2473-21.6151 42.1305-22.2257 42.1305-23.0838C42.1305-25.7269 44.0109-27.4731 46.8766-27.4731C48.909-27.4731 50.2799-26.5662 51.2541-24.6893C52.5491-21.7431 55.2014-19.663 59.7653-19.663C64.4649-19.663 67.6458-22.027 67.6458-25.5952C67.6458-29.246 64.513-31.692 59.7289-31.692L57.2594-31.692C54.6082-31.692 52.8161-33.357 52.8161-35.7897C52.8161-38.3146 54.5719-39.9062 57.2594-39.9062L59.5381-39.9062C63.5731-39.9062 66.415-42.3437 66.415-45.7873C66.415-49.029 63.8608-51.0217 59.7422-51.0217C55.9005-51.0217 53.1861-49.1158 51.9708-45.9954C51.0297-44.1264 49.6699-43.2116 47.6114-43.2116C44.7646-43.2116 42.9095-44.8908 42.9095-47.5268C42.9095-48.3668 43.0081-49.0696 43.2353-49.8615C44.8127-55.6223 51.2277-59.2499 59.8715-59.2499C69.8685-59.2499 76.6898-54.2483 76.6898-46.905C76.6898-41.9288 72.7631-37.3744 67.7954-36.6788L67.7954-36.1739C73.7693-35.6306 78.1392-30.9089 78.1392-25.0831C78.1392-16.8305 71.015-11.2714 59.5452-11.2714Z"/>
  </g>
  <g id="Medium-M" transform="matrix(1 0 0 1 1687.4 1126)">
   <path d="M59.1344 15.1614C86.7435 15.1614 109.59-7.64127 109.59-35.2504C109.59-62.8595 86.7001-85.6621 59.091-85.6621C31.5167-85.6621 8.72266-62.8595 8.72266-35.2504C8.72266-7.64127 31.5601 15.1614 59.1344 15.1614ZM58.9556-11.2794C50.5695-11.2794 43.815-15.1901 42.2169-20.9293C42.0078-21.6837 41.9146-22.214 41.9146-23.0237C41.9146-25.4104 43.6042-27.0193 46.1301-27.0193C48.0317-27.0193 49.2664-26.1416 50.1011-24.301C51.3699-21.1358 54.1803-18.8265 59.1476-18.8265C64.3465-18.8265 67.865-21.4505 67.865-25.4278C67.865-29.4557 64.3916-32.198 59.2177-32.198L56.3356-32.198C54.0388-32.198 52.4533-33.7115 52.4533-35.8621C52.4533-38.1098 54.0183-39.5594 56.3356-39.5594L58.9924-39.5594C63.3728-39.5594 66.4923-42.2474 66.4923-46.0094C66.4923-49.5898 63.7112-51.7873 59.1973-51.7873C54.9895-51.7873 52.0861-49.6934 50.9124-46.3128C50.128-44.5036 48.895-43.5944 46.9516-43.5944C44.4588-43.5944 42.7882-45.1252 42.7882-47.5032C42.7882-48.3027 42.871-48.9301 43.0716-49.6845C44.5493-55.535 50.8833-59.2419 59.3379-59.2419C68.9103-59.2419 75.555-54.2395 75.555-47.0019C75.555-41.9277 71.6294-37.3177 66.6095-36.6083L66.6095-36.1694C72.6582-35.5961 77.0738-30.8552 77.0738-25.0257C77.0738-16.8724 70.1266-11.2794 58.9556-11.2794Z"/>
  </g>
  <g id="Regular-M" transform="matrix(1 0 0 1 1391.32 1126)">
   <path d="M58.4961 14.5128C85.7192 14.5128 108.321-8.0375 108.321-35.2606C108.321-62.4838 85.6675-85.0341 58.4443-85.0341C31.2624-85.0341 8.72266-62.4838 8.72266-35.2606C8.72266-8.0375 31.3141 14.5128 58.4961 14.5128ZM58.1866-11.2899C49.9367-11.2899 43.3671-15.2447 41.8718-21.0677C41.6954-21.7732 41.6331-22.1988 41.6331-22.9454C41.6331-24.9975 43.0736-26.4275 45.1563-26.4275C46.8873-26.4275 47.9445-25.5879 48.5972-23.7946C49.8317-20.3437 52.8485-17.7355 58.3418-17.7355C64.1919-17.7355 68.1508-20.6984 68.1508-25.2095C68.1508-29.7291 64.2331-32.8579 58.5508-32.8579L55.1306-32.8579C53.2962-32.8579 51.9802-34.1738 51.9802-35.9565C51.9802-37.8428 53.2962-39.107 55.1306-39.107L58.2805-39.107C63.1116-39.107 66.5932-42.1217 66.5932-46.2991C66.5932-50.3213 63.5161-52.7858 58.4865-52.7858C53.8011-52.7858 50.6512-50.4469 49.5318-46.7267C48.9519-44.9957 47.8842-44.0938 46.0909-44.0938C44.06-44.0938 42.63-45.4309 42.63-47.4724C42.63-48.219 42.6923-48.7481 42.8581-49.4536C44.2057-55.4213 50.4341-59.2314 58.6418-59.2314C67.6604-59.2314 74.0748-54.2279 74.0748-47.1282C74.0748-41.9262 70.1506-37.2438 65.0627-36.5163L65.0627-36.1636C71.2088-35.5511 75.6842-30.7853 75.6842-24.9507C75.6842-16.927 68.9678-11.2899 58.1866-11.2899Z"/>
  </g>
  <g id="Light-M" transform="matrix(1 0 0 1 1095.44 1126)">
   <path d="M57.6748 13.6915C84.4872 13.6915 106.662-8.44816 106.662-35.2606C106.662-62.0731 84.4526-84.2128 57.6401-84.2128C30.8346-84.2128 8.72266-62.0731 8.72266-35.2606C8.72266-8.44816 30.8693 13.6915 57.6748 13.6915ZM57.5706-11.923C49.8854-11.923 43.6751-15.7239 42.1798-21.2902C42.0205-21.9272 41.9582-22.3357 41.9582-22.9796C41.9582-24.621 43.1079-25.743 44.7286-25.743C46.1344-25.743 46.9863-25.0574 47.485-23.5892C48.5997-19.7962 52.164-16.9997 57.6745-16.9997C63.9182-16.9997 68.1337-20.322 68.1337-25.2779C68.1337-30.0542 63.9251-33.5081 58.0204-33.5081L54.2066-33.5081C52.7315-33.5081 51.7064-34.5331 51.7064-35.9737C51.7064-37.4835 52.7315-38.4739 54.2066-38.4739L57.7159-38.4739C62.8036-38.4739 66.576-41.8308 66.576-46.3162C66.576-50.6977 63.1568-53.5216 57.7508-53.5216C52.8429-53.5216 49.3337-50.926 48.4195-46.932C48.0108-45.5262 47.1313-44.7783 45.6631-44.7783C44.0771-44.7783 42.9551-45.8586 42.9551-47.4724C42.9551-48.1164 43.0174-48.5941 43.149-49.2311C44.257-54.8737 50.2801-58.5983 57.8547-58.5983C66.3429-58.5983 72.4493-53.7659 72.4493-46.9742C72.4493-41.8236 68.6277-37.2267 63.5741-36.4307L63.5741-36.1122C69.5832-35.5168 74.0415-30.8024 74.0415-25.1047C74.0415-17.4061 67.5476-11.923 57.5706-11.923Z"/>
  </g>
  <g id="Thin-M" transform="matrix(1 0 0 1 799.828 1126)">
   <path d="M56.5885 12.6052C82.8578 12.6052 104.466-8.9913 104.466-35.2606C104.466-61.53 82.8458-83.1265 56.5765-83.1265C30.2689-83.1265 8.72266-61.53 8.72266-35.2606C8.72266-8.9913 30.2809 12.6052 56.5885 12.6052ZM56.7559-12.7603C49.8175-12.7603 44.0824-16.3575 42.5871-21.5844C42.4505-22.1309 42.3882-22.5167 42.3882-23.0249C42.3882-24.1232 43.1531-24.8378 44.1628-24.8378C45.1387-24.8378 45.719-24.3559 46.014-23.3177C46.9703-19.072 51.2588-16.0266 56.7919-16.0266C63.5561-16.0266 68.111-19.8241 68.111-25.3685C68.111-30.4842 63.5178-34.3681 57.3189-34.3681L52.9846-34.3681C51.9847-34.3681 51.3443-35.0084 51.3443-35.9963C51.3443-37.0082 51.9847-37.6365 52.9846-37.6365L56.9691-37.6365C62.3963-37.6365 66.5534-41.4461 66.5534-46.3389C66.5534-51.1956 62.6816-54.4947 56.7777-54.4947C51.5756-54.4947 47.5911-51.5597 46.9486-47.2036C46.7661-46.2277 46.1356-45.6835 45.0974-45.6835C44.0997-45.6835 43.3851-46.4244 43.3851-47.4724C43.3851-47.9806 43.4474-48.3904 43.5337-48.9369C44.3249-54.1495 50.0765-57.761 56.8137-57.761C64.6003-57.761 70.2994-53.1549 70.2994-46.7705C70.2994-41.6878 66.6136-37.2041 61.6052-36.3176L61.6052-36.0443C67.4333-35.4716 71.869-30.825 71.869-25.3084C71.869-18.0397 65.6693-12.7603 56.7559-12.7603Z"/>
  </g>
  <g id="Ultralight-M" transform="matrix(1 0 0 1 503.679 1126)">
   <path d="M56.0321 12.0488C82.0233 12.0488 103.342-9.26949 103.342-35.2606C103.342-61.2518 82.0228-82.5701 56.0317-82.5701C29.9791-82.5701 8.72266-61.2518 8.72266-35.2606C8.72266-9.26949 29.9795 12.0488 56.0321 12.0488ZM56.3386-13.1892C49.7827-13.1892 44.2911-16.6821 42.7957-21.7351C42.6707-22.2352 42.6084-22.6094 42.6084-23.0481C42.6084-23.8681 43.1763-24.3742 43.873-24.3742C44.6287-24.3742 45.0699-23.9965 45.2606-23.1786C46.1358-18.7011 50.7952-15.5282 56.3399-15.5282C63.3706-15.5282 68.0994-19.5691 68.0994-25.4148C68.0994-30.7044 63.3091-34.8085 56.9595-34.8085L52.3587-34.8085C51.6022-34.8085 51.1589-35.2518 51.1589-36.0079C51.1589-36.7648 51.6022-37.2077 52.3587-37.2077L56.5865-37.2077C62.1877-37.2077 66.5418-41.249 66.5418-46.3505C66.5418-51.4506 62.4381-54.9931 56.2792-54.9931C50.9265-54.9931 46.6986-51.8842 46.1951-47.3427C46.1286-46.5871 45.6255-46.1471 44.8076-46.1471C44.1113-46.1471 43.6053-46.7142 43.6053-47.4724C43.6053-47.911 43.6676-48.2861 43.7307-48.7862C44.3597-53.7786 49.9721-57.3321 56.2805-57.3321C63.7078-57.3321 69.1982-52.8419 69.1982-46.6662C69.1982-41.6182 65.582-37.1925 60.5968-36.2596L60.5968-36.0096C66.3322-35.4484 70.7562-30.8366 70.7562-25.4127C70.7562-18.3643 64.7072-13.1892 56.3386-13.1892Z"/>
  </g>
  <g id="Black-S" transform="matrix(1 0 0 1 2884.57 696)">
   <path d="M48.8281 6.78711C71.9727 6.78711 90.8203-12.0605 90.8203-35.2051C90.8203-58.3496 71.9727-77.1973 48.8281-77.1973C25.6836-77.1973 6.83594-58.3496 6.83594-35.2051C6.83594-12.0605 25.6836 6.78711 48.8281 6.78711ZM49.2188-16.4551C42.1387-16.4551 36.1328-19.3359 34.4727-23.4863C34.1797-24.2676 33.9844-25.0977 33.9844-25.9766C33.9844-29.1504 36.2793-31.1035 39.9902-31.1035C42.1387-31.1035 43.7988-30.2734 45.166-28.6621C46.2891-27.2949 47.7051-26.6602 49.5117-26.6602C51.0254-26.6602 52.0508-27.3926 52.0508-28.418C52.0508-29.6387 51.0742-30.2734 49.0234-30.2734L48.877-30.2734C45.2637-30.2734 42.9688-32.2266 42.9688-35.3516C42.9688-38.5254 45.166-40.3809 48.877-40.3809L49.0234-40.3809C50.6836-40.3809 51.709-41.2109 51.709-42.5293C51.709-43.6035 50.6836-44.2871 49.1699-44.2871C47.7539-44.2871 46.4355-43.6035 45.3125-42.2852C43.8965-40.5762 42.2852-39.8438 40.1855-39.8438C36.4258-39.8438 34.1797-41.7969 34.1797-44.9707C34.1797-45.8008 34.3262-46.6797 34.6191-47.4609C36.2793-51.5625 41.6504-54.0527 49.2188-54.0527C58.8867-54.0527 64.9902-50.1465 64.9902-43.9453C64.9902-40.4785 61.9141-37.1582 58.252-36.6699L58.252-35.9863C62.5977-35.6934 65.8203-32.0801 65.8203-27.5391C65.8203-20.6543 59.4727-16.4551 49.2188-16.4551Z"/>
  </g>
  <g id="Heavy-S" transform="matrix(1 0 0 1 2588.47 696)">
   <path d="M48.2173 6.16479C70.9816 6.16479 89.6102-12.4524 89.6102-35.2166C89.6102-57.9808 70.97-76.598 48.2058-76.598C25.4531-76.598 6.83594-57.9808 6.83594-35.2166C6.83594-12.4524 25.4646 6.16479 48.2173 6.16479ZM48.4351-16.3859C41.4357-16.3859 35.5912-19.3359 34.0463-23.6131C33.7879-24.3482 33.6271-25.0631 33.6271-25.8844C33.6271-28.7355 35.68-30.5273 38.953-30.5273C40.9517-30.5273 42.4389-29.7203 43.6217-28.1205C44.7217-26.4767 46.2991-25.5308 48.6935-25.5308C50.8871-25.5308 52.3735-26.5974 52.3735-28.1644C52.3735-29.9037 50.9359-30.9303 48.3435-30.9303L47.6438-30.9303C44.5031-30.9303 42.4732-32.6991 42.4732-35.4553C42.4732-38.2719 44.4284-39.9545 47.6438-39.9545L48.2974-39.9545C50.4301-39.9545 51.8242-41.1072 51.8242-42.852C51.8242-44.3757 50.5107-45.3128 48.4669-45.3128C46.5438-45.3128 44.995-44.3872 43.9065-42.7231C42.6979-41.0602 41.248-40.3163 39.2751-40.3163C35.9763-40.3163 33.9607-42.085 33.9607-44.9361C33.9607-45.7201 34.0842-46.4953 34.3426-47.2304C35.8875-51.5049 41.1664-54.1219 48.5388-54.1219C57.6536-54.1219 63.5382-50.1926 63.5382-44.1067C63.5382-40.49 60.4505-37.0775 56.7077-36.5777L56.7077-35.9863C61.1801-35.6473 64.472-31.9994 64.472-27.4353C64.472-20.6543 58.3548-16.3859 48.4351-16.3859Z"/>
  </g>
  <g id="Bold-S" transform="matrix(1 0 0 1 2292.43 696)">
   <path d="M47.5342 5.46875C69.873 5.46875 88.2568-12.8906 88.2568-35.2295C88.2568-57.5684 69.8486-75.9277 47.5098-75.9277C25.1953-75.9277 6.83594-57.5684 6.83594-35.2295C6.83594-12.8906 25.2197 5.46875 47.5342 5.46875ZM47.5586-16.3086C40.6494-16.3086 34.9854-19.3359 33.5693-23.7549C33.3496-24.4385 33.2275-25.0244 33.2275-25.7812C33.2275-28.2715 35.0098-29.8828 37.793-29.8828C39.624-29.8828 40.918-29.1016 41.8945-27.5146C42.9688-25.5615 44.7266-24.2676 47.7783-24.2676C50.7324-24.2676 52.7344-25.708 52.7344-27.8809C52.7344-30.2002 50.7812-31.665 47.583-31.665L46.2646-31.665C43.6523-31.665 41.9189-33.2275 41.9189-35.5713C41.9189-37.9883 43.6035-39.4775 46.2646-39.4775L47.4854-39.4775C50.1465-39.4775 51.9531-40.9912 51.9531-43.2129C51.9531-45.2393 50.3174-46.46 47.6807-46.46C45.1904-46.46 43.3838-45.2637 42.334-43.2129C41.3574-41.6016 40.0879-40.8447 38.2568-40.8447C35.4736-40.8447 33.7158-42.4072 33.7158-44.8975C33.7158-45.6299 33.8135-46.2891 34.0332-46.9727C35.4492-51.4404 40.625-54.1992 47.7783-54.1992C56.2744-54.1992 61.9141-50.2441 61.9141-44.2871C61.9141-40.5029 58.8135-36.9873 54.9805-36.4746L54.9805-35.9863C59.5947-35.5957 62.9639-31.9092 62.9639-27.3193C62.9639-20.6543 57.1045-16.3086 47.5586-16.3086Z"/>
  </g>
  <g id="Semibold-S" transform="matrix(1 0 0 1 1996.19 696)">
   <path d="M47.0632 4.98887C69.1088 4.98887 87.3237-13.1928 87.3237-35.2384C87.3237-57.284 69.0755-75.4656 47.0299-75.4656C25.0176-75.4656 6.83594-57.284 6.83594-35.2384C6.83594-13.1928 25.0509 4.98887 47.0632 4.98887ZM46.9543-16.2553C40.1073-16.2553 34.5677-19.3359 33.2405-23.8526C33.0475-24.5007 32.9521-24.9978 32.9521-25.7102C32.9521-27.9516 34.5477-29.4385 36.9932-29.4385C38.7087-29.4385 39.8693-28.675 40.7037-27.097C41.7602-24.9306 43.6424-23.3967 47.1474-23.3967C50.6258-23.3967 52.9832-25.0948 52.9832-27.6854C52.9832-30.4046 50.6746-32.1716 47.0587-32.1716L45.3138-32.1716C43.0658-32.1716 41.5368-33.5919 41.5368-35.6513C41.5368-37.7928 43.0348-39.1487 45.3138-39.1487L46.9255-39.1487C49.951-39.1487 52.042-40.9112 52.042-43.4617C52.042-45.8347 50.1841-47.2509 47.1386-47.2509C44.2573-47.2509 42.2729-45.868 41.2498-43.5506C40.4332-41.9748 39.2881-41.2091 37.5548-41.2091C35.1271-41.2091 33.547-42.6294 33.547-44.8708C33.547-45.5677 33.6269-46.1469 33.8199-46.7949C35.1471-51.396 40.2518-54.2525 47.254-54.2525C55.3235-54.2525 60.7943-50.2797 60.7943-44.4115C60.7943-40.5118 57.6849-36.9251 53.7896-36.4035L53.7896-35.9863C58.5017-35.5602 61.9241-31.847 61.9241-27.2394C61.9241-20.6543 56.2425-16.2553 46.9543-16.2553Z"/>
  </g>
  <g id="Medium-S" transform="matrix(1 0 0 1 1699.83 696)">
   <path d="M46.7061 4.625C68.5293 4.625 86.6162-13.4219 86.6162-35.2451C86.6162-57.0684 68.4893-75.1152 46.666-75.1152C24.8828-75.1152 6.83594-57.0684 6.83594-35.2451C6.83594-13.4219 24.9229 4.625 46.7061 4.625ZM46.4961-16.2148C39.6963-16.2148 34.251-19.3359 32.9912-23.9268C32.8184-24.5479 32.7432-24.9775 32.7432-25.6562C32.7432-27.709 34.1973-29.1016 36.3867-29.1016C38.0146-29.1016 39.0742-28.3516 39.8008-26.7803C40.8438-24.4521 42.8203-22.7363 46.6689-22.7363C50.5449-22.7363 53.1719-24.6299 53.1719-27.5371C53.1719-30.5596 50.5938-32.5557 46.6611-32.5557L44.5928-32.5557C42.6211-32.5557 41.2471-33.8682 41.2471-35.7119C41.2471-37.6445 42.6035-38.8994 44.5928-38.8994L46.501-38.8994C49.8027-38.8994 52.1094-40.8506 52.1094-43.6504C52.1094-46.2861 50.083-47.8506 46.7275-47.8506C43.5498-47.8506 41.4307-46.3262 40.4277-43.8066C39.7324-42.2578 38.6816-41.4854 37.0225-41.4854C34.8643-41.4854 33.4189-42.7979 33.4189-44.8506C33.4189-45.5205 33.4854-46.0391 33.6582-46.6602C34.918-51.3623 39.9688-54.293 46.8564-54.293C54.6025-54.293 59.9453-50.3066 59.9453-44.5059C59.9453-40.5186 56.8291-36.8779 52.8867-36.3496L52.8867-35.9863C57.6729-35.5332 61.1357-31.7998 61.1357-27.1787C61.1357-20.6543 55.5889-16.2148 46.4961-16.2148Z"/>
  </g>
  <g id="Regular-S" transform="matrix(1 0 0 1 1403.58 696)">
   <path d="M46.2402 4.15039C67.7734 4.15039 85.6934-13.7207 85.6934-35.2539C85.6934-56.7871 67.7246-74.6582 46.1914-74.6582C24.707-74.6582 6.83594-56.7871 6.83594-35.2539C6.83594-13.7207 24.7559 4.15039 46.2402 4.15039ZM45.8984-16.1621C39.1602-16.1621 33.8379-19.3359 32.666-24.0234C32.5195-24.6094 32.4707-24.9512 32.4707-25.5859C32.4707-27.3926 33.7402-28.6621 35.5957-28.6621C37.1094-28.6621 38.0371-27.9297 38.623-26.3672C39.6484-23.8281 41.748-21.875 46.0449-21.875C50.4395-21.875 53.418-24.0234 53.418-27.3438C53.418-30.7617 50.4883-33.0566 46.1426-33.0566L43.6523-33.0566C42.041-33.0566 40.8691-34.2285 40.8691-35.791C40.8691-37.4512 42.041-38.5742 43.6523-38.5742L45.9473-38.5742C49.6094-38.5742 52.1973-40.7715 52.1973-43.8965C52.1973-46.875 49.9512-48.6328 46.1914-48.6328C42.627-48.6328 40.332-46.9238 39.3555-44.1406C38.8184-42.627 37.8906-41.8457 36.3281-41.8457C34.5215-41.8457 33.252-43.0176 33.252-44.8242C33.252-45.459 33.3008-45.8984 33.4473-46.4844C34.6191-51.3184 39.5996-54.3457 46.3379-54.3457C53.6621-54.3457 58.8379-50.3418 58.8379-44.6289C58.8379-40.5273 55.7129-36.8164 51.709-36.2793L51.709-35.9863C56.5918-35.498 60.1074-31.7383 60.1074-27.0996C60.1074-20.6543 54.7363-16.1621 45.8984-16.1621Z"/>
  </g>
  <g id="Light-S" transform="matrix(1 0 0 1 1107.6 696)">
   <path d="M45.5137 3.42383C66.6836 3.42383 84.2251-14.084 84.2251-35.2539C84.2251-56.4238 66.6499-73.9316 45.48-73.9316C24.3286-73.9316 6.83594-56.4238 6.83594-35.2539C6.83594-14.084 24.3623 3.42383 45.5137 3.42383ZM45.3535-16.7222C39.1147-16.7222 34.1103-19.7598 32.9385-24.2202C32.8071-24.7456 32.7583-25.0723 32.7583-25.6162C32.7583-27.0596 33.7705-28.0566 35.2173-28.0566C36.4434-28.0566 37.1895-27.4605 37.6392-26.1855C38.5586-23.3438 41.1426-21.2241 45.4546-21.2241C50.1973-21.2241 53.4028-23.6904 53.4028-27.4043C53.4028-31.0493 50.2158-33.6318 45.6733-33.6318L42.835-33.6318C41.5415-33.6318 40.627-34.5464 40.627-35.8062C40.627-37.1333 41.5415-38.0142 42.835-38.0142L45.4478-38.0142C49.3369-38.0142 52.1821-40.5142 52.1821-43.9116C52.1821-47.208 49.6333-49.2837 45.5405-49.2837C41.7793-49.2837 39.1665-47.3477 38.3716-44.3223C37.9858-43.0962 37.2246-42.4512 35.9497-42.4512C34.5366-42.4512 33.5395-43.396 33.5395-44.8242C33.5395-45.3682 33.5884-45.7622 33.7046-46.2876C34.6646-50.834 39.4634-53.7856 45.6416-53.7856C52.4966-53.7856 57.3999-49.9331 57.3999-44.4927C57.3999-40.4365 54.3657-36.8013 50.3921-36.2036L50.3921-35.9409C55.1538-35.4678 58.6543-31.7534 58.6543-27.2358C58.6543-21.0781 53.48-16.7222 45.3535-16.7222Z"/>
  </g>
  <g id="Thin-S" transform="matrix(1 0 0 1 811.863 696)">
   <path d="M44.5527 2.4629C65.2422 2.4629 82.2832-14.5644 82.2832-35.2539C82.2832-55.9434 65.2285-72.9707 44.5391-72.9707C23.8281-72.9707 6.83594-55.9434 6.83594-35.2539C6.83594-14.5644 23.8418 2.4629 44.5527 2.4629ZM44.6328-17.4629C39.0547-17.4629 34.4707-20.3203 33.2988-24.4805C33.1875-24.9258 33.1387-25.2324 33.1387-25.6562C33.1387-26.6191 33.8105-27.2559 34.7168-27.2559C35.5625-27.2559 36.0684-26.8399 36.3379-25.9453C37.1172-22.7031 40.3418-20.3633 44.6738-20.3633C49.877-20.3633 53.3828-23.25 53.3828-27.4844C53.3828-31.4297 49.8555-34.3926 45.0527-34.3926L41.7539-34.3926C40.8809-34.3926 40.3066-34.9668 40.3066-35.8262C40.3066-36.7129 40.8809-37.2734 41.7539-37.2734L44.7871-37.2734C48.9766-37.2734 52.1621-40.1738 52.1621-43.9316C52.1621-47.6484 49.2129-50.1445 44.6797-50.1445C40.6582-50.1445 37.625-47.9082 37.0703-44.5625C36.8848-43.7168 36.3438-43.2519 35.4492-43.2519C34.5566-43.2519 33.9199-43.8965 33.9199-44.8242C33.9199-45.248 33.9687-45.582 34.0449-46.0273C34.7246-50.1934 39.2832-53.0449 44.7207-53.0449C50.9551-53.0449 55.4981-49.3926 55.4981-44.3125C55.4981-40.3164 52.584-36.7813 48.6504-36.1035L48.6504-35.8809C53.252-35.4277 56.7324-31.7734 56.7324-27.416C56.7324-21.6387 51.8184-17.4629 44.6328-17.4629Z"/>
  </g>
  <g id="Ultralight-S" transform="matrix(1 0 0 1 515.649 696)">
   <path d="M44.0606 1.97072C64.5039 1.97072 81.2886-14.8105 81.2886-35.2539C81.2886-55.6973 64.5005-72.4785 44.0571-72.4785C23.5718-72.4785 6.83594-55.6973 6.83594-35.2539C6.83594-14.8105 23.5752 1.97072 44.0606 1.97072ZM44.2637-17.8423C39.0239-17.8423 34.6553-20.6074 33.4834-24.6138C33.3823-25.0181 33.3335-25.3145 33.3335-25.6768C33.3335-26.3936 33.8311-26.8457 34.4605-26.8457C35.1113-26.8457 35.4942-26.522 35.6714-25.8223C36.3789-22.375 39.9317-19.9224 44.2739-19.9224C49.7129-19.9224 53.3726-23.0244 53.3726-27.5254C53.3726-31.6245 49.6709-34.7822 44.7349-34.7822L41.2002-34.7822C40.5425-34.7822 40.1426-35.1821 40.1426-35.8364C40.1426-36.4976 40.5425-36.8941 41.2002-36.8941L44.4487-36.8941C48.792-36.8941 52.1519-39.9995 52.1519-43.9419C52.1519-47.874 48.9976-50.5854 44.2388-50.5854C40.084-50.5854 36.8355-48.1953 36.4038-44.6855C36.3208-44.0347 35.8926-43.6621 35.1929-43.6621C34.5669-43.6621 34.1147-44.1528 34.1147-44.8242C34.1147-45.1865 34.1636-45.4897 34.2192-45.894C34.7554-49.8652 39.1909-52.6655 44.249-52.6655C50.1656-52.6655 54.524-49.1157 54.524-44.2202C54.524-40.2549 51.6714-36.771 47.7583-36.0522L47.7583-35.8501C52.2779-35.4072 55.7481-31.7837 55.7481-27.5083C55.7481-21.9258 50.9673-17.8423 44.2637-17.8423Z"/>
  </g>
 </g>
</svg>
