<?xml version="1.0" encoding="UTF-8"?>
<!--Generator: Apple Native CoreSVG 175.5-->
<!DOCTYPE svg
PUBLIC "-//W3C//DTD SVG 1.1//EN"
       "http://www.w3.org/Graphics/SVG/1.1/DTD/svg11.dtd">
<svg version="1.1" xmlns="http://www.w3.org/2000/svg" xmlns:xlink="http://www.w3.org/1999/xlink" width="3300" height="2200">
 <!--glyph: "uni100039.medium", point size: 100.0, font version: "18.0d12e2", template writer version: "101"-->
 <g id="Notes">
  <rect height="2200" id="artboard" style="fill:white;opacity:1" width="3300" x="0" y="0"/>
  <line style="fill:none;stroke:black;opacity:1;stroke-width:0.5;" x1="263" x2="3036" y1="292" y2="292"/>
  <text style="stroke:none;fill:black;font-family:sans-serif;font-size:13;font-weight:bold;" transform="matrix(1 0 0 1 263 322)">Weight/Scale Variations</text>
  <text style="stroke:none;fill:black;font-family:sans-serif;font-size:13;text-anchor:middle;" transform="matrix(1 0 0 1 559.711 322)">Ultralight</text>
  <text style="stroke:none;fill:black;font-family:sans-serif;font-size:13;text-anchor:middle;" transform="matrix(1 0 0 1 856.422 322)">Thin</text>
  <text style="stroke:none;fill:black;font-family:sans-serif;font-size:13;text-anchor:middle;" transform="matrix(1 0 0 1 1153.13 322)">Light</text>
  <text style="stroke:none;fill:black;font-family:sans-serif;font-size:13;text-anchor:middle;" transform="matrix(1 0 0 1 1449.84 322)">Regular</text>
  <text style="stroke:none;fill:black;font-family:sans-serif;font-size:13;text-anchor:middle;" transform="matrix(1 0 0 1 1746.56 322)">Medium</text>
  <text style="stroke:none;fill:black;font-family:sans-serif;font-size:13;text-anchor:middle;" transform="matrix(1 0 0 1 2043.27 322)">Semibold</text>
  <text style="stroke:none;fill:black;font-family:sans-serif;font-size:13;text-anchor:middle;" transform="matrix(1 0 0 1 2339.98 322)">Bold</text>
  <text style="stroke:none;fill:black;font-family:sans-serif;font-size:13;text-anchor:middle;" transform="matrix(1 0 0 1 2636.69 322)">Heavy</text>
  <text style="stroke:none;fill:black;font-family:sans-serif;font-size:13;text-anchor:middle;" transform="matrix(1 0 0 1 2933.4 322)">Black</text>
  <line style="fill:none;stroke:black;opacity:1;stroke-width:0.5;" x1="263" x2="3036" y1="1903" y2="1903"/>
  <g transform="matrix(1 0 0 1 263 1933)">
   <path d="M9.24805 0.830078C13.5547 0.830078 17.1387-2.74414 17.1387-7.05078C17.1387-11.3574 13.5449-14.9316 9.23828-14.9316C4.94141-14.9316 1.36719-11.3574 1.36719-7.05078C1.36719-2.74414 4.95117 0.830078 9.24805 0.830078ZM9.24805-0.654297C5.70312-0.654297 2.87109-3.49609 2.87109-7.05078C2.87109-10.6055 5.69336-13.4473 9.23828-13.4473C12.793-13.4473 15.6445-10.6055 15.6445-7.05078C15.6445-3.49609 12.8027-0.654297 9.24805-0.654297ZM5.6543-7.05078C5.6543-6.62109 5.95703-6.32812 6.40625-6.32812L8.50586-6.32812L8.50586-4.20898C8.50586-3.76953 8.79883-3.4668 9.22852-3.4668C9.67773-3.4668 9.9707-3.76953 9.9707-4.20898L9.9707-6.32812L12.0898-6.32812C12.5293-6.32812 12.832-6.62109 12.832-7.05078C12.832-7.49023 12.5293-7.79297 12.0898-7.79297L9.9707-7.79297L9.9707-9.90234C9.9707-10.3516 9.67773-10.6543 9.22852-10.6543C8.79883-10.6543 8.50586-10.3516 8.50586-9.90234L8.50586-7.79297L6.40625-7.79297C5.95703-7.79297 5.6543-7.49023 5.6543-7.05078Z"/>
  </g>
  <g transform="matrix(1 0 0 1 281.867 1933)">
   <path d="M11.709 2.91016C17.1582 2.91016 21.6699-1.61133 21.6699-7.05078C21.6699-12.5 17.1484-17.0117 11.6992-17.0117C6.25977-17.0117 1.74805-12.5 1.74805-7.05078C1.74805-1.61133 6.26953 2.91016 11.709 2.91016ZM11.709 1.25C7.09961 1.25 3.41797-2.44141 3.41797-7.05078C3.41797-11.6602 7.08984-15.3516 11.6992-15.3516C16.3086-15.3516 20.0098-11.6602 20.0098-7.05078C20.0098-2.44141 16.3184 1.25 11.709 1.25ZM7.17773-7.05078C7.17773-6.57227 7.50977-6.25 8.00781-6.25L10.8789-6.25L10.8789-3.36914C10.8789-2.88086 11.2109-2.53906 11.6895-2.53906C12.1777-2.53906 12.5195-2.87109 12.5195-3.36914L12.5195-6.25L15.4004-6.25C15.8887-6.25 16.2305-6.57227 16.2305-7.05078C16.2305-7.53906 15.8887-7.88086 15.4004-7.88086L12.5195-7.88086L12.5195-10.752C12.5195-11.25 12.1777-11.5918 11.6895-11.5918C11.2109-11.5918 10.8789-11.25 10.8789-10.752L10.8789-7.88086L8.00781-7.88086C7.50977-7.88086 7.17773-7.53906 7.17773-7.05078Z"/>
  </g>
  <g transform="matrix(1 0 0 1 305.646 1933)">
   <path d="M14.9707 5.66406C21.9336 5.66406 27.6953-0.0976562 27.6953-7.05078C27.6953-14.0137 21.9238-19.7754 14.9609-19.7754C8.00781-19.7754 2.25586-14.0137 2.25586-7.05078C2.25586-0.0976562 8.01758 5.66406 14.9707 5.66406ZM14.9707 3.84766C8.93555 3.84766 4.08203-1.01562 4.08203-7.05078C4.08203-13.0957 8.92578-17.9492 14.9609-17.9492C21.0059-17.9492 25.8691-13.0957 25.8691-7.05078C25.8691-1.01562 21.0156 3.84766 14.9707 3.84766ZM9.19922-7.05078C9.19922-6.5332 9.57031-6.17188 10.1172-6.17188L14.0625-6.17188L14.0625-2.2168C14.0625-1.67969 14.4336-1.29883 14.9512-1.29883C15.4883-1.29883 15.8594-1.66992 15.8594-2.2168L15.8594-6.17188L19.8145-6.17188C20.3516-6.17188 20.7324-6.5332 20.7324-7.05078C20.7324-7.59766 20.3613-7.96875 19.8145-7.96875L15.8594-7.96875L15.8594-11.9141C15.8594-12.4609 15.4883-12.8418 14.9512-12.8418C14.4336-12.8418 14.0625-12.4609 14.0625-11.9141L14.0625-7.96875L10.1172-7.96875C9.57031-7.96875 9.19922-7.59766 9.19922-7.05078Z"/>
  </g>
  <text style="stroke:none;fill:black;font-family:sans-serif;font-size:13;font-weight:bold;" transform="matrix(1 0 0 1 263 1953)">Design Variations</text>
  <text style="stroke:none;fill:black;font-family:sans-serif;font-size:13;" transform="matrix(1 0 0 1 263 1971)">Symbols are supported in up to nine weights and three scales.</text>
  <text style="stroke:none;fill:black;font-family:sans-serif;font-size:13;" transform="matrix(1 0 0 1 263 1989)">For optimal layout with text and other symbols, vertically align</text>
  <text style="stroke:none;fill:black;font-family:sans-serif;font-size:13;" transform="matrix(1 0 0 1 263 2007)">symbols with the adjacent text.</text>
  <line style="fill:none;stroke:#00AEEF;stroke-width:0.5;opacity:1.0;" x1="776" x2="776" y1="1919" y2="1933"/>
  <g transform="matrix(1 0 0 1 776 1933)">
   <path d="M3.31055 0.15625C3.82812 0.15625 4.08203-0.0390625 4.26758-0.585938L5.52734-4.0332L11.2891-4.0332L12.5488-0.585938C12.7344-0.0390625 12.9883 0.15625 13.4961 0.15625C14.0137 0.15625 14.3457-0.15625 14.3457-0.644531C14.3457-0.810547 14.3164-0.966797 14.2383-1.17188L9.6582-13.3691C9.43359-13.9648 9.0332-14.2676 8.4082-14.2676C7.80273-14.2676 7.39258-13.9746 7.17773-13.3789L2.59766-1.16211C2.51953-0.957031 2.49023-0.800781 2.49023-0.634766C2.49023-0.146484 2.80273 0.15625 3.31055 0.15625ZM6.00586-5.51758L8.37891-12.0898L8.42773-12.0898L10.8008-5.51758Z"/>
  </g>
  <line style="fill:none;stroke:#00AEEF;stroke-width:0.5;opacity:1.0;" x1="793.197" x2="793.197" y1="1919" y2="1933"/>
  <text style="stroke:none;fill:black;font-family:sans-serif;font-size:13;font-weight:bold;" transform="matrix(1 0 0 1 776 1953)">Margins</text>
  <text style="stroke:none;fill:black;font-family:sans-serif;font-size:13;" transform="matrix(1 0 0 1 776 1971)">Leading and trailing margins on the left and right side of each symbol</text>
  <text style="stroke:none;fill:black;font-family:sans-serif;font-size:13;" transform="matrix(1 0 0 1 776 1989)">can be adjusted by modifying the x-location of the margin guidelines.</text>
  <text style="stroke:none;fill:black;font-family:sans-serif;font-size:13;" transform="matrix(1 0 0 1 776 2007)">Modifications are automatically applied proportionally to all</text>
  <text style="stroke:none;fill:black;font-family:sans-serif;font-size:13;" transform="matrix(1 0 0 1 776 2025)">scales and weights.</text>
  <g transform="matrix(1 0 0 1 1289 1933)">
   <path d="M2.8418 1.86523L4.54102 3.57422C5.40039 4.44336 6.38672 4.38477 7.31445 3.35938L18.0078-8.42773L17.041-9.4043L6.42578 2.27539C6.07422 2.67578 5.74219 2.77344 5.27344 2.30469L4.10156 1.14258C3.63281 0.683594 3.74023 0.341797 4.14062-0.0195312L15.6152-10.8203L14.6387-11.7871L3.04688-0.898438C2.06055 0.0195312 1.98242 0.996094 2.8418 1.86523ZM9.25781-16.3281C8.83789-15.918 8.80859-15.3418 9.04297-14.9512C9.27734-14.5898 9.73633-14.3555 10.3809-14.5215C11.8457-14.8633 13.3691-14.9219 14.7949-13.9844L14.209-12.5293C13.8672-11.6992 14.043-11.1133 14.5801-10.5664L16.875-8.25195C17.3633-7.76367 17.7734-7.74414 18.3398-7.8418L19.4043-8.03711L20.0684-7.36328L20.0293-6.80664C19.9902-6.30859 20.1172-5.92773 20.6055-5.44922L21.3672-4.70703C21.8457-4.22852 22.4609-4.19922 22.9297-4.66797L25.8398-7.58789C26.3086-8.05664 26.2891-8.65234 25.8105-9.13086L25.0391-9.89258C24.5605-10.3711 24.1895-10.5273 23.7109-10.4883L23.1348-10.4395L22.4902-11.0742L22.7344-12.1973C22.8613-12.7637 22.7051-13.2031 22.1191-13.7891L19.9219-15.9766C16.582-19.2969 12.1484-19.2188 9.25781-16.3281ZM10.752-15.957C13.1836-17.7344 16.4746-17.4316 18.7012-15.2051L21.1328-12.793C21.3672-12.5586 21.4062-12.373 21.3379-12.0312L21.0156-10.5469L22.5195-9.0625L23.5059-9.12109C23.7598-9.13086 23.8379-9.11133 24.0332-8.91602L24.6094-8.33984L22.168-5.89844L21.5918-6.47461C21.3965-6.66992 21.3672-6.74805 21.377-7.01172L21.4453-7.98828L19.9512-9.47266L18.4277-9.21875C18.1055-9.15039 17.959-9.17969 17.7148-9.41406L15.7129-11.416C15.459-11.6504 15.4297-11.8164 15.5859-12.1875L16.4648-14.2773C14.9023-15.7324 12.8711-16.3574 10.8398-15.7617C10.6836-15.7227 10.625-15.8496 10.752-15.957Z"/>
  </g>
  <text style="stroke:none;fill:black;font-family:sans-serif;font-size:13;font-weight:bold;" transform="matrix(1 0 0 1 1289 1953)">Exporting</text>
  <text style="stroke:none;fill:black;font-family:sans-serif;font-size:13;" transform="matrix(1 0 0 1 1289 1971)">Symbols should be outlined when exporting to ensure the</text>
  <text style="stroke:none;fill:black;font-family:sans-serif;font-size:13;" transform="matrix(1 0 0 1 1289 1989)">design is preserved when submitting to Xcode.</text>
  <text id="template-version" style="stroke:none;fill:black;font-family:sans-serif;font-size:13;text-anchor:end;" transform="matrix(1 0 0 1 3036 1933)">Template v.2.0</text>
  <text style="stroke:none;fill:black;font-family:sans-serif;font-size:13;text-anchor:end;" transform="matrix(1 0 0 1 3036 1951)">Requires Xcode 12 or greater</text>
  <text id="descriptive-name" style="stroke:none;fill:black;font-family:sans-serif;font-size:13;text-anchor:end;" transform="matrix(1 0 0 1 3036 1969)">Generated from 0.circle.fill</text>
  <text style="stroke:none;fill:black;font-family:sans-serif;font-size:13;text-anchor:end;" transform="matrix(1 0 0 1 3036 1987)">Typeset at 100 points</text>
  <text style="stroke:none;fill:black;font-family:sans-serif;font-size:13;" transform="matrix(1 0 0 1 263 726)">Small</text>
  <text style="stroke:none;fill:black;font-family:sans-serif;font-size:13;" transform="matrix(1 0 0 1 263 1156)">Medium</text>
  <text style="stroke:none;fill:black;font-family:sans-serif;font-size:13;" transform="matrix(1 0 0 1 263 1586)">Large</text>
 </g>
 <g id="Guides">
  <g id="H-reference" style="fill:#27AAE1;stroke:none;" transform="matrix(1 0 0 1 339 696)">
   <path d="M0.993654 0L3.63775 0L29.3281-67.1323L30.0303-67.1323L30.0303-70.459L28.1226-70.459ZM11.6885-24.4799L46.9815-24.4799L46.2315-26.7285L12.4385-26.7285ZM55.1196 0L57.7637 0L30.6382-70.459L29.4326-70.459L29.4326-67.1323Z"/>
  </g>
  <line id="Baseline-S" style="fill:none;stroke:#27AAE1;opacity:1;stroke-width:0.5;" x1="263" x2="3036" y1="696" y2="696"/>
  <line id="Capline-S" style="fill:none;stroke:#27AAE1;opacity:1;stroke-width:0.5;" x1="263" x2="3036" y1="625.541" y2="625.541"/>
  <g id="H-reference" style="fill:#27AAE1;stroke:none;" transform="matrix(1 0 0 1 339 1126)">
   <path d="M0.993654 0L3.63775 0L29.3281-67.1323L30.0303-67.1323L30.0303-70.459L28.1226-70.459ZM11.6885-24.4799L46.9815-24.4799L46.2315-26.7285L12.4385-26.7285ZM55.1196 0L57.7637 0L30.6382-70.459L29.4326-70.459L29.4326-67.1323Z"/>
  </g>
  <line id="Baseline-M" style="fill:none;stroke:#27AAE1;opacity:1;stroke-width:0.5;" x1="263" x2="3036" y1="1126" y2="1126"/>
  <line id="Capline-M" style="fill:none;stroke:#27AAE1;opacity:1;stroke-width:0.5;" x1="263" x2="3036" y1="1055.54" y2="1055.54"/>
  <g id="H-reference" style="fill:#27AAE1;stroke:none;" transform="matrix(1 0 0 1 339 1556)">
   <path d="M0.993654 0L3.63775 0L29.3281-67.1323L30.0303-67.1323L30.0303-70.459L28.1226-70.459ZM11.6885-24.4799L46.9815-24.4799L46.2315-26.7285L12.4385-26.7285ZM55.1196 0L57.7637 0L30.6382-70.459L29.4326-70.459L29.4326-67.1323Z"/>
  </g>
  <line id="Baseline-L" style="fill:none;stroke:#27AAE1;opacity:1;stroke-width:0.5;" x1="263" x2="3036" y1="1556" y2="1556"/>
  <line id="Capline-L" style="fill:none;stroke:#27AAE1;opacity:1;stroke-width:0.5;" x1="263" x2="3036" y1="1485.54" y2="1485.54"/>
  <line id="left-margin" style="fill:none;stroke:#00AEEF;stroke-width:0.5;opacity:1.0;" x1="1391.32" x2="1391.32" y1="1030.79" y2="1150.12"/>
  <line id="right-margin" style="fill:none;stroke:#00AEEF;stroke-width:0.5;opacity:1.0;" x1="1508.37" x2="1508.37" y1="1030.79" y2="1150.12"/>
 </g>
 <g id="Symbols">
  <g id="Black-L" transform="matrix(1 0 0 1 2854.19 1556)">
   <path d="M79.1958 32.7257C116.56 32.7257 147.154 2.15259 147.154-35.2113C147.154-72.5752 116.539-103.148 79.175-103.148C41.8307-103.148 11.2588-72.5752 11.2588-35.2113C11.2588 2.15259 41.8515 32.7257 79.1958 32.7257ZM78.9622-5.91401C63.8936-5.91401 54.3112-17.277 54.3112-35.2697C54.3112-53.2624 63.8936-64.6254 78.9622-64.6254C94.0307-64.6254 104.08-53.2624 104.08-35.2697C104.08-17.277 94.0307-5.91401 78.9622-5.91401ZM79.1958-20.1556C83.356-20.1556 86.2037-24.5636 86.2037-35.2697C86.2037-45.9758 83.356-50.3838 79.1958-50.3838C75.0564-50.3838 72.2087-45.9758 72.2087-35.2697C72.2087-24.5636 75.0564-20.1556 79.1958-20.1556Z"/>
  </g>
  <g id="Heavy-L" transform="matrix(1 0 0 1 2558.42 1556)">
   <path d="M78.2532 31.7694C115.056 31.7694 145.278 1.57794 145.278-35.2251C145.278-72.0281 115.026-102.22 78.2231-102.22C41.4446-102.22 11.2588-72.0281 11.2588-35.2251C11.2588 1.57794 41.4748 31.7694 78.2532 31.7694ZM78.0748-5.59498C63.3675-5.59498 53.901-17.1807 53.901-35.2697C53.901-53.3587 63.3675-64.9444 78.0748-64.9444C92.782-64.9444 102.605-53.3587 102.605-35.2697C102.605-17.1807 92.782-5.59498 78.0748-5.59498ZM78.2532-18.3392C83.3046-18.3392 86.7462-23.8649 86.7462-35.2697C86.7462-46.6745 83.3046-52.2002 78.2532-52.2002C73.2321-52.2002 69.7905-46.6745 69.7905-35.2697C69.7905-23.8649 73.2321-18.3392 78.2532-18.3392Z"/>
  </g>
  <g id="Bold-L" transform="matrix(1 0 0 1 2262.89 1556)">
   <path d="M77.0704 30.5711C113.182 30.5711 142.92 0.870872 142.92-35.2405C142.92-71.3519 113.144-101.052 77.0324-101.052C40.9458-101.052 11.2588-71.3519 11.2588-35.2405C11.2588 0.870872 40.9838 30.5711 77.0704 30.5711ZM76.9536-5.33714C62.7443-5.33714 53.4609-17.1398 53.4609-35.2697C53.4609-53.3996 62.7443-65.2023 76.9536-65.2023C91.1629-65.2023 100.68-53.3996 100.68-35.2697C100.68-17.1398 91.1629-5.33714 76.9536-5.33714ZM77.0704-16.1922C83.1909-16.1922 87.3477-23.0191 87.3477-35.2697C87.3477-47.5204 83.1909-54.3472 77.0704-54.3472C70.9879-54.3472 66.831-47.5204 66.831-35.2697C66.831-23.0191 70.9879-16.1922 77.0704-16.1922Z"/>
  </g>
  <g id="Semibold-L" transform="matrix(1 0 0 1 1966.99 1556)">
   <path d="M76.2549 29.745C111.889 29.745 141.294 0.383422 141.294-35.2511C141.294-70.8857 111.846-100.247 76.2116-100.247C40.6019-100.247 11.2588-70.8857 11.2588-35.2511C11.2588 0.383422 40.6453 29.745 76.2549 29.745ZM76.1806-5.15939C62.3146-5.15939 53.1575-17.1117 53.1575-35.2697C53.1575-53.4277 62.3146-65.38 76.1806-65.38C90.0467-65.38 99.3524-53.4277 99.3524-35.2697C99.3524-17.1117 90.0467-5.15939 76.1806-5.15939ZM76.2549-14.712C83.1125-14.712 87.7624-22.4359 87.7624-35.2697C87.7624-48.1035 83.1125-55.8274 76.2549-55.8274C69.4408-55.8274 64.7908-48.1035 64.7908-35.2697C64.7908-22.4359 69.4408-14.712 76.2549-14.712Z"/>
  </g>
  <g id="Medium-L" transform="matrix(1 0 0 1 1670.9 1556)">
   <path d="M75.6366 29.1187C110.91 29.1187 140.062 0.0138167 140.062-35.2592C140.062-70.5322 110.862-99.637 75.5892-99.637C40.3412-99.637 11.2588-70.5322 11.2588-35.2592C11.2588 0.0138167 40.3886 29.1187 75.6366 29.1187ZM75.5946-5.02461C61.9888-5.02461 52.9275-17.0903 52.9275-35.2697C52.9275-53.4491 61.9888-65.5148 75.5946-65.5148C89.2004-65.5148 98.3458-53.4491 98.3458-35.2697C98.3458-17.0903 89.2004-5.02461 75.5946-5.02461ZM75.6366-13.5897C83.053-13.5897 88.0769-21.9938 88.0769-35.2697C88.0769-48.5456 83.053-56.9497 75.6366-56.9497C68.2677-56.9497 63.2438-48.5456 63.2438-35.2697C63.2438-21.9938 68.2677-13.5897 75.6366-13.5897Z"/>
  </g>
  <g id="Regular-L" transform="matrix(1 0 0 1 1374.99 1556)">
   <path d="M74.8301 28.3017C109.632 28.3017 138.454-0.468277 138.454-35.2697C138.454-70.0711 109.579-98.8411 74.7774-98.8411C40.0011-98.8411 11.2588-70.0711 11.2588-35.2697C11.2588-0.468277 40.0538 28.3017 74.8301 28.3017ZM74.8301-4.84881C61.5638-4.84881 52.6274-17.0624 52.6274-35.2697C52.6274-53.477 61.5638-65.6906 74.8301-65.6906C88.0965-65.6906 97.0329-53.477 97.0329-35.2697C97.0329-17.0624 88.0965-4.84881 74.8301-4.84881ZM74.8301-12.1258C82.9755-12.1258 88.487-21.4171 88.487-35.2697C88.487-49.1223 82.9755-58.4136 74.8301-58.4136C66.7375-58.4136 61.226-49.1223 61.226-35.2697C61.226-21.4171 66.7375-12.1258 74.8301-12.1258Z"/>
  </g>
  <g id="Light-L" transform="matrix(1 0 0 1 1079.2 1556)">
   <path d="M73.9141 27.3856C108.257 27.3856 136.603-0.926323 136.603-35.2697C136.603-69.6131 108.224-97.925 73.8804-97.925C39.5239-97.925 11.2588-69.6131 11.2588-35.2697C11.2588-0.926323 39.5576 27.3856 73.9141 27.3856ZM73.9141-5.55496C61.3157-5.55496 52.761-17.5396 52.761-35.2697C52.761-52.9998 61.3157-64.9844 73.9141-64.9844C86.5124-64.9844 95.0671-52.9998 95.0671-35.2697C95.0671-17.5396 86.5124-5.55496 73.9141-5.55496ZM73.9141-11.3052C82.5747-11.3052 88.4489-20.959 88.4489-35.2697C88.4489-49.5804 82.5747-59.2342 73.9141-59.2342C65.2871-59.2342 59.4129-49.5804 59.4129-35.2697C59.4129-20.959 65.2871-11.3052 73.9141-11.3052Z"/>
  </g>
  <g id="Thin-L" transform="matrix(1 0 0 1 783.716 1556)">
   <path d="M72.7024 26.174C106.44 26.174 134.155-1.53213 134.155-35.2697C134.155-69.0073 106.432-96.7134 72.694-96.7134C38.8929-96.7134 11.2588-69.0073 11.2588-35.2697C11.2588-1.53213 38.9013 26.174 72.7024 26.174ZM72.7024-6.48891C60.9876-6.48891 52.9377-18.1706 52.9377-35.2697C52.9377-52.3688 60.9876-64.0505 72.7024-64.0505C84.4173-64.0505 92.4672-52.3688 92.4672-35.2697C92.4672-18.1706 84.4173-6.48891 72.7024-6.48891ZM72.7024-10.2198C82.0446-10.2198 88.3984-20.3532 88.3984-35.2697C88.3984-50.1862 82.0446-60.3196 72.7024-60.3196C63.3687-60.3196 57.015-50.1862 57.015-35.2697C57.015-20.3532 63.3687-10.2198 72.7024-10.2198Z"/>
  </g>
  <g id="Ultralight-L" transform="matrix(1 0 0 1 487.631 1556)">
   <path d="M72.0819 25.5534C105.509 25.5534 132.9-1.84242 132.9-35.2697C132.9-68.697 105.514-96.0928 72.0864-96.0928C38.5697-96.0928 11.2588-68.697 11.2588-35.2697C11.2588-1.84242 38.5652 25.5534 72.0819 25.5534ZM72.0819-6.96728C60.8195-6.96728 53.0282-18.4938 53.0282-35.2697C53.0282-52.0456 60.8195-63.5721 72.0819-63.5721C83.3443-63.5721 91.1356-52.0456 91.1356-35.2697C91.1356-18.4938 83.3443-6.96728 72.0819-6.96728ZM72.0819-9.66383C81.7731-9.66383 88.3725-20.0429 88.3725-35.2697C88.3725-50.4965 81.7731-60.8756 72.0819-60.8756C62.3861-60.8756 55.7867-50.4965 55.7867-35.2697C55.7867-20.0429 62.3861-9.66383 72.0819-9.66383Z"/>
  </g>
  <g id="Black-M" transform="matrix(1 0 0 1 2871.36 1126)">
   <path d="M62.0422 18.116C91.4096 18.116 115.367-5.83621 115.367-35.2035C115.367-64.5709 91.4041-88.5231 62.0367-88.5231C32.6752-88.5231 8.72266-64.5709 8.72266-35.2035C8.72266-5.83621 32.6807 18.116 62.0422 18.116ZM61.8138-12.8874C49.9196-12.8874 42.4478-21.4684 42.4478-35.2606C42.4478-49.0529 49.9196-57.6339 61.8138-57.6339C73.7081-57.6339 81.6367-49.0529 81.6367-35.2606C81.6367-21.4684 73.7081-12.8874 61.8138-12.8874ZM62.0422-25.001C64.5692-25.001 66.3142-27.5046 66.3142-35.2606C66.3142-43.0167 64.5692-45.5203 62.0422-45.5203C59.5207-45.5203 57.7758-43.0167 57.7758-35.2606C57.7758-27.5046 59.5207-25.001 62.0422-25.001Z"/>
  </g>
  <g id="Heavy-M" transform="matrix(1 0 0 1 2575.48 1126)">
   <path d="M61.2053 17.2657C90.0667 17.2657 113.704-6.35571 113.704-35.217C113.704-64.0783 90.0502-87.6997 61.1889-87.6997C32.3418-87.6997 8.72266-64.0783 8.72266-35.217C8.72266-6.35571 32.3582 17.2657 61.2053 17.2657ZM61.0309-12.5104C49.4282-12.5104 42.0345-21.3302 42.0345-35.2606C42.0345-49.1911 49.4282-58.0109 61.0309-58.0109C72.6335-58.0109 80.3762-49.1911 80.3762-35.2606C80.3762-21.3302 72.6335-12.5104 61.0309-12.5104ZM61.2053-23.301C64.556-23.301 66.848-26.8638 66.848-35.2606C66.848-43.6575 64.556-47.2202 61.2053-47.2202C57.8711-47.2202 55.579-43.6575 55.579-35.2606C55.579-26.8638 57.8711-23.301 61.2053-23.301Z"/>
  </g>
  <g id="Bold-M" transform="matrix(1 0 0 1 2279.69 1126)">
   <path d="M60.2692 16.3144C88.5644 16.3144 111.844-6.93686 111.844-35.2321C111.844-63.5273 88.5358-86.7786 60.2405-86.7786C31.9688-86.7786 8.72266-63.5273 8.72266-35.2321C8.72266-6.93686 31.9974 16.3144 60.2692 16.3144ZM60.155-12.0887C48.8785-12.0887 41.5721-21.1756 41.5721-35.2606C41.5721-49.3457 48.8785-58.4326 60.155-58.4326C71.4314-58.4326 78.9662-49.3457 78.9662-35.2606C78.9662-21.1756 71.4314-12.0887 60.155-12.0887ZM60.2692-21.3994C64.5411-21.3994 67.4453-26.147 67.4453-35.2606C67.4453-44.3743 64.5411-49.1219 60.2692-49.1219C56.0258-49.1219 53.1217-44.3743 53.1217-35.2606C53.1217-26.147 56.0258-21.3994 60.2692-21.3994Z"/>
  </g>
  <g id="Semibold-M" transform="matrix(1 0 0 1 1983.62 1126)">
   <path d="M59.6238 15.6586C87.5288 15.6586 110.562-7.33749 110.562-35.2425C110.562-63.1475 87.4917-86.1436 59.5867-86.1436C31.7117-86.1436 8.72266-63.1475 8.72266-35.2425C8.72266-7.33749 31.7487 15.6586 59.6238 15.6586ZM59.5511-11.7979C48.4996-11.7979 41.2534-21.069 41.2534-35.2606C41.2534-49.4523 48.4996-58.7234 59.5511-58.7234C70.6027-58.7234 77.9941-49.4523 77.9941-35.2606C77.9941-21.069 70.6027-11.7979 59.5511-11.7979ZM59.6238-20.0884C64.5309-20.0884 67.857-25.6529 67.857-35.2606C67.857-44.8684 64.5309-50.4329 59.6238-50.4329C54.7537-50.4329 51.4276-44.8684 51.4276-35.2606C51.4276-25.6529 54.7537-20.0884 59.6238-20.0884Z"/>
  </g>
  <g id="Medium-M" transform="matrix(1 0 0 1 1687.4 1126)">
   <path d="M59.1344 15.1614C86.7435 15.1614 109.59-7.64127 109.59-35.2504C109.59-62.8595 86.7001-85.6621 59.091-85.6621C31.5167-85.6621 8.72266-62.8595 8.72266-35.2504C8.72266-7.64127 31.5601 15.1614 59.1344 15.1614ZM59.0933-11.5775C48.2122-11.5775 41.0117-20.9882 41.0117-35.2606C41.0117-49.5331 48.2122-58.9438 59.0933-58.9438C69.9743-58.9438 77.2571-49.5331 77.2571-35.2606C77.2571-20.9882 69.9743-11.5775 59.0933-11.5775ZM59.1344-19.0944C64.5231-19.0944 68.1692-25.2782 68.1692-35.2606C68.1692-45.2431 64.5231-51.4269 59.1344-51.4269C53.7891-51.4269 50.1431-45.2431 50.1431-35.2606C50.1431-25.2782 53.7891-19.0944 59.1344-19.0944Z"/>
  </g>
  <g id="Regular-M" transform="matrix(1 0 0 1 1391.32 1126)">
   <path d="M58.4961 14.5128C85.7192 14.5128 108.321-8.0375 108.321-35.2606C108.321-62.4838 85.6675-85.0341 58.4443-85.0341C31.2624-85.0341 8.72266-62.4838 8.72266-35.2606C8.72266-8.0375 31.3141 14.5128 58.4961 14.5128ZM58.4961-11.2899C47.8374-11.2899 40.6965-20.8828 40.6965-35.2606C40.6965-49.6385 47.8374-59.2314 58.4961-59.2314C69.1547-59.2314 76.2957-49.6385 76.2957-35.2606C76.2957-20.8828 69.1547-11.2899 58.4961-11.2899ZM58.4961-17.7978C64.513-17.7978 68.5764-24.7895 68.5764-35.2606C68.5764-45.7318 64.513-52.7235 58.4961-52.7235C52.5309-52.7235 48.4676-45.7318 48.4676-35.2606C48.4676-24.7895 52.5309-17.7978 58.4961-17.7978Z"/>
  </g>
  <g id="Light-M" transform="matrix(1 0 0 1 1095.44 1126)">
   <path d="M57.6748 13.6915C84.4872 13.6915 106.662-8.44816 106.662-35.2606C106.662-62.0731 84.4526-84.2128 57.6401-84.2128C30.8346-84.2128 8.72266-62.0731 8.72266-35.2606C8.72266-8.44816 30.8693 13.6915 57.6748 13.6915ZM57.6748-11.923C47.615-11.923 40.8163-21.3106 40.8163-35.2606C40.8163-49.2107 47.615-58.5983 57.6748-58.5983C67.7345-58.5983 74.5332-49.2107 74.5332-35.2606C74.5332-21.3106 67.7345-11.923 57.6748-11.923ZM57.6748-17.062C64.1537-17.062 68.5421-24.3788 68.5421-35.2606C68.5421-46.1425 64.1537-53.4593 57.6748-53.4593C51.2305-53.4593 46.842-46.1425 46.842-35.2606C46.842-24.3788 51.2305-17.062 57.6748-17.062Z"/>
  </g>
  <g id="Thin-M" transform="matrix(1 0 0 1 799.828 1126)">
   <path d="M56.5885 12.6052C82.8578 12.6052 104.466-8.9913 104.466-35.2606C104.466-61.53 82.8458-83.1265 56.5765-83.1265C30.2689-83.1265 8.72266-61.53 8.72266-35.2606C8.72266-8.9913 30.2809 12.6052 56.5885 12.6052ZM56.5885-12.7603C47.3208-12.7603 40.9747-21.8764 40.9747-35.2606C40.9747-48.6449 47.3208-57.761 56.5885-57.761C65.8562-57.761 72.2023-48.6449 72.2023-35.2606C72.2023-21.8764 65.8562-12.7603 56.5885-12.7603ZM56.5885-16.0889C63.6784-16.0889 68.4969-23.8357 68.4969-35.2606C68.4969-46.6856 63.6784-54.4324 56.5885-54.4324C49.5106-54.4324 44.6921-46.6856 44.6921-35.2606C44.6921-23.8357 49.5106-16.0889 56.5885-16.0889Z"/>
  </g>
  <g id="Ultralight-M" transform="matrix(1 0 0 1 503.679 1126)">
   <path d="M56.0321 12.0488C82.0233 12.0488 103.342-9.26949 103.342-35.2606C103.342-61.2518 82.0228-82.5701 56.0317-82.5701C29.9791-82.5701 8.72266-61.2518 8.72266-35.2606C8.72266-9.26949 29.9795 12.0488 56.0321 12.0488ZM56.0321-13.1892C47.1701-13.1892 41.0558-22.1661 41.0558-35.2606C41.0558-48.3551 47.1701-57.3321 56.0321-57.3321C64.8941-57.3321 71.0084-48.3551 71.0084-35.2606C71.0084-22.1661 64.8941-13.1892 56.0321-13.1892ZM56.0321-15.5905C63.435-15.5905 68.4737-23.5575 68.4737-35.2606C68.4737-46.9638 63.435-54.9308 56.0321-54.9308C48.6296-54.9308 43.591-46.9638 43.591-35.2606C43.591-23.5575 48.6296-15.5905 56.0321-15.5905Z"/>
  </g>
  <g id="Black-S" transform="matrix(1 0 0 1 2884.57 696)">
   <path d="M48.8281 6.78711C71.9727 6.78711 90.8203-12.0605 90.8203-35.2051C90.8203-58.3496 71.9727-77.1973 48.8281-77.1973C25.6836-77.1973 6.83594-58.3496 6.83594-35.2051C6.83594-12.0605 25.6836 6.78711 48.8281 6.78711ZM48.6328-17.8711C39.2578-17.8711 33.3984-24.5117 33.3984-35.2539C33.3984-45.9961 39.2578-52.6367 48.6328-52.6367C58.0078-52.6367 64.2578-45.9961 64.2578-35.2539C64.2578-24.5117 58.0078-17.8711 48.6328-17.8711ZM48.8281-27.6855C50.5859-27.6855 51.8066-29.3457 51.8066-35.2539C51.8066-41.1621 50.5859-42.8223 48.8281-42.8223C47.0703-42.8223 45.8496-41.1621 45.8496-35.2539C45.8496-29.3457 47.0703-27.6855 48.8281-27.6855Z"/>
  </g>
  <g id="Heavy-S" transform="matrix(1 0 0 1 2588.47 696)">
   <path d="M48.2173 6.16479C70.9816 6.16479 89.6102-12.4524 89.6102-35.2166C89.6102-57.9808 70.97-76.598 48.2058-76.598C25.4531-76.598 6.83594-57.9808 6.83594-35.2166C6.83594-12.4524 25.4646 6.16479 48.2173 6.16479ZM48.0681-17.4677C38.866-17.4677 33.0297-24.3389 33.0297-35.2539C33.0297-46.169 38.866-53.0401 48.0681-53.0401C57.2702-53.0401 63.405-46.169 63.405-35.2539C63.405-24.3389 57.2702-17.4677 48.0681-17.4677ZM48.2173-26.3257C50.6205-26.3257 52.2676-28.8502 52.2676-35.2539C52.2676-41.6577 50.6205-44.1822 48.2173-44.1822C45.8257-44.1822 44.1786-41.6577 44.1786-35.2539C44.1786-28.8502 45.8257-26.3257 48.2173-26.3257Z"/>
  </g>
  <g id="Bold-S" transform="matrix(1 0 0 1 2292.43 696)">
   <path d="M47.5342 5.46875C69.873 5.46875 88.2568-12.8906 88.2568-35.2295C88.2568-57.5684 69.8486-75.9277 47.5098-75.9277C25.1953-75.9277 6.83594-57.5684 6.83594-35.2295C6.83594-12.8906 25.2197 5.46875 47.5342 5.46875ZM47.4365-17.0166C38.4277-17.0166 32.6172-24.1455 32.6172-35.2539C32.6172-46.3623 38.4277-53.4912 47.4365-53.4912C56.4453-53.4912 62.4512-46.3623 62.4512-35.2539C62.4512-24.1455 56.4453-17.0166 47.4365-17.0166ZM47.5342-24.8047C50.6592-24.8047 52.7832-28.2959 52.7832-35.2539C52.7832-42.2119 50.6592-45.7031 47.5342-45.7031C44.4336-45.7031 42.3096-42.2119 42.3096-35.2539C42.3096-28.2959 44.4336-24.8047 47.5342-24.8047Z"/>
  </g>
  <g id="Semibold-S" transform="matrix(1 0 0 1 1996.19 696)">
   <path d="M47.0632 4.98887C69.1088 4.98887 87.3237-13.1928 87.3237-35.2384C87.3237-57.284 69.0755-75.4656 47.0299-75.4656C25.0176-75.4656 6.83594-57.284 6.83594-35.2384C6.83594-13.1928 25.0509 4.98887 47.0632 4.98887ZM47.0011-16.7056C38.1256-16.7056 32.3328-24.0122 32.3328-35.2539C32.3328-46.4956 38.1256-53.8022 47.0011-53.8022C55.8766-53.8022 61.7936-46.4956 61.7936-35.2539C61.7936-24.0122 55.8766-16.7056 47.0011-16.7056ZM47.0632-23.7561C50.6858-23.7561 53.1387-27.9138 53.1387-35.2539C53.1387-42.594 50.6858-46.7518 47.0632-46.7518C43.4738-46.7518 41.021-42.594 41.021-35.2539C41.021-27.9138 43.4738-23.7561 47.0632-23.7561Z"/>
  </g>
  <g id="Medium-S" transform="matrix(1 0 0 1 1699.83 696)">
   <path d="M46.7061 4.625C68.5293 4.625 86.6162-13.4219 86.6162-35.2451C86.6162-57.0684 68.4893-75.1152 46.666-75.1152C24.8828-75.1152 6.83594-57.0684 6.83594-35.2451C6.83594-13.4219 24.9229 4.625 46.7061 4.625ZM46.6709-16.4697C37.8965-16.4697 32.1172-23.9111 32.1172-35.2539C32.1172-46.5967 37.8965-54.0381 46.6709-54.0381C55.4453-54.0381 61.2949-46.5967 61.2949-35.2539C61.2949-23.9111 55.4453-16.4697 46.6709-16.4697ZM46.7061-22.9609C50.7061-22.9609 53.4082-27.624 53.4082-35.2539C53.4082-42.8838 50.7061-47.5469 46.7061-47.5469C42.7461-47.5469 40.0439-42.8838 40.0439-35.2539C40.0439-27.624 42.7461-22.9609 46.7061-22.9609Z"/>
  </g>
  <g id="Regular-S" transform="matrix(1 0 0 1 1403.58 696)">
   <path d="M46.2402 4.15039C67.7734 4.15039 85.6934-13.7207 85.6934-35.2539C85.6934-56.7871 67.7246-74.6582 46.1914-74.6582C24.707-74.6582 6.83594-56.7871 6.83594-35.2539C6.83594-13.7207 24.7559 4.15039 46.2402 4.15039ZM46.2402-16.1621C37.5977-16.1621 31.8359-23.7793 31.8359-35.2539C31.8359-46.7285 37.5977-54.3457 46.2402-54.3457C54.8828-54.3457 60.6445-46.7285 60.6445-35.2539C60.6445-23.7793 54.8828-16.1621 46.2402-16.1621ZM46.2402-21.9238C50.7324-21.9238 53.7598-27.2461 53.7598-35.2539C53.7598-43.2617 50.7324-48.584 46.2402-48.584C41.7969-48.584 38.7695-43.2617 38.7695-35.2539C38.7695-27.2461 41.7969-21.9238 46.2402-21.9238Z"/>
  </g>
  <g id="Light-S" transform="matrix(1 0 0 1 1107.6 696)">
   <path d="M45.5137 3.42383C66.6836 3.42383 84.2251-14.084 84.2251-35.2539C84.2251-56.4238 66.6499-73.9316 45.48-73.9316C24.3286-73.9316 6.83594-56.4238 6.83594-35.2539C6.83594-14.084 24.3623 3.42383 45.5137 3.42383ZM45.5137-16.7222C37.4009-16.7222 31.9419-24.1577 31.9419-35.2539C31.9419-46.3501 37.4009-53.7856 45.5137-53.7856C53.6265-53.7856 59.0855-46.3501 59.0855-35.2539C59.0855-24.1577 53.6265-16.7222 45.5137-16.7222ZM45.5137-21.273C50.4146-21.273 53.7295-26.8828 53.7295-35.2539C53.7295-43.625 50.4146-49.2349 45.5137-49.2349C40.6465-49.2349 37.3316-43.625 37.3316-35.2539C37.3316-26.8828 40.6465-21.273 45.5137-21.273Z"/>
  </g>
  <g id="Thin-S" transform="matrix(1 0 0 1 811.863 696)">
   <path d="M44.5527 2.4629C65.2422 2.4629 82.2832-14.5644 82.2832-35.2539C82.2832-55.9434 65.2285-72.9707 44.5391-72.9707C23.8281-72.9707 6.83594-55.9434 6.83594-35.2539C6.83594-14.5644 23.8418 2.4629 44.5527 2.4629ZM44.5527-17.4629C37.1406-17.4629 32.082-24.6582 32.082-35.2539C32.082-45.8496 37.1406-53.0449 44.5527-53.0449C51.9649-53.0449 57.0235-45.8496 57.0235-35.2539C57.0235-24.6582 51.9649-17.4629 44.5527-17.4629ZM44.5527-20.4121C49.9941-20.4121 53.6895-26.4024 53.6895-35.2539C53.6895-44.1055 49.9941-50.0957 44.5527-50.0957C39.125-50.0957 35.4297-44.1055 35.4297-35.2539C35.4297-26.4024 39.125-20.4121 44.5527-20.4121Z"/>
  </g>
  <g id="Ultralight-S" transform="matrix(1 0 0 1 515.649 696)">
   <path d="M44.0606 1.97072C64.5039 1.97072 81.2886-14.8105 81.2886-35.2539C81.2886-55.6973 64.5005-72.4785 44.0571-72.4785C23.5718-72.4785 6.83594-55.6973 6.83594-35.2539C6.83594-14.8105 23.5752 1.97072 44.0606 1.97072ZM44.0606-17.8423C37.0073-17.8423 32.1538-24.9145 32.1538-35.2539C32.1538-45.5933 37.0073-52.6655 44.0606-52.6655C51.1138-52.6655 55.9673-45.5933 55.9673-35.2539C55.9673-24.9145 51.1138-17.8423 44.0606-17.8423ZM44.0606-19.9712C49.7788-19.9712 53.6689-26.1563 53.6689-35.2539C53.6689-44.3516 49.7788-50.5366 44.0606-50.5366C38.3457-50.5366 34.4556-44.3516 34.4556-35.2539C34.4556-26.1563 38.3457-19.9712 44.0606-19.9712Z"/>
  </g>
 </g>
</svg>
