<?xml version="1.0" encoding="UTF-8"?>
<!--Generator: Apple Native CoreSVG 175.5-->
<!DOCTYPE svg
PUBLIC "-//W3C//DTD SVG 1.1//EN"
       "http://www.w3.org/Graphics/SVG/1.1/DTD/svg11.dtd">
<svg version="1.1" xmlns="http://www.w3.org/2000/svg" xmlns:xlink="http://www.w3.org/1999/xlink" width="3300" height="2200">
 <!--glyph: "uni100041.medium", point size: 100.0, font version: "18.0d12e2", template writer version: "101"-->
 <g id="Notes">
  <rect height="2200" id="artboard" style="fill:white;opacity:1" width="3300" x="0" y="0"/>
  <line style="fill:none;stroke:black;opacity:1;stroke-width:0.5;" x1="263" x2="3036" y1="292" y2="292"/>
  <text style="stroke:none;fill:black;font-family:sans-serif;font-size:13;font-weight:bold;" transform="matrix(1 0 0 1 263 322)">Weight/Scale Variations</text>
  <text style="stroke:none;fill:black;font-family:sans-serif;font-size:13;text-anchor:middle;" transform="matrix(1 0 0 1 559.711 322)">Ultralight</text>
  <text style="stroke:none;fill:black;font-family:sans-serif;font-size:13;text-anchor:middle;" transform="matrix(1 0 0 1 856.422 322)">Thin</text>
  <text style="stroke:none;fill:black;font-family:sans-serif;font-size:13;text-anchor:middle;" transform="matrix(1 0 0 1 1153.13 322)">Light</text>
  <text style="stroke:none;fill:black;font-family:sans-serif;font-size:13;text-anchor:middle;" transform="matrix(1 0 0 1 1449.84 322)">Regular</text>
  <text style="stroke:none;fill:black;font-family:sans-serif;font-size:13;text-anchor:middle;" transform="matrix(1 0 0 1 1746.56 322)">Medium</text>
  <text style="stroke:none;fill:black;font-family:sans-serif;font-size:13;text-anchor:middle;" transform="matrix(1 0 0 1 2043.27 322)">Semibold</text>
  <text style="stroke:none;fill:black;font-family:sans-serif;font-size:13;text-anchor:middle;" transform="matrix(1 0 0 1 2339.98 322)">Bold</text>
  <text style="stroke:none;fill:black;font-family:sans-serif;font-size:13;text-anchor:middle;" transform="matrix(1 0 0 1 2636.69 322)">Heavy</text>
  <text style="stroke:none;fill:black;font-family:sans-serif;font-size:13;text-anchor:middle;" transform="matrix(1 0 0 1 2933.4 322)">Black</text>
  <line style="fill:none;stroke:black;opacity:1;stroke-width:0.5;" x1="263" x2="3036" y1="1903" y2="1903"/>
  <g transform="matrix(1 0 0 1 263 1933)">
   <path d="M9.24805 0.830078C13.5547 0.830078 17.1387-2.74414 17.1387-7.05078C17.1387-11.3574 13.5449-14.9316 9.23828-14.9316C4.94141-14.9316 1.36719-11.3574 1.36719-7.05078C1.36719-2.74414 4.95117 0.830078 9.24805 0.830078ZM9.24805-0.654297C5.70312-0.654297 2.87109-3.49609 2.87109-7.05078C2.87109-10.6055 5.69336-13.4473 9.23828-13.4473C12.793-13.4473 15.6445-10.6055 15.6445-7.05078C15.6445-3.49609 12.8027-0.654297 9.24805-0.654297ZM5.6543-7.05078C5.6543-6.62109 5.95703-6.32812 6.40625-6.32812L8.50586-6.32812L8.50586-4.20898C8.50586-3.76953 8.79883-3.4668 9.22852-3.4668C9.67773-3.4668 9.9707-3.76953 9.9707-4.20898L9.9707-6.32812L12.0898-6.32812C12.5293-6.32812 12.832-6.62109 12.832-7.05078C12.832-7.49023 12.5293-7.79297 12.0898-7.79297L9.9707-7.79297L9.9707-9.90234C9.9707-10.3516 9.67773-10.6543 9.22852-10.6543C8.79883-10.6543 8.50586-10.3516 8.50586-9.90234L8.50586-7.79297L6.40625-7.79297C5.95703-7.79297 5.6543-7.49023 5.6543-7.05078Z"/>
  </g>
  <g transform="matrix(1 0 0 1 281.867 1933)">
   <path d="M11.709 2.91016C17.1582 2.91016 21.6699-1.61133 21.6699-7.05078C21.6699-12.5 17.1484-17.0117 11.6992-17.0117C6.25977-17.0117 1.74805-12.5 1.74805-7.05078C1.74805-1.61133 6.26953 2.91016 11.709 2.91016ZM11.709 1.25C7.09961 1.25 3.41797-2.44141 3.41797-7.05078C3.41797-11.6602 7.08984-15.3516 11.6992-15.3516C16.3086-15.3516 20.0098-11.6602 20.0098-7.05078C20.0098-2.44141 16.3184 1.25 11.709 1.25ZM7.17773-7.05078C7.17773-6.57227 7.50977-6.25 8.00781-6.25L10.8789-6.25L10.8789-3.36914C10.8789-2.88086 11.2109-2.53906 11.6895-2.53906C12.1777-2.53906 12.5195-2.87109 12.5195-3.36914L12.5195-6.25L15.4004-6.25C15.8887-6.25 16.2305-6.57227 16.2305-7.05078C16.2305-7.53906 15.8887-7.88086 15.4004-7.88086L12.5195-7.88086L12.5195-10.752C12.5195-11.25 12.1777-11.5918 11.6895-11.5918C11.2109-11.5918 10.8789-11.25 10.8789-10.752L10.8789-7.88086L8.00781-7.88086C7.50977-7.88086 7.17773-7.53906 7.17773-7.05078Z"/>
  </g>
  <g transform="matrix(1 0 0 1 305.646 1933)">
   <path d="M14.9707 5.66406C21.9336 5.66406 27.6953-0.0976562 27.6953-7.05078C27.6953-14.0137 21.9238-19.7754 14.9609-19.7754C8.00781-19.7754 2.25586-14.0137 2.25586-7.05078C2.25586-0.0976562 8.01758 5.66406 14.9707 5.66406ZM14.9707 3.84766C8.93555 3.84766 4.08203-1.01562 4.08203-7.05078C4.08203-13.0957 8.92578-17.9492 14.9609-17.9492C21.0059-17.9492 25.8691-13.0957 25.8691-7.05078C25.8691-1.01562 21.0156 3.84766 14.9707 3.84766ZM9.19922-7.05078C9.19922-6.5332 9.57031-6.17188 10.1172-6.17188L14.0625-6.17188L14.0625-2.2168C14.0625-1.67969 14.4336-1.29883 14.9512-1.29883C15.4883-1.29883 15.8594-1.66992 15.8594-2.2168L15.8594-6.17188L19.8145-6.17188C20.3516-6.17188 20.7324-6.5332 20.7324-7.05078C20.7324-7.59766 20.3613-7.96875 19.8145-7.96875L15.8594-7.96875L15.8594-11.9141C15.8594-12.4609 15.4883-12.8418 14.9512-12.8418C14.4336-12.8418 14.0625-12.4609 14.0625-11.9141L14.0625-7.96875L10.1172-7.96875C9.57031-7.96875 9.19922-7.59766 9.19922-7.05078Z"/>
  </g>
  <text style="stroke:none;fill:black;font-family:sans-serif;font-size:13;font-weight:bold;" transform="matrix(1 0 0 1 263 1953)">Design Variations</text>
  <text style="stroke:none;fill:black;font-family:sans-serif;font-size:13;" transform="matrix(1 0 0 1 263 1971)">Symbols are supported in up to nine weights and three scales.</text>
  <text style="stroke:none;fill:black;font-family:sans-serif;font-size:13;" transform="matrix(1 0 0 1 263 1989)">For optimal layout with text and other symbols, vertically align</text>
  <text style="stroke:none;fill:black;font-family:sans-serif;font-size:13;" transform="matrix(1 0 0 1 263 2007)">symbols with the adjacent text.</text>
  <line style="fill:none;stroke:#00AEEF;stroke-width:0.5;opacity:1.0;" x1="776" x2="776" y1="1919" y2="1933"/>
  <g transform="matrix(1 0 0 1 776 1933)">
   <path d="M3.31055 0.15625C3.82812 0.15625 4.08203-0.0390625 4.26758-0.585938L5.52734-4.0332L11.2891-4.0332L12.5488-0.585938C12.7344-0.0390625 12.9883 0.15625 13.4961 0.15625C14.0137 0.15625 14.3457-0.15625 14.3457-0.644531C14.3457-0.810547 14.3164-0.966797 14.2383-1.17188L9.6582-13.3691C9.43359-13.9648 9.0332-14.2676 8.4082-14.2676C7.80273-14.2676 7.39258-13.9746 7.17773-13.3789L2.59766-1.16211C2.51953-0.957031 2.49023-0.800781 2.49023-0.634766C2.49023-0.146484 2.80273 0.15625 3.31055 0.15625ZM6.00586-5.51758L8.37891-12.0898L8.42773-12.0898L10.8008-5.51758Z"/>
  </g>
  <line style="fill:none;stroke:#00AEEF;stroke-width:0.5;opacity:1.0;" x1="793.197" x2="793.197" y1="1919" y2="1933"/>
  <text style="stroke:none;fill:black;font-family:sans-serif;font-size:13;font-weight:bold;" transform="matrix(1 0 0 1 776 1953)">Margins</text>
  <text style="stroke:none;fill:black;font-family:sans-serif;font-size:13;" transform="matrix(1 0 0 1 776 1971)">Leading and trailing margins on the left and right side of each symbol</text>
  <text style="stroke:none;fill:black;font-family:sans-serif;font-size:13;" transform="matrix(1 0 0 1 776 1989)">can be adjusted by modifying the x-location of the margin guidelines.</text>
  <text style="stroke:none;fill:black;font-family:sans-serif;font-size:13;" transform="matrix(1 0 0 1 776 2007)">Modifications are automatically applied proportionally to all</text>
  <text style="stroke:none;fill:black;font-family:sans-serif;font-size:13;" transform="matrix(1 0 0 1 776 2025)">scales and weights.</text>
  <g transform="matrix(1 0 0 1 1289 1933)">
   <path d="M2.8418 1.86523L4.54102 3.57422C5.40039 4.44336 6.38672 4.38477 7.31445 3.35938L18.0078-8.42773L17.041-9.4043L6.42578 2.27539C6.07422 2.67578 5.74219 2.77344 5.27344 2.30469L4.10156 1.14258C3.63281 0.683594 3.74023 0.341797 4.14062-0.0195312L15.6152-10.8203L14.6387-11.7871L3.04688-0.898438C2.06055 0.0195312 1.98242 0.996094 2.8418 1.86523ZM9.25781-16.3281C8.83789-15.918 8.80859-15.3418 9.04297-14.9512C9.27734-14.5898 9.73633-14.3555 10.3809-14.5215C11.8457-14.8633 13.3691-14.9219 14.7949-13.9844L14.209-12.5293C13.8672-11.6992 14.043-11.1133 14.5801-10.5664L16.875-8.25195C17.3633-7.76367 17.7734-7.74414 18.3398-7.8418L19.4043-8.03711L20.0684-7.36328L20.0293-6.80664C19.9902-6.30859 20.1172-5.92773 20.6055-5.44922L21.3672-4.70703C21.8457-4.22852 22.4609-4.19922 22.9297-4.66797L25.8398-7.58789C26.3086-8.05664 26.2891-8.65234 25.8105-9.13086L25.0391-9.89258C24.5605-10.3711 24.1895-10.5273 23.7109-10.4883L23.1348-10.4395L22.4902-11.0742L22.7344-12.1973C22.8613-12.7637 22.7051-13.2031 22.1191-13.7891L19.9219-15.9766C16.582-19.2969 12.1484-19.2188 9.25781-16.3281ZM10.752-15.957C13.1836-17.7344 16.4746-17.4316 18.7012-15.2051L21.1328-12.793C21.3672-12.5586 21.4062-12.373 21.3379-12.0312L21.0156-10.5469L22.5195-9.0625L23.5059-9.12109C23.7598-9.13086 23.8379-9.11133 24.0332-8.91602L24.6094-8.33984L22.168-5.89844L21.5918-6.47461C21.3965-6.66992 21.3672-6.74805 21.377-7.01172L21.4453-7.98828L19.9512-9.47266L18.4277-9.21875C18.1055-9.15039 17.959-9.17969 17.7148-9.41406L15.7129-11.416C15.459-11.6504 15.4297-11.8164 15.5859-12.1875L16.4648-14.2773C14.9023-15.7324 12.8711-16.3574 10.8398-15.7617C10.6836-15.7227 10.625-15.8496 10.752-15.957Z"/>
  </g>
  <text style="stroke:none;fill:black;font-family:sans-serif;font-size:13;font-weight:bold;" transform="matrix(1 0 0 1 1289 1953)">Exporting</text>
  <text style="stroke:none;fill:black;font-family:sans-serif;font-size:13;" transform="matrix(1 0 0 1 1289 1971)">Symbols should be outlined when exporting to ensure the</text>
  <text style="stroke:none;fill:black;font-family:sans-serif;font-size:13;" transform="matrix(1 0 0 1 1289 1989)">design is preserved when submitting to Xcode.</text>
  <text id="template-version" style="stroke:none;fill:black;font-family:sans-serif;font-size:13;text-anchor:end;" transform="matrix(1 0 0 1 3036 1933)">Template v.2.0</text>
  <text style="stroke:none;fill:black;font-family:sans-serif;font-size:13;text-anchor:end;" transform="matrix(1 0 0 1 3036 1951)">Requires Xcode 12 or greater</text>
  <text id="descriptive-name" style="stroke:none;fill:black;font-family:sans-serif;font-size:13;text-anchor:end;" transform="matrix(1 0 0 1 3036 1969)">Generated from 4.circle.fill</text>
  <text style="stroke:none;fill:black;font-family:sans-serif;font-size:13;text-anchor:end;" transform="matrix(1 0 0 1 3036 1987)">Typeset at 100 points</text>
  <text style="stroke:none;fill:black;font-family:sans-serif;font-size:13;" transform="matrix(1 0 0 1 263 726)">Small</text>
  <text style="stroke:none;fill:black;font-family:sans-serif;font-size:13;" transform="matrix(1 0 0 1 263 1156)">Medium</text>
  <text style="stroke:none;fill:black;font-family:sans-serif;font-size:13;" transform="matrix(1 0 0 1 263 1586)">Large</text>
 </g>
 <g id="Guides">
  <g id="H-reference" style="fill:#27AAE1;stroke:none;" transform="matrix(1 0 0 1 339 696)">
   <path d="M0.993654 0L3.63775 0L29.3281-67.1323L30.0303-67.1323L30.0303-70.459L28.1226-70.459ZM11.6885-24.4799L46.9815-24.4799L46.2315-26.7285L12.4385-26.7285ZM55.1196 0L57.7637 0L30.6382-70.459L29.4326-70.459L29.4326-67.1323Z"/>
  </g>
  <line id="Baseline-S" style="fill:none;stroke:#27AAE1;opacity:1;stroke-width:0.5;" x1="263" x2="3036" y1="696" y2="696"/>
  <line id="Capline-S" style="fill:none;stroke:#27AAE1;opacity:1;stroke-width:0.5;" x1="263" x2="3036" y1="625.541" y2="625.541"/>
  <g id="H-reference" style="fill:#27AAE1;stroke:none;" transform="matrix(1 0 0 1 339 1126)">
   <path d="M0.993654 0L3.63775 0L29.3281-67.1323L30.0303-67.1323L30.0303-70.459L28.1226-70.459ZM11.6885-24.4799L46.9815-24.4799L46.2315-26.7285L12.4385-26.7285ZM55.1196 0L57.7637 0L30.6382-70.459L29.4326-70.459L29.4326-67.1323Z"/>
  </g>
  <line id="Baseline-M" style="fill:none;stroke:#27AAE1;opacity:1;stroke-width:0.5;" x1="263" x2="3036" y1="1126" y2="1126"/>
  <line id="Capline-M" style="fill:none;stroke:#27AAE1;opacity:1;stroke-width:0.5;" x1="263" x2="3036" y1="1055.54" y2="1055.54"/>
  <g id="H-reference" style="fill:#27AAE1;stroke:none;" transform="matrix(1 0 0 1 339 1556)">
   <path d="M0.993654 0L3.63775 0L29.3281-67.1323L30.0303-67.1323L30.0303-70.459L28.1226-70.459ZM11.6885-24.4799L46.9815-24.4799L46.2315-26.7285L12.4385-26.7285ZM55.1196 0L57.7637 0L30.6382-70.459L29.4326-70.459L29.4326-67.1323Z"/>
  </g>
  <line id="Baseline-L" style="fill:none;stroke:#27AAE1;opacity:1;stroke-width:0.5;" x1="263" x2="3036" y1="1556" y2="1556"/>
  <line id="Capline-L" style="fill:none;stroke:#27AAE1;opacity:1;stroke-width:0.5;" x1="263" x2="3036" y1="1485.54" y2="1485.54"/>
  <line id="left-margin" style="fill:none;stroke:#00AEEF;stroke-width:0.5;opacity:1.0;" x1="1391.32" x2="1391.32" y1="1030.79" y2="1150.12"/>
  <line id="right-margin" style="fill:none;stroke:#00AEEF;stroke-width:0.5;opacity:1.0;" x1="1508.37" x2="1508.37" y1="1030.79" y2="1150.12"/>
 </g>
 <g id="Symbols">
  <g id="Black-L" transform="matrix(1 0 0 1 2854.19 1556)">
   <path d="M79.1958 32.7257C116.56 32.7257 147.154 2.15259 147.154-35.2113C147.154-72.5752 116.539-103.148 79.175-103.148C41.8307-103.148 11.2588-72.5752 11.2588-35.2113C11.2588 2.15259 41.8515 32.7257 79.1958 32.7257ZM88.0544-4.62053C83.1357-4.62053 79.919-7.51284 79.919-13.2186L79.919-14.9155L61.6819-14.9155C54.6272-14.9155 50.2202-18.9501 50.2202-25.2951C50.2202-28.0862 50.8172-31.0664 52.5024-34.7197C55.5107-40.5752 60.1678-48.4802 64.6898-55.845C69.2524-63.5554 73.7778-66.3192 82.2769-66.3192C90.2562-66.3192 96.2511-61.0917 96.2511-54.1209L96.2511-29.7244L97.9401-29.7244C103.164-29.7244 106.243-26.879 106.243-22.32C106.243-17.7622 103.084-14.9155 97.8817-14.9155L96.2511-14.9155L96.2511-13.2186C96.2511-7.49202 93.0356-4.62053 88.0544-4.62053ZM79.919-29.7244L79.919-52.9637L79.3221-52.9637C75.0281-45.3079 70.0698-36.1726 67.0823-30.1837L67.0823-29.7244Z"/>
  </g>
  <g id="Heavy-L" transform="matrix(1 0 0 1 2558.42 1556)">
   <path d="M78.2532 31.7694C115.056 31.7694 145.278 1.57794 145.278-35.2251C145.278-72.0281 115.026-102.22 78.2231-102.22C41.4446-102.22 11.2588-72.0281 11.2588-35.2251C11.2588 1.57794 41.4748 31.7694 78.2532 31.7694ZM86.996-4.89688C82.5819-4.89688 79.7298-7.56303 79.7298-12.6736L79.7298-15.6552L60.2653-15.6552C53.9534-15.6552 49.997-19.3081 49.997-25.0161C49.997-27.5716 50.5575-30.205 52.1352-33.4859C55.6959-40.0002 61.2572-49.0186 66.2786-57.0001C70.3442-63.7703 74.4246-66.2385 81.9259-66.2385C89.0538-66.2385 94.3472-61.6171 94.3472-55.4024L94.3472-28.8614L96.8596-28.8614C101.435-28.8614 104.168-26.3071 104.168-22.2583C104.168-18.2151 101.36-15.6552 96.815-15.6552L94.3472-15.6552L94.3472-12.6736C94.3472-7.53284 91.5006-4.89688 86.996-4.89688ZM79.7298-28.8614L79.7298-54.1433L79.1693-54.1433C74.3401-45.9569 68.4455-35.8485 65.0093-29.3025L65.0093-28.8614Z"/>
  </g>
  <g id="Bold-L" transform="matrix(1 0 0 1 2262.89 1556)">
   <path d="M77.0704 30.5711C113.182 30.5711 142.92 0.870872 142.92-35.2405C142.92-71.3519 113.144-101.052 77.0324-101.052C40.9458-101.052 11.2588-71.3519 11.2588-35.2405C11.2588 0.870872 40.9838 30.5711 77.0704 30.5711ZM85.63-5.26491C81.8607-5.26491 79.4619-7.62452 79.4619-11.9677L79.4619-16.6218L58.5654-16.6218C53.1755-16.6218 49.7875-19.7835 49.7875-24.6852C49.7875-26.9264 50.3019-29.1369 51.7191-31.9345C55.8817-39.159 62.6766-49.7466 68.2084-58.3325C71.6594-63.9572 75.1642-66.0492 81.421-66.0492C87.4812-66.0492 91.8988-62.1807 91.8988-56.9109L91.8988-27.8156L95.4555-27.8156C99.2392-27.8156 101.542-25.63 101.542-22.2187C101.542-18.8207 99.172-16.6218 95.4263-16.6218L91.8988-16.6218L91.8988-11.9677C91.8988-7.58653 89.5131-5.26491 85.63-5.26491ZM79.4619-27.8156L79.4619-55.5511L78.9474-55.5511C73.6213-46.9425 66.3877-35.3148 62.495-28.2337L62.495-27.8156Z"/>
  </g>
  <g id="Semibold-L" transform="matrix(1 0 0 1 1966.99 1556)">
   <path d="M76.2549 29.745C111.889 29.745 141.294 0.383422 141.294-35.2511C141.294-70.8857 111.846-100.247 76.2116-100.247C40.6019-100.247 11.2588-70.8857 11.2588-35.2511C11.2588 0.383422 40.6453 29.745 76.2549 29.745ZM84.6882-5.51863C81.3636-5.51863 79.2772-7.66691 79.2772-11.481L79.2772-17.2882L57.3935-17.2882C52.6393-17.2882 49.643-20.1112 49.643-24.4571C49.643-26.4816 50.1257-28.4006 51.4322-30.8649C56.0098-38.5791 63.6551-50.2486 69.5388-59.2511C72.566-64.086 75.674-65.9186 81.0729-65.9186C86.397-65.9186 90.2109-62.5693 90.2109-57.9509L90.2109-27.0947L94.4875-27.0947C97.7253-27.0947 99.7312-25.1632 99.7312-22.1915C99.7312-19.2382 97.6634-17.2882 94.4689-17.2882L90.2109-17.2882L90.2109-11.481C90.2109-7.62355 88.143-5.51863 84.6882-5.51863ZM79.2772-27.0947L79.2772-56.5217L78.7945-56.5217C73.1258-47.6219 64.969-34.9468 60.7617-27.4969L60.7617-27.0947Z"/>
  </g>
  <g id="Medium-L" transform="matrix(1 0 0 1 1670.9 1556)">
   <path d="M75.6366 29.1187C110.91 29.1187 140.062 0.0138167 140.062-35.2592C140.062-70.5322 110.862-99.637 75.5892-99.637C40.3412-99.637 11.2588-70.5322 11.2588-35.2592C11.2588 0.0138167 40.3886 29.1187 75.6366 29.1187ZM83.9742-5.71101C80.9866-5.71101 79.1372-7.69906 79.1372-11.1119L79.1372-17.7935L56.505-17.7935C52.2327-17.7935 49.5335-20.3597 49.5335-24.2842C49.5335-26.1444 49.9921-27.8423 51.2146-30.054C56.1069-38.1393 64.397-50.6292 70.5476-59.9475C73.2534-64.1837 76.0606-65.8197 80.8089-65.8197C85.5749-65.8197 88.931-62.8639 88.931-58.7394L88.931-26.5481L93.7535-26.5481C96.5775-26.5481 98.3584-24.8092 98.3584-22.1708C98.3584-19.5548 96.5195-17.7935 93.743-17.7935L88.931-17.7935L88.931-11.1119C88.931-7.65161 87.1041-5.71101 83.9742-5.71101ZM79.1372-26.5481L79.1372-57.2576L78.6785-57.2576C72.7501-48.1371 63.8933-34.6678 59.4474-26.9382L59.4474-26.5481Z"/>
  </g>
  <g id="Regular-L" transform="matrix(1 0 0 1 1374.99 1556)">
   <path d="M74.8301 28.3017C109.632 28.3017 138.454-0.468277 138.454-35.2697C138.454-70.0711 109.579-98.8411 74.7774-98.8411C40.0011-98.8411 11.2588-70.0711 11.2588-35.2697C11.2588-0.468277 40.0538 28.3017 74.8301 28.3017ZM83.0428-5.96194C80.4948-5.96194 78.9545-7.74098 78.9545-10.6306L78.9545-18.4525L55.346-18.4525C51.7024-18.4525 49.3906-20.6839 49.3906-24.0586C49.3906-25.7044 49.8178-27.1141 50.9309-28.9962C56.2335-37.5658 65.3647-51.1256 71.8634-60.856C74.1501-64.3111 76.5649-65.6906 80.4646-65.6906C84.5027-65.6906 87.2617-63.2482 87.2617-59.768L87.2617-25.8351L92.7962-25.8351C95.0803-25.8351 96.5678-24.3475 96.5678-22.1438C96.5678-19.9678 95.0275-18.4525 92.7962-18.4525L87.2617-18.4525L87.2617-10.6306C87.2617-7.68822 85.749-5.96194 83.0428-5.96194ZM78.9545-25.8351L78.9545-58.2174L78.5273-58.2174C72.26-48.8091 62.4902-34.3039 57.7331-26.2095L57.7331-25.8351Z"/>
  </g>
  <g id="Light-L" transform="matrix(1 0 0 1 1079.2 1556)">
   <path d="M73.9141 27.3856C108.257 27.3856 136.603-0.926323 136.603-35.2697C136.603-69.6131 108.224-97.925 73.8804-97.925C39.5239-97.925 11.2588-69.6131 11.2588-35.2697C11.2588-0.926323 39.5576 27.3856 73.9141 27.3856ZM81.745-6.38181C79.7696-6.38181 78.5537-7.77915 78.5537-9.94354L78.5537-19.445L54.5253-19.445C51.5306-19.445 49.6769-21.2183 49.6769-23.925C49.6769-25.2082 50.0659-26.3698 50.8927-27.7747C56.0808-36.1535 66.7961-52.0226 72.9513-61.1423C74.8181-63.9294 76.6794-64.9844 79.6631-64.9844C82.8805-64.9844 84.9905-63.0764 84.9905-60.3024L84.9905-25.2625L91.4029-25.2625C93.2099-25.2625 94.3921-24.0803 94.3921-22.3537C94.3921-20.6739 93.1762-19.445 91.4029-19.445L84.9905-19.445L84.9905-9.94354C84.9905-7.74547 83.8214-6.38181 81.745-6.38181ZM78.5537-25.2625L78.5537-58.8472L78.1647-58.8472C72.6227-50.6604 60.7725-33.0824 56.3398-25.6179L56.3398-25.2625Z"/>
  </g>
  <g id="Thin-L" transform="matrix(1 0 0 1 783.716 1556)">
   <path d="M72.7024 26.174C106.44 26.174 134.155-1.53213 134.155-35.2697C134.155-69.0073 106.432-96.7134 72.694-96.7134C38.8929-96.7134 11.2588-69.0073 11.2588-35.2697C11.2588-1.53213 38.9013 26.174 72.7024 26.174ZM80.0285-6.93713C78.8104-6.93713 78.0236-7.82964 78.0236-9.03483L78.0236-20.7575L53.4399-20.7575C51.3034-20.7575 50.0555-21.925 50.0555-23.7483C50.0555-24.5519 50.394-25.3854 50.8423-26.1592C55.8789-34.2856 68.6893-53.2089 74.3901-61.5209C75.7016-63.4246 76.8308-64.0505 78.6029-64.0505C80.7349-64.0505 81.9868-62.8492 81.9868-61.0091L81.9868-24.5053L89.5603-24.5053C90.7362-24.5053 91.5146-23.7269 91.5146-22.6314C91.5146-21.6079 90.7278-20.7575 89.5603-20.7575L81.9868-20.7575L81.9868-9.03483C81.9868-7.8212 81.272-6.93713 80.0285-6.93713ZM78.0236-24.5053L78.0236-59.6802L77.6851-59.6802C73.1023-53.1088 58.5008-31.4669 54.4972-24.8354L54.4972-24.5053Z"/>
  </g>
  <g id="Ultralight-L" transform="matrix(1 0 0 1 487.631 1556)">
   <path d="M72.0819 25.5534C105.509 25.5534 132.9-1.84242 132.9-35.2697C132.9-68.697 105.514-96.0928 72.0864-96.0928C38.5697-96.0928 11.2588-68.697 11.2588-35.2697C11.2588-1.84242 38.5652 25.5534 72.0819 25.5534ZM79.1494-7.22157C78.3191-7.22157 77.7521-7.85549 77.7521-8.5694L77.7521-21.4298L52.884-21.4298C51.1871-21.4298 50.2494-22.287 50.2494-23.6578C50.2494-24.2158 50.5621-24.8812 50.8164-25.3318C55.7755-33.3289 69.6589-53.8166 75.127-61.7148C76.1541-63.166 76.9084-63.5721 78.0599-63.5721C79.636-63.5721 80.4482-62.7329 80.4482-61.3711L80.4482-24.1174L88.6165-24.1174C89.4692-24.1174 90.0407-23.5459 90.0407-22.7736C90.0407-22.0862 89.4737-21.4298 88.6165-21.4298L80.4482-21.4298L80.4482-8.5694C80.4482-7.85999 79.9662-7.22157 79.1494-7.22157ZM77.7521-24.1174L77.7521-60.1069L77.4394-60.1069C73.3479-54.3629 57.3372-30.6395 53.5534-24.4346L53.5534-24.1174Z"/>
  </g>
  <g id="Black-M" transform="matrix(1 0 0 1 2871.36 1126)">
   <path d="M62.0422 18.116C91.4096 18.116 115.367-5.83621 115.367-35.2035C115.367-64.5709 91.4041-88.5231 62.0367-88.5231C32.6752-88.5231 8.72266-64.5709 8.72266-35.2035C8.72266-5.83621 32.6807 18.116 62.0422 18.116ZM68.9533-11.3348C64.7864-11.3348 62.025-13.7183 62.025-18.552L62.025-18.9902L48.8939-18.9902C42.8778-18.9902 39.1383-22.3819 39.1383-27.7546C39.1383-30.0703 39.6269-32.6437 40.9862-35.7293C42.8266-39.6738 45.8723-45.1542 48.8998-50.2472C52.8048-56.9383 56.6184-59.2897 63.9363-59.2897C70.7389-59.2897 75.8984-54.7912 75.8984-48.8365L75.8984-31.6286L76.6182-31.6286C81.1573-31.6286 83.7991-29.2153 83.7991-25.3094C83.7991-21.4033 81.0947-18.9902 76.5611-18.9902L75.8984-18.9902L75.8984-18.552C75.8984-13.7128 73.1367-11.3348 68.9533-11.3348ZM62.025-31.6286L62.025-48.0406L61.5364-48.0406C58.7678-42.7308 55.4492-36.0731 53.5643-31.9975L53.5643-31.6286Z"/>
  </g>
  <g id="Heavy-M" transform="matrix(1 0 0 1 2575.48 1126)">
   <path d="M61.2053 17.2657C90.0667 17.2657 113.704-6.35571 113.704-35.217C113.704-64.0783 90.0502-87.6997 61.1889-87.6997C32.3418-87.6997 8.72266-64.0783 8.72266-35.217C8.72266-6.35571 32.3582 17.2657 61.2053 17.2657ZM68.0383-11.5662C64.312-11.5662 61.8769-13.7638 61.8769-18.0826L61.8769-19.6217L47.5847-19.6217C42.235-19.6217 38.8937-22.6825 38.8937-27.4942C38.8937-29.613 39.3502-31.8702 40.6308-34.636C43.0218-39.242 46.8051-45.5977 50.3526-51.35C53.8106-57.1836 57.2401-59.2759 63.6672-59.2759C69.7131-59.2759 74.2467-55.3206 74.2467-50.04L74.2467-30.8378L75.6904-30.8378C79.6401-30.8378 81.9715-28.6809 81.9715-25.2297C81.9715-21.7809 79.5801-19.6217 75.6468-19.6217L74.2467-19.6217L74.2467-18.0826C74.2467-13.7474 71.8139-11.5662 68.0383-11.5662ZM61.8769-30.8378L61.8769-49.1355L61.4204-49.1355C58.0618-43.1944 54.0199-35.869 51.6663-31.1906L51.6663-30.8378Z"/>
  </g>
  <g id="Bold-M" transform="matrix(1 0 0 1 2279.69 1126)">
   <path d="M60.2692 16.3144C88.5644 16.3144 111.844-6.93686 111.844-35.2321C111.844-63.5273 88.5358-86.7786 60.2405-86.7786C31.9688-86.7786 8.72266-63.5273 8.72266-35.2321C8.72266-6.93686 31.9974 16.3144 60.2692 16.3144ZM67.0148-11.8251C63.7812-11.8251 61.7114-13.8148 61.7114-17.5576L61.7114-20.3282L46.1202-20.3282C41.5158-20.3282 38.6201-23.0189 38.6201-27.2028C38.6201-29.1015 39.0407-31.005 40.2332-33.4128C43.24-38.759 47.8487-46.0939 51.9778-52.5837C54.9357-57.458 57.9356-59.2605 63.3662-59.2605C68.5656-59.2605 72.399-55.9129 72.399-51.3862L72.399-29.9531L74.6526-29.9531C77.9429-29.9531 79.927-28.0831 79.927-25.1406C79.927-22.2032 77.8857-20.3282 74.624-20.3282L72.399-20.3282L72.399-17.5576C72.399-13.7861 70.3342-11.8251 67.0148-11.8251ZM61.7114-29.9531L61.7114-50.3604L61.2907-50.3604C57.272-43.713 52.4209-35.6408 49.5432-30.288L49.5432-29.9531Z"/>
  </g>
  <g id="Semibold-M" transform="matrix(1 0 0 1 1983.62 1126)">
   <path d="M59.6238 15.6586C87.5288 15.6586 110.562-7.33749 110.562-35.2425C110.562-63.1475 87.4917-86.1436 59.5867-86.1436C31.7117-86.1436 8.72266-63.1475 8.72266-35.2425C8.72266-7.33749 31.7487 15.6586 59.6238 15.6586ZM66.3092-12.0036C63.4153-12.0036 61.5972-13.8499 61.5972-17.1956L61.5972-20.8152L45.1106-20.8152C41.0201-20.8152 38.4314-23.2507 38.4314-27.002C38.4314-28.7489 38.8274-30.4085 39.959-32.5696C43.3905-38.4261 48.5681-46.436 53.0981-53.4342C55.7113-57.6472 58.415-59.2499 63.1587-59.2499C67.7745-59.2499 71.1252-56.3212 71.1252-52.3143L71.1252-29.3432L73.9371-29.3432C76.7729-29.3432 78.5176-27.671 78.5176-25.0792C78.5176-22.4944 76.7177-20.8152 73.919-20.8152L71.1252-20.8152L71.1252-17.1956C71.1252-13.8128 69.3142-12.0036 66.3092-12.0036ZM61.5972-29.3432L61.5972-51.2049L61.2013-51.2049C56.7276-44.0705 51.3186-35.4834 48.0796-29.6657L48.0796-29.3432Z"/>
  </g>
  <g id="Medium-M" transform="matrix(1 0 0 1 1687.4 1126)">
   <path d="M59.1344 15.1614C86.7435 15.1614 109.59-7.64127 109.59-35.2504C109.59-62.8595 86.7001-85.6621 59.091-85.6621C31.5167-85.6621 8.72266-62.8595 8.72266-35.2504C8.72266-7.64127 31.5601 15.1614 59.1344 15.1614ZM65.7741-12.1389C63.1379-12.1389 61.5107-13.8765 61.5107-16.9212L61.5107-21.1845L44.345-21.1845C40.6442-21.1845 38.2884-23.4266 38.2884-26.8497C38.2884-28.4815 38.6656-29.9563 39.7512-31.9303C43.5046-38.1736 49.1136-46.6954 53.9476-54.0791C56.2994-57.7906 58.7786-59.2419 63.0013-59.2419C67.1746-59.2419 70.1593-56.6308 70.1593-53.0181L70.1593-28.8807L73.3946-28.8807C75.8857-28.8807 77.4489-27.3586 77.4489-25.0326C77.4489-22.7152 75.832-21.1845 73.3843-21.1845L70.1593-21.1845L70.1593-16.9212C70.1593-13.8331 68.5407-12.1389 65.7741-12.1389ZM61.5107-28.8807L61.5107-51.8452L61.1335-51.8452C56.3147-44.3416 50.4828-35.3641 46.9697-29.1939L46.9697-28.8807Z"/>
  </g>
  <g id="Regular-M" transform="matrix(1 0 0 1 1391.32 1126)">
   <path d="M58.4961 14.5128C85.7192 14.5128 108.321-8.0375 108.321-35.2606C108.321-62.4838 85.6675-85.0341 58.4443-85.0341C31.2624-85.0341 8.72266-62.4838 8.72266-35.2606C8.72266-8.0375 31.3141 14.5128 58.4961 14.5128ZM65.0763-12.3154C62.776-12.3154 61.3978-13.9112 61.3978-16.5632L61.3978-21.6661L43.3465-21.6661C40.1539-21.6661 38.1018-23.6559 38.1018-26.651C38.1018-28.1328 38.4545-29.3663 39.4801-31.0963C43.6535-37.8443 49.8251-47.0337 55.0557-54.9203C57.0666-57.9777 59.2528-59.2314 62.7961-59.2314C66.3922-59.2314 68.8995-57.0346 68.8995-53.936L68.8995-28.2775L72.687-28.2775C74.7285-28.2775 76.055-26.951 76.055-24.9718C76.055-23.0032 74.6767-21.6661 72.687-21.6661L68.8995-21.6661L68.8995-16.5632C68.8995-13.8595 67.5318-12.3154 65.0763-12.3154ZM61.3978-28.2775L61.3978-52.6803L61.045-52.6803C55.7763-44.6952 49.3926-35.2084 45.5222-28.5785L45.5222-28.2775Z"/>
  </g>
  <g id="Light-M" transform="matrix(1 0 0 1 1095.44 1126)">
   <path d="M57.6748 13.6915C84.4872 13.6915 106.662-8.44816 106.662-35.2606C106.662-62.0731 84.4526-84.2128 57.6401-84.2128C30.8346-84.2128 8.72266-62.0731 8.72266-35.2606C8.72266-8.44816 30.8693 13.6915 57.6748 13.6915ZM63.9127-12.6919C62.1258-12.6919 61.0384-13.9455 61.0384-15.9472L61.0384-22.5559L42.6107-22.5559C39.9999-22.5559 38.3585-24.135 38.3585-26.5313C38.3585-27.6879 38.677-28.699 39.4458-30.0012C43.5166-36.5781 51.1084-47.8379 56.031-55.1769C57.6654-57.6355 59.3554-58.5983 62.0775-58.5983C64.9378-58.5983 66.8633-56.8806 66.8633-54.4151L66.8633-27.7642L71.4379-27.7642C73.0516-27.7642 74.1043-26.7115 74.1043-25.16C74.1043-23.6363 73.017-22.5559 71.4379-22.5559L66.8633-22.5559L66.8633-15.9472C66.8633-13.9108 65.8036-12.6919 63.9127-12.6919ZM61.0384-27.7642L61.0384-53.245L60.7199-53.245C56.1014-46.355 47.8526-34.1133 44.2731-28.048L44.2731-27.7642Z"/>
  </g>
  <g id="Thin-M" transform="matrix(1 0 0 1 799.828 1126)">
   <path d="M56.5885 12.6052C82.8578 12.6052 104.466-8.9913 104.466-35.2606C104.466-61.53 82.8458-83.1265 56.5765-83.1265C30.2689-83.1265 8.72266-61.53 8.72266-35.2606C8.72266-8.9913 30.2809 12.6052 56.5885 12.6052ZM62.3739-13.1897C61.2658-13.1897 60.5632-13.9907 60.5632-15.1325L60.5632-23.7327L41.6376-23.7327C39.7962-23.7327 38.6979-24.7686 38.6979-26.3729C38.6979-27.0995 38.9712-27.8164 39.4006-28.5529C43.3356-34.9034 52.8057-48.9015 57.321-55.5164C58.4575-57.1829 59.4912-57.761 61.127-57.761C63.0142-57.761 64.1703-56.677 64.1703-55.0487L64.1703-27.0853L69.7859-27.0853C70.8338-27.0853 71.5245-26.3946 71.5245-25.409C71.5245-24.4736 70.8218-23.7327 69.7859-23.7327L64.1703-23.7327L64.1703-15.1325C64.1703-13.9787 63.5179-13.1897 62.3739-13.1897ZM60.5632-27.0853L60.5632-53.9918L60.2899-53.9918C56.5313-48.5502 45.8159-32.665 42.621-27.3465L42.621-27.0853Z"/>
  </g>
  <g id="Ultralight-M" transform="matrix(1 0 0 1 503.679 1126)">
   <path d="M56.0321 12.0488C82.0233 12.0488 103.342-9.26949 103.342-35.2606C103.342-61.2518 82.0228-82.5701 56.0317-82.5701C29.9791-82.5701 8.72266-61.2518 8.72266-35.2606C8.72266-9.26949 29.9795 12.0488 56.0321 12.0488ZM61.5856-13.4447C60.8254-13.4447 60.3198-14.0139 60.3198-14.7152L60.3198-24.3354L41.1392-24.3354C39.6919-24.3354 38.8718-25.0932 38.8718-26.2917C38.8718-26.7981 39.1219-27.3644 39.3774-27.811C43.2428-34.0457 53.6751-49.4463 57.9817-55.6903C58.8632-56.9511 59.5608-57.3321 60.6401-57.3321C62.0289-57.3321 62.7909-56.5726 62.7909-55.3733L62.7909-26.7375L68.9397-26.7375C69.6979-26.7375 70.2031-26.2324 70.2031-25.5365C70.2031-24.9025 69.6975-24.3354 68.9397-24.3354L62.7909-24.3354L62.7909-14.7152C62.7909-14.0135 62.3472-13.4447 61.5856-13.4447ZM60.3198-26.7375L60.3198-54.3743L60.0697-54.3743C56.7516-49.6745 44.7726-31.9231 41.7749-26.9872L41.7749-26.7375Z"/>
  </g>
  <g id="Black-S" transform="matrix(1 0 0 1 2884.57 696)">
   <path d="M48.8281 6.78711C71.9727 6.78711 90.8203-12.0605 90.8203-35.2051C90.8203-58.3496 71.9727-77.1973 48.8281-77.1973C25.6836-77.1973 6.83594-58.3496 6.83594-35.2051C6.83594-12.0605 25.6836 6.78711 48.8281 6.78711ZM54.248-16.4551C50.8789-16.4551 48.6328-18.3594 48.6328-22.2656L48.6328-22.3633L38.6719-22.3633C33.7891-22.3633 30.7617-25.0977 30.7617-29.4434C30.7617-31.2988 31.1523-33.3984 32.2266-35.8887C33.4961-38.7695 35.7422-42.9199 37.9395-46.6797C41.1133-52.1484 44.1895-54.0527 50.1465-54.0527C55.6641-54.0527 59.8633-50.3906 59.8633-45.5566L59.8633-32.6172L60.2539-32.6172C63.9648-32.6172 66.1133-30.6641 66.1133-27.4902C66.1133-24.3164 63.916-22.3633 60.2051-22.3633L59.8633-22.3633L59.8633-22.2656C59.8633-18.3594 57.6172-16.4551 54.248-16.4551ZM48.6328-32.6172L48.6328-44.9707L48.2422-44.9707C46.2891-41.0645 43.7988-35.8887 42.4805-32.9102L42.4805-32.6172Z"/>
  </g>
  <g id="Heavy-S" transform="matrix(1 0 0 1 2588.47 696)">
   <path d="M48.2173 6.16479C70.9816 6.16479 89.6102-12.4524 89.6102-35.2166C89.6102-57.9808 70.97-76.598 48.2058-76.598C25.4531-76.598 6.83594-57.9808 6.83594-35.2166C6.83594-12.4524 25.4646 6.16479 48.2173 6.16479ZM53.6142-16.6049C50.5562-16.6049 48.5521-18.3939 48.5521-21.9429L48.5521-22.7897L37.6462-22.7897C33.2589-22.7897 30.5197-25.2936 30.5197-29.2359C30.5197-30.9646 30.8873-32.8222 31.9269-35.0935C33.6805-38.5621 36.376-43.1965 39.0573-47.5901C41.8969-52.402 44.7081-54.1219 50.0082-54.1219C54.9726-54.1219 58.7108-50.8631 58.7108-46.5247L58.7108-32.0064L59.6201-32.0064C62.8815-32.0064 64.7995-30.2377 64.7995-27.398C64.7995-24.5584 62.8327-22.7897 59.5828-22.7897L58.7108-22.7897L58.7108-21.9429C58.7108-18.3824 56.7068-16.6049 53.6142-16.6049ZM48.5521-32.0064L48.5521-45.835L48.1846-45.835C45.6437-41.2488 42.7732-35.8541 41.0169-32.2878L41.0169-32.0064Z"/>
  </g>
  <g id="Bold-S" transform="matrix(1 0 0 1 2292.43 696)">
   <path d="M47.5342 5.46875C69.873 5.46875 88.2568-12.8906 88.2568-35.2295C88.2568-57.5684 69.8486-75.9277 47.5098-75.9277C25.1953-75.9277 6.83594-57.5684 6.83594-35.2295C6.83594-12.8906 25.2197 5.46875 47.5342 5.46875ZM52.9053-16.7725C50.1953-16.7725 48.4619-18.4326 48.4619-21.582L48.4619-23.2666L36.499-23.2666C32.666-23.2666 30.249-25.5127 30.249-29.0039C30.249-30.5908 30.5908-32.1777 31.5918-34.2041C33.8867-38.3301 37.085-43.5059 40.3076-48.6084C42.7734-52.6855 45.2881-54.1992 49.8535-54.1992C54.1992-54.1992 57.4219-51.3916 57.4219-47.6074L57.4219-31.3232L58.9111-31.3232C61.6699-31.3232 63.3301-29.7607 63.3301-27.2949C63.3301-24.8291 61.6211-23.2666 58.8867-23.2666L57.4219-23.2666L57.4219-21.582C57.4219-18.4082 55.6885-16.7725 52.9053-16.7725ZM48.4619-31.3232L48.4619-46.8018L48.1201-46.8018C44.9219-41.4551 41.626-35.8154 39.3799-31.5918L39.3799-31.3232Z"/>
  </g>
  <g id="Semibold-S" transform="matrix(1 0 0 1 1996.19 696)">
   <path d="M47.0632 4.98887C69.1088 4.98887 87.3237-13.1928 87.3237-35.2384C87.3237-57.284 69.0755-75.4656 47.0299-75.4656C25.0176-75.4656 6.83594-57.284 6.83594-35.2384C6.83594-13.1928 25.0509 4.98887 47.0632 4.98887ZM52.4165-16.888C49.9465-16.888 48.3997-18.4593 48.3997-21.3332L48.3997-23.5954L35.7081-23.5954C32.2572-23.5954 30.0624-25.6638 30.0624-28.8439C30.0624-30.3331 30.3864-31.7334 31.3607-33.5909C34.0289-38.1701 37.5737-43.7191 41.1696-49.3104C43.3777-52.8811 45.688-54.2525 49.7469-54.2525C53.666-54.2525 56.5332-51.756 56.5332-48.3539L56.5332-30.8522L58.4224-30.8522C60.8346-30.8522 62.317-29.4319 62.317-27.2238C62.317-25.0157 60.7857-23.5954 58.4068-23.5954L56.5332-23.5954L56.5332-21.3332C56.5332-18.426 54.9864-16.888 52.4165-16.888ZM48.3997-30.8522L48.3997-47.4683L48.0757-47.4683C44.4242-41.5973 40.8351-35.7888 38.2513-31.1119L38.2513-30.8522Z"/>
  </g>
  <g id="Medium-S" transform="matrix(1 0 0 1 1699.83 696)">
   <path d="M46.7061 4.625C68.5293 4.625 86.6162-13.4219 86.6162-35.2451C86.6162-57.0684 68.4893-75.1152 46.666-75.1152C24.8828-75.1152 6.83594-57.0684 6.83594-35.2451C6.83594-13.4219 24.9229 4.625 46.7061 4.625ZM52.0459-16.9756C49.7578-16.9756 48.3525-18.4795 48.3525-21.1445L48.3525-23.8447L35.1084-23.8447C31.9473-23.8447 29.9209-25.7783 29.9209-28.7227C29.9209-30.1377 30.2314-31.3965 31.1855-33.126C34.1367-38.0488 37.9443-43.8809 41.8232-49.8428C43.8359-53.0293 45.9912-54.293 49.666-54.293C53.2617-54.293 55.8594-52.0322 55.8594-48.9199L55.8594-30.4951L58.0518-30.4951C60.2012-30.4951 61.5488-29.1826 61.5488-27.1699C61.5488-25.1572 60.1523-23.8447 58.043-23.8447L55.8594-23.8447L55.8594-21.1445C55.8594-18.4395 54.4541-16.9756 52.0459-16.9756ZM48.3525-30.4951L48.3525-47.9736L48.042-47.9736C44.0469-41.7051 40.2354-35.7686 37.3955-30.748L37.3955-30.4951Z"/>
  </g>
  <g id="Regular-S" transform="matrix(1 0 0 1 1403.58 696)">
   <path d="M46.2402 4.15039C67.7734 4.15039 85.6934-13.7207 85.6934-35.2539C85.6934-56.7871 67.7246-74.6582 46.1914-74.6582C24.707-74.6582 6.83594-56.7871 6.83594-35.2539C6.83594-13.7207 24.7559 4.15039 46.2402 4.15039ZM51.5625-17.0898C49.5117-17.0898 48.291-18.5059 48.291-20.8984L48.291-24.1699L34.3262-24.1699C31.543-24.1699 29.7363-25.9277 29.7363-28.5645C29.7363-29.8828 30.0293-30.957 30.957-32.5195C34.2773-37.8906 38.4277-44.0918 42.6758-50.5371C44.4336-53.2227 46.3867-54.3457 49.5605-54.3457C52.7344-54.3457 54.9805-52.3926 54.9805-49.6582L54.9805-30.0293L57.5684-30.0293C59.375-30.0293 60.5469-28.8574 60.5469-27.0996C60.5469-25.3418 59.3262-24.1699 57.5684-24.1699L54.9805-24.1699L54.9805-20.8984C54.9805-18.457 53.7598-17.0898 51.5625-17.0898ZM48.291-30.0293L48.291-48.6328L47.998-48.6328C43.5547-41.8457 39.4531-35.7422 36.2793-30.2734L36.2793-30.0293Z"/>
  </g>
  <g id="Light-S" transform="matrix(1 0 0 1 1107.6 696)">
   <path d="M45.5137 3.42383C66.6836 3.42383 84.2251-14.084 84.2251-35.2539C84.2251-56.4238 66.6499-73.9316 45.48-73.9316C24.3286-73.9316 6.83594-56.4238 6.83594-35.2539C6.83594-14.084 24.3623 3.42383 45.5137 3.42383ZM50.5332-17.4228C48.9365-17.4228 47.9731-18.5361 47.9731-20.3535L47.9731-24.957L33.6753-24.957C31.4067-24.957 29.9634-26.3516 29.9634-28.4585C29.9634-29.4893 30.2261-30.3667 30.9268-31.5508C34.1563-36.7705 39.563-44.8032 43.5386-50.7642C44.9634-52.9199 46.4775-53.7856 48.9248-53.7856C51.4478-53.7856 53.1792-52.2563 53.1792-50.082L53.1792-29.5752L56.4634-29.5752C57.8916-29.5752 58.8213-28.6455 58.8213-27.2661C58.8213-25.9019 57.8579-24.957 56.4634-24.957L53.1792-24.957L53.1792-20.3535C53.1792-18.5024 52.231-17.4228 50.5332-17.4228ZM47.9731-29.5752L47.9731-49.1323L47.7105-49.1323C43.8423-43.314 38.0908-34.7734 35.1743-29.8042L35.1743-29.5752Z"/>
  </g>
  <g id="Thin-S" transform="matrix(1 0 0 1 811.863 696)">
   <path d="M44.5527 2.4629C65.2422 2.4629 82.2832-14.5644 82.2832-35.2539C82.2832-55.9434 65.2285-72.9707 44.5391-72.9707C23.8281-72.9707 6.83594-55.9434 6.83594-35.2539C6.83594-14.5644 23.8418 2.4629 44.5527 2.4629ZM49.1719-17.8633C48.1758-17.8633 47.5527-18.5762 47.5527-19.6328L47.5527-25.998L32.8145-25.998C31.2266-25.998 30.2637-26.9121 30.2637-28.3184C30.2637-28.9688 30.4863-29.5859 30.8867-30.2695C33.9961-35.2891 41.0644-45.7441 44.6797-51.0644C45.6641-52.5195 46.5977-53.0449 48.084-53.0449C49.7461-53.0449 50.7969-52.0762 50.7969-50.6426L50.7969-28.9746L55.002-28.9746C55.9297-28.9746 56.5391-28.3652 56.5391-27.4863C56.5391-26.6426 55.916-25.998 55.002-25.998L50.7969-25.998L50.7969-19.6328C50.7969-18.5625 50.209-17.8633 49.1719-17.8633ZM47.5527-28.9746L47.5527-49.793L47.3301-49.793C44.2227-45.2558 36.2891-33.4922 33.7129-29.1836L33.7129-28.9746Z"/>
  </g>
  <g id="Ultralight-S" transform="matrix(1 0 0 1 515.649 696)">
   <path d="M44.0606 1.97072C64.5039 1.97072 81.2886-14.8105 81.2886-35.2539C81.2886-55.6973 64.5005-72.4785 44.0571-72.4785C23.5718-72.4785 6.83594-55.6973 6.83594-35.2539C6.83594-14.8105 23.5752 1.97072 44.0606 1.97072ZM48.4746-18.0889C47.7861-18.0889 47.3374-18.5967 47.3374-19.2637L47.3374-26.5312L32.3736-26.5312C31.1343-26.5312 30.4175-27.1992 30.4175-28.2466C30.4175-28.7022 30.6196-29.186 30.8662-29.6133C33.9141-34.5303 41.8335-46.2261 45.2641-51.2183C46.0229-52.3145 46.6592-52.6655 47.6533-52.6655C48.8745-52.6655 49.5767-51.9839 49.5767-50.9297L49.5767-28.667L54.2534-28.667C54.9248-28.667 55.3702-28.2217 55.3702-27.5991C55.3702-27.022 54.9214-26.5312 54.2534-26.5312L49.5767-26.5312L49.5767-19.2637C49.5767-18.5933 49.1734-18.0889 48.4746-18.0889ZM47.3374-28.667L47.3374-50.1313L47.1353-50.1313C44.4175-46.2505 35.3662-32.836 32.9644-28.8657L32.9644-28.667Z"/>
  </g>
 </g>
</svg>
