<?xml version="1.0" encoding="UTF-8"?>
<!--Generator: Apple Native CoreSVG 175.5-->
<!DOCTYPE svg
PUBLIC "-//W3C//DTD SVG 1.1//EN"
       "http://www.w3.org/Graphics/SVG/1.1/DTD/svg11.dtd">
<svg version="1.1" xmlns="http://www.w3.org/2000/svg" xmlns:xlink="http://www.w3.org/1999/xlink" width="3300" height="2200">
 <!--glyph: "uni10003D.medium", point size: 100.0, font version: "18.0d12e2", template writer version: "101"-->
 <g id="Notes">
  <rect height="2200" id="artboard" style="fill:white;opacity:1" width="3300" x="0" y="0"/>
  <line style="fill:none;stroke:black;opacity:1;stroke-width:0.5;" x1="263" x2="3036" y1="292" y2="292"/>
  <text style="stroke:none;fill:black;font-family:sans-serif;font-size:13;font-weight:bold;" transform="matrix(1 0 0 1 263 322)">Weight/Scale Variations</text>
  <text style="stroke:none;fill:black;font-family:sans-serif;font-size:13;text-anchor:middle;" transform="matrix(1 0 0 1 559.711 322)">Ultralight</text>
  <text style="stroke:none;fill:black;font-family:sans-serif;font-size:13;text-anchor:middle;" transform="matrix(1 0 0 1 856.422 322)">Thin</text>
  <text style="stroke:none;fill:black;font-family:sans-serif;font-size:13;text-anchor:middle;" transform="matrix(1 0 0 1 1153.13 322)">Light</text>
  <text style="stroke:none;fill:black;font-family:sans-serif;font-size:13;text-anchor:middle;" transform="matrix(1 0 0 1 1449.84 322)">Regular</text>
  <text style="stroke:none;fill:black;font-family:sans-serif;font-size:13;text-anchor:middle;" transform="matrix(1 0 0 1 1746.56 322)">Medium</text>
  <text style="stroke:none;fill:black;font-family:sans-serif;font-size:13;text-anchor:middle;" transform="matrix(1 0 0 1 2043.27 322)">Semibold</text>
  <text style="stroke:none;fill:black;font-family:sans-serif;font-size:13;text-anchor:middle;" transform="matrix(1 0 0 1 2339.98 322)">Bold</text>
  <text style="stroke:none;fill:black;font-family:sans-serif;font-size:13;text-anchor:middle;" transform="matrix(1 0 0 1 2636.69 322)">Heavy</text>
  <text style="stroke:none;fill:black;font-family:sans-serif;font-size:13;text-anchor:middle;" transform="matrix(1 0 0 1 2933.4 322)">Black</text>
  <line style="fill:none;stroke:black;opacity:1;stroke-width:0.5;" x1="263" x2="3036" y1="1903" y2="1903"/>
  <g transform="matrix(1 0 0 1 263 1933)">
   <path d="M9.24805 0.830078C13.5547 0.830078 17.1387-2.74414 17.1387-7.05078C17.1387-11.3574 13.5449-14.9316 9.23828-14.9316C4.94141-14.9316 1.36719-11.3574 1.36719-7.05078C1.36719-2.74414 4.95117 0.830078 9.24805 0.830078ZM9.24805-0.654297C5.70312-0.654297 2.87109-3.49609 2.87109-7.05078C2.87109-10.6055 5.69336-13.4473 9.23828-13.4473C12.793-13.4473 15.6445-10.6055 15.6445-7.05078C15.6445-3.49609 12.8027-0.654297 9.24805-0.654297ZM5.6543-7.05078C5.6543-6.62109 5.95703-6.32812 6.40625-6.32812L8.50586-6.32812L8.50586-4.20898C8.50586-3.76953 8.79883-3.4668 9.22852-3.4668C9.67773-3.4668 9.9707-3.76953 9.9707-4.20898L9.9707-6.32812L12.0898-6.32812C12.5293-6.32812 12.832-6.62109 12.832-7.05078C12.832-7.49023 12.5293-7.79297 12.0898-7.79297L9.9707-7.79297L9.9707-9.90234C9.9707-10.3516 9.67773-10.6543 9.22852-10.6543C8.79883-10.6543 8.50586-10.3516 8.50586-9.90234L8.50586-7.79297L6.40625-7.79297C5.95703-7.79297 5.6543-7.49023 5.6543-7.05078Z"/>
  </g>
  <g transform="matrix(1 0 0 1 281.867 1933)">
   <path d="M11.709 2.91016C17.1582 2.91016 21.6699-1.61133 21.6699-7.05078C21.6699-12.5 17.1484-17.0117 11.6992-17.0117C6.25977-17.0117 1.74805-12.5 1.74805-7.05078C1.74805-1.61133 6.26953 2.91016 11.709 2.91016ZM11.709 1.25C7.09961 1.25 3.41797-2.44141 3.41797-7.05078C3.41797-11.6602 7.08984-15.3516 11.6992-15.3516C16.3086-15.3516 20.0098-11.6602 20.0098-7.05078C20.0098-2.44141 16.3184 1.25 11.709 1.25ZM7.17773-7.05078C7.17773-6.57227 7.50977-6.25 8.00781-6.25L10.8789-6.25L10.8789-3.36914C10.8789-2.88086 11.2109-2.53906 11.6895-2.53906C12.1777-2.53906 12.5195-2.87109 12.5195-3.36914L12.5195-6.25L15.4004-6.25C15.8887-6.25 16.2305-6.57227 16.2305-7.05078C16.2305-7.53906 15.8887-7.88086 15.4004-7.88086L12.5195-7.88086L12.5195-10.752C12.5195-11.25 12.1777-11.5918 11.6895-11.5918C11.2109-11.5918 10.8789-11.25 10.8789-10.752L10.8789-7.88086L8.00781-7.88086C7.50977-7.88086 7.17773-7.53906 7.17773-7.05078Z"/>
  </g>
  <g transform="matrix(1 0 0 1 305.646 1933)">
   <path d="M14.9707 5.66406C21.9336 5.66406 27.6953-0.0976562 27.6953-7.05078C27.6953-14.0137 21.9238-19.7754 14.9609-19.7754C8.00781-19.7754 2.25586-14.0137 2.25586-7.05078C2.25586-0.0976562 8.01758 5.66406 14.9707 5.66406ZM14.9707 3.84766C8.93555 3.84766 4.08203-1.01562 4.08203-7.05078C4.08203-13.0957 8.92578-17.9492 14.9609-17.9492C21.0059-17.9492 25.8691-13.0957 25.8691-7.05078C25.8691-1.01562 21.0156 3.84766 14.9707 3.84766ZM9.19922-7.05078C9.19922-6.5332 9.57031-6.17188 10.1172-6.17188L14.0625-6.17188L14.0625-2.2168C14.0625-1.67969 14.4336-1.29883 14.9512-1.29883C15.4883-1.29883 15.8594-1.66992 15.8594-2.2168L15.8594-6.17188L19.8145-6.17188C20.3516-6.17188 20.7324-6.5332 20.7324-7.05078C20.7324-7.59766 20.3613-7.96875 19.8145-7.96875L15.8594-7.96875L15.8594-11.9141C15.8594-12.4609 15.4883-12.8418 14.9512-12.8418C14.4336-12.8418 14.0625-12.4609 14.0625-11.9141L14.0625-7.96875L10.1172-7.96875C9.57031-7.96875 9.19922-7.59766 9.19922-7.05078Z"/>
  </g>
  <text style="stroke:none;fill:black;font-family:sans-serif;font-size:13;font-weight:bold;" transform="matrix(1 0 0 1 263 1953)">Design Variations</text>
  <text style="stroke:none;fill:black;font-family:sans-serif;font-size:13;" transform="matrix(1 0 0 1 263 1971)">Symbols are supported in up to nine weights and three scales.</text>
  <text style="stroke:none;fill:black;font-family:sans-serif;font-size:13;" transform="matrix(1 0 0 1 263 1989)">For optimal layout with text and other symbols, vertically align</text>
  <text style="stroke:none;fill:black;font-family:sans-serif;font-size:13;" transform="matrix(1 0 0 1 263 2007)">symbols with the adjacent text.</text>
  <line style="fill:none;stroke:#00AEEF;stroke-width:0.5;opacity:1.0;" x1="776" x2="776" y1="1919" y2="1933"/>
  <g transform="matrix(1 0 0 1 776 1933)">
   <path d="M3.31055 0.15625C3.82812 0.15625 4.08203-0.0390625 4.26758-0.585938L5.52734-4.0332L11.2891-4.0332L12.5488-0.585938C12.7344-0.0390625 12.9883 0.15625 13.4961 0.15625C14.0137 0.15625 14.3457-0.15625 14.3457-0.644531C14.3457-0.810547 14.3164-0.966797 14.2383-1.17188L9.6582-13.3691C9.43359-13.9648 9.0332-14.2676 8.4082-14.2676C7.80273-14.2676 7.39258-13.9746 7.17773-13.3789L2.59766-1.16211C2.51953-0.957031 2.49023-0.800781 2.49023-0.634766C2.49023-0.146484 2.80273 0.15625 3.31055 0.15625ZM6.00586-5.51758L8.37891-12.0898L8.42773-12.0898L10.8008-5.51758Z"/>
  </g>
  <line style="fill:none;stroke:#00AEEF;stroke-width:0.5;opacity:1.0;" x1="793.197" x2="793.197" y1="1919" y2="1933"/>
  <text style="stroke:none;fill:black;font-family:sans-serif;font-size:13;font-weight:bold;" transform="matrix(1 0 0 1 776 1953)">Margins</text>
  <text style="stroke:none;fill:black;font-family:sans-serif;font-size:13;" transform="matrix(1 0 0 1 776 1971)">Leading and trailing margins on the left and right side of each symbol</text>
  <text style="stroke:none;fill:black;font-family:sans-serif;font-size:13;" transform="matrix(1 0 0 1 776 1989)">can be adjusted by modifying the x-location of the margin guidelines.</text>
  <text style="stroke:none;fill:black;font-family:sans-serif;font-size:13;" transform="matrix(1 0 0 1 776 2007)">Modifications are automatically applied proportionally to all</text>
  <text style="stroke:none;fill:black;font-family:sans-serif;font-size:13;" transform="matrix(1 0 0 1 776 2025)">scales and weights.</text>
  <g transform="matrix(1 0 0 1 1289 1933)">
   <path d="M2.8418 1.86523L4.54102 3.57422C5.40039 4.44336 6.38672 4.38477 7.31445 3.35938L18.0078-8.42773L17.041-9.4043L6.42578 2.27539C6.07422 2.67578 5.74219 2.77344 5.27344 2.30469L4.10156 1.14258C3.63281 0.683594 3.74023 0.341797 4.14062-0.0195312L15.6152-10.8203L14.6387-11.7871L3.04688-0.898438C2.06055 0.0195312 1.98242 0.996094 2.8418 1.86523ZM9.25781-16.3281C8.83789-15.918 8.80859-15.3418 9.04297-14.9512C9.27734-14.5898 9.73633-14.3555 10.3809-14.5215C11.8457-14.8633 13.3691-14.9219 14.7949-13.9844L14.209-12.5293C13.8672-11.6992 14.043-11.1133 14.5801-10.5664L16.875-8.25195C17.3633-7.76367 17.7734-7.74414 18.3398-7.8418L19.4043-8.03711L20.0684-7.36328L20.0293-6.80664C19.9902-6.30859 20.1172-5.92773 20.6055-5.44922L21.3672-4.70703C21.8457-4.22852 22.4609-4.19922 22.9297-4.66797L25.8398-7.58789C26.3086-8.05664 26.2891-8.65234 25.8105-9.13086L25.0391-9.89258C24.5605-10.3711 24.1895-10.5273 23.7109-10.4883L23.1348-10.4395L22.4902-11.0742L22.7344-12.1973C22.8613-12.7637 22.7051-13.2031 22.1191-13.7891L19.9219-15.9766C16.582-19.2969 12.1484-19.2188 9.25781-16.3281ZM10.752-15.957C13.1836-17.7344 16.4746-17.4316 18.7012-15.2051L21.1328-12.793C21.3672-12.5586 21.4062-12.373 21.3379-12.0312L21.0156-10.5469L22.5195-9.0625L23.5059-9.12109C23.7598-9.13086 23.8379-9.11133 24.0332-8.91602L24.6094-8.33984L22.168-5.89844L21.5918-6.47461C21.3965-6.66992 21.3672-6.74805 21.377-7.01172L21.4453-7.98828L19.9512-9.47266L18.4277-9.21875C18.1055-9.15039 17.959-9.17969 17.7148-9.41406L15.7129-11.416C15.459-11.6504 15.4297-11.8164 15.5859-12.1875L16.4648-14.2773C14.9023-15.7324 12.8711-16.3574 10.8398-15.7617C10.6836-15.7227 10.625-15.8496 10.752-15.957Z"/>
  </g>
  <text style="stroke:none;fill:black;font-family:sans-serif;font-size:13;font-weight:bold;" transform="matrix(1 0 0 1 1289 1953)">Exporting</text>
  <text style="stroke:none;fill:black;font-family:sans-serif;font-size:13;" transform="matrix(1 0 0 1 1289 1971)">Symbols should be outlined when exporting to ensure the</text>
  <text style="stroke:none;fill:black;font-family:sans-serif;font-size:13;" transform="matrix(1 0 0 1 1289 1989)">design is preserved when submitting to Xcode.</text>
  <text id="template-version" style="stroke:none;fill:black;font-family:sans-serif;font-size:13;text-anchor:end;" transform="matrix(1 0 0 1 3036 1933)">Template v.2.0</text>
  <text style="stroke:none;fill:black;font-family:sans-serif;font-size:13;text-anchor:end;" transform="matrix(1 0 0 1 3036 1951)">Requires Xcode 12 or greater</text>
  <text id="descriptive-name" style="stroke:none;fill:black;font-family:sans-serif;font-size:13;text-anchor:end;" transform="matrix(1 0 0 1 3036 1969)">Generated from 2.circle.fill</text>
  <text style="stroke:none;fill:black;font-family:sans-serif;font-size:13;text-anchor:end;" transform="matrix(1 0 0 1 3036 1987)">Typeset at 100 points</text>
  <text style="stroke:none;fill:black;font-family:sans-serif;font-size:13;" transform="matrix(1 0 0 1 263 726)">Small</text>
  <text style="stroke:none;fill:black;font-family:sans-serif;font-size:13;" transform="matrix(1 0 0 1 263 1156)">Medium</text>
  <text style="stroke:none;fill:black;font-family:sans-serif;font-size:13;" transform="matrix(1 0 0 1 263 1586)">Large</text>
 </g>
 <g id="Guides">
  <g id="H-reference" style="fill:#27AAE1;stroke:none;" transform="matrix(1 0 0 1 339 696)">
   <path d="M0.993654 0L3.63775 0L29.3281-67.1323L30.0303-67.1323L30.0303-70.459L28.1226-70.459ZM11.6885-24.4799L46.9815-24.4799L46.2315-26.7285L12.4385-26.7285ZM55.1196 0L57.7637 0L30.6382-70.459L29.4326-70.459L29.4326-67.1323Z"/>
  </g>
  <line id="Baseline-S" style="fill:none;stroke:#27AAE1;opacity:1;stroke-width:0.5;" x1="263" x2="3036" y1="696" y2="696"/>
  <line id="Capline-S" style="fill:none;stroke:#27AAE1;opacity:1;stroke-width:0.5;" x1="263" x2="3036" y1="625.541" y2="625.541"/>
  <g id="H-reference" style="fill:#27AAE1;stroke:none;" transform="matrix(1 0 0 1 339 1126)">
   <path d="M0.993654 0L3.63775 0L29.3281-67.1323L30.0303-67.1323L30.0303-70.459L28.1226-70.459ZM11.6885-24.4799L46.9815-24.4799L46.2315-26.7285L12.4385-26.7285ZM55.1196 0L57.7637 0L30.6382-70.459L29.4326-70.459L29.4326-67.1323Z"/>
  </g>
  <line id="Baseline-M" style="fill:none;stroke:#27AAE1;opacity:1;stroke-width:0.5;" x1="263" x2="3036" y1="1126" y2="1126"/>
  <line id="Capline-M" style="fill:none;stroke:#27AAE1;opacity:1;stroke-width:0.5;" x1="263" x2="3036" y1="1055.54" y2="1055.54"/>
  <g id="H-reference" style="fill:#27AAE1;stroke:none;" transform="matrix(1 0 0 1 339 1556)">
   <path d="M0.993654 0L3.63775 0L29.3281-67.1323L30.0303-67.1323L30.0303-70.459L28.1226-70.459ZM11.6885-24.4799L46.9815-24.4799L46.2315-26.7285L12.4385-26.7285ZM55.1196 0L57.7637 0L30.6382-70.459L29.4326-70.459L29.4326-67.1323Z"/>
  </g>
  <line id="Baseline-L" style="fill:none;stroke:#27AAE1;opacity:1;stroke-width:0.5;" x1="263" x2="3036" y1="1556" y2="1556"/>
  <line id="Capline-L" style="fill:none;stroke:#27AAE1;opacity:1;stroke-width:0.5;" x1="263" x2="3036" y1="1485.54" y2="1485.54"/>
  <line id="left-margin" style="fill:none;stroke:#00AEEF;stroke-width:0.5;opacity:1.0;" x1="1391.32" x2="1391.32" y1="1030.79" y2="1150.12"/>
  <line id="right-margin" style="fill:none;stroke:#00AEEF;stroke-width:0.5;opacity:1.0;" x1="1508.37" x2="1508.37" y1="1030.79" y2="1150.12"/>
 </g>
 <g id="Symbols">
  <g id="Black-L" transform="matrix(1 0 0 1 2854.19 1556)">
   <path d="M79.1958 32.7257C116.56 32.7257 147.154 2.15259 147.154-35.2113C147.154-72.5752 116.539-103.148 79.175-103.148C41.8307-103.148 11.2588-72.5752 11.2588-35.2113C11.2588 2.15259 41.8515 32.7257 79.1958 32.7257ZM64.1972-5.91265C59.3177-5.91265 55.9246-9.05012 55.9246-13.4959C55.9246-16.2957 56.64-18.8946 60.0758-21.7892L76.9844-36.8277C81.5946-40.8053 83.6639-43.5402 83.6639-46.472C83.6639-49.2309 81.752-50.9303 78.6162-50.9303C75.1879-50.9303 73.419-48.5339 71.7817-46.2378C70.1429-44.1624 68.2244-42.1607 64.2124-42.1607C59.0681-42.1607 55.6386-44.6945 55.6386-49.4687C55.6386-50.777 55.8942-52.1021 56.35-53.3752C59.1291-61.1422 68.2752-66.3192 79.5218-66.3192C93.6412-66.3192 103.182-58.9942 103.182-48.2016C103.182-41.8033 99.5504-36.5683 91.8236-30.0325L83.4489-22.2154L83.4489-21.6184L96.8352-21.6184C102.445-21.6184 105.741-18.7562 105.741-13.8052C105.741-8.93331 102.329-5.91265 96.8352-5.91265Z"/>
  </g>
  <g id="Heavy-L" transform="matrix(1 0 0 1 2558.42 1556)">
   <path d="M78.2532 31.7694C115.056 31.7694 145.278 1.57794 145.278-35.2251C145.278-72.0281 115.026-102.22 78.2231-102.22C41.4446-102.22 11.2588-72.0281 11.2588-35.2251C11.2588 1.57794 41.4748 31.7694 78.2532 31.7694ZM63.3347-5.91226C58.9698-5.91226 55.9782-8.6896 55.9782-12.666C55.9782-15.114 56.6626-17.3754 59.5443-19.8768L77.3914-36.655C81.8285-40.6753 84.3173-43.709 84.3173-47.0592C84.3173-50.4755 81.8655-52.632 77.9764-52.632C73.835-52.632 71.6359-49.8099 69.9998-47.0802C68.505-45.0622 66.7779-43.2144 63.1899-43.2144C58.6892-43.2144 55.6888-45.521 55.6888-49.7294C55.6888-50.9285 55.9031-52.1118 56.3273-53.3077C58.9211-60.9639 67.8119-66.2385 78.5683-66.2385C92.1422-66.2385 101.278-59.1043 101.278-48.5616C101.278-41.9969 97.5866-36.8012 90.308-30.3331L80.2067-20.3785L80.2067-19.8179L96.1285-19.8179C100.981-19.8179 103.908-17.2795 103.908-12.9025C103.908-8.60036 100.891-5.91226 96.1285-5.91226Z"/>
  </g>
  <g id="Bold-L" transform="matrix(1 0 0 1 2262.89 1556)">
   <path d="M77.0704 30.5711C113.182 30.5711 142.92 0.870872 142.92-35.2405C142.92-71.3519 113.144-101.052 77.0324-101.052C40.9458-101.052 11.2588-71.3519 11.2588-35.2405C11.2588 0.870872 40.9838 30.5711 77.0704 30.5711ZM62.2815-5.98677C58.5618-5.98677 56.0621-8.31843 56.0621-11.711C56.0621-13.7359 56.6933-15.5823 58.9282-17.6144L77.8761-36.4325C82.1651-40.5512 85.0347-43.9165 85.0347-47.7295C85.0347-51.9453 81.9443-54.6481 77.1402-54.6481C72.145-54.6481 69.3709-51.3257 67.787-47.9985C66.4987-46.0795 65.0099-44.4387 61.9445-44.4387C58.228-44.4387 55.7503-46.4536 55.7503-49.9701C55.7503-51.031 55.9183-52.0451 56.2967-53.1412C58.6376-60.6816 67.2133-66.0492 77.3999-66.0492C90.2753-66.0492 98.8967-59.1606 98.8967-48.9402C98.8967-42.2725 95.2105-37.1527 88.3958-30.7094L76.2104-18.1711L76.2104-17.6566L95.1855-17.6566C99.1224-17.6566 101.588-15.5177 101.588-11.8553C101.588-8.26002 99.064-5.98677 95.1855-5.98677Z"/>
  </g>
  <g id="Semibold-L" transform="matrix(1 0 0 1 1966.99 1556)">
   <path d="M76.2549 29.745C111.889 29.745 141.294 0.383422 141.294-35.2511C141.294-70.8857 111.846-100.247 76.2116-100.247C40.6019-100.247 11.2588-70.8857 11.2588-35.2511C11.2588 0.383422 40.6453 29.745 76.2549 29.745ZM61.5555-6.03813C58.2806-6.03813 56.12-8.06254 56.12-11.0526C56.12-12.7858 56.7144-14.3461 58.5036-16.0547L78.2102-36.279C82.3972-40.4656 85.5293-44.0595 85.5293-48.1916C85.5293-52.9586 81.9986-56.0379 76.5637-56.0379C70.9799-56.0379 67.8094-52.3706 66.2615-48.6315C65.1157-46.7809 63.791-45.2827 61.0859-45.2827C57.9099-45.2827 55.7927-47.0965 55.7927-50.1361C55.7927-51.1017 55.9288-51.9991 56.2756-53.0265C58.4421-60.4869 66.8007-65.9186 76.5945-65.9186C88.9883-65.9186 97.2551-59.1994 97.2551-49.2012C97.2551-42.4624 93.5724-37.395 87.0775-30.9689L73.4554-16.6493L73.4554-16.1666L94.5354-16.1666C97.8414-16.1666 99.9897-14.3032 99.9897-11.1333C99.9897-8.0254 97.8043-6.03813 94.5354-6.03813Z"/>
  </g>
  <g id="Medium-L" transform="matrix(1 0 0 1 1670.9 1556)">
   <path d="M75.6366 29.1187C110.91 29.1187 140.062 0.0138167 140.062-35.2592C140.062-70.5322 110.862-99.637 75.5892-99.637C40.3412-99.637 11.2588-70.5322 11.2588-35.2592C11.2588 0.0138167 40.3886 29.1187 75.6366 29.1187ZM61.005-6.07708C58.0673-6.07708 56.1639-7.86852 56.1639-10.5533C56.1639-12.0655 56.7305-13.4088 58.1815-14.8721L78.4636-36.1627C82.5732-40.4008 85.9044-44.168 85.9044-48.5419C85.9044-53.727 82.0397-57.0918 76.1266-57.0918C70.0965-57.0918 66.6254-53.163 65.1048-49.1115C64.067-47.3126 62.8668-45.9227 60.4348-45.9227C57.6688-45.9227 55.8248-47.584 55.8248-50.262C55.8248-51.1553 55.9368-51.9643 56.2595-52.9395C58.2939-60.3393 66.4878-65.8197 75.9837-65.8197C88.0124-65.8197 96.0103-59.2288 96.0103-49.3991C96.0103-42.6064 92.3304-37.5788 86.0779-31.1657L71.3665-15.4954L71.3665-15.0368L94.0425-15.0368C96.8701-15.0368 98.7775-13.3823 98.7775-10.5859C98.7775-7.8475 96.8491-6.07708 94.0425-6.07708Z"/>
  </g>
  <g id="Regular-L" transform="matrix(1 0 0 1 1374.99 1556)">
   <path d="M74.8301 28.3017C109.632 28.3017 138.454-0.468277 138.454-35.2697C138.454-70.0711 109.579-98.8411 74.7774-98.8411C40.0011-98.8411 11.2588-70.0711 11.2588-35.2697C11.2588-0.468277 40.0538 28.3017 74.8301 28.3017ZM60.2869-6.12788C57.7892-6.12788 56.2212-7.61545 56.2212-9.90212C56.2212-11.1259 56.7514-12.1862 57.7615-13.3296L78.7941-36.0109C82.8027-40.3162 86.3936-44.3095 86.3936-48.999C86.3936-54.7292 82.0934-58.4663 75.5565-58.4663C68.9442-58.4663 65.0811-54.1964 63.5961-49.7376C62.6991-48.0063 61.6613-46.7574 59.5857-46.7574C57.3543-46.7574 55.8667-48.2199 55.8667-50.4261C55.8667-51.2252 55.9472-51.9188 56.2386-52.826C58.1006-60.1467 66.0797-65.6906 75.1871-65.6906C86.7396-65.6906 94.3867-59.2672 94.3867-49.6572C94.3867-42.7943 90.7103-37.8184 84.7742-31.4223L68.6417-13.9904L68.6417-13.5632L93.3995-13.5632C95.6032-13.5632 97.1963-12.1811 97.1963-9.87191C97.1963-7.61545 95.6032-6.12788 93.3995-6.12788Z"/>
  </g>
  <g id="Light-L" transform="matrix(1 0 0 1 1079.2 1556)">
   <path d="M73.9141 27.3856C108.257 27.3856 136.603-0.926323 136.603-35.2697C136.603-69.6131 108.224-97.925 73.8804-97.925C39.5239-97.925 11.2588-69.6131 11.2588-35.2697C11.2588-0.926323 39.5576 27.3856 73.9141 27.3856ZM59.6571-6.66227C57.6556-6.66227 56.3929-7.84447 56.3929-9.71127C56.3929-10.7251 56.7895-11.5183 57.6088-12.4517L79.004-35.801C83.3371-40.4688 86.2981-44.4431 86.2981-49.0944C86.2981-55.2826 81.7499-59.2679 74.6976-59.2679C67.6846-59.2679 63.1535-54.8262 62.0311-49.5659C61.4586-48.0826 60.5925-47.0818 58.8604-47.0818C57.0871-47.0818 55.9049-48.2771 55.9049-50.0635C55.9049-50.7481 55.9853-51.3653 56.2005-52.1771C57.738-59.5551 65.5071-64.9844 74.4619-64.9844C85.3845-64.9844 92.5927-58.7901 92.5927-49.4855C92.5927-43.2141 89.4316-38.4673 83.2283-31.7086L66.008-12.9025L66.008-12.5135L92.3116-12.5135C94.0382-12.5135 95.2878-11.3986 95.2878-9.60472C95.2878-7.84447 94.0382-6.66227 92.3116-6.66227Z"/>
  </g>
  <g id="Thin-L" transform="matrix(1 0 0 1 783.716 1556)">
   <path d="M72.7024 26.174C106.44 26.174 134.155-1.53213 134.155-35.2697C134.155-69.0073 106.432-96.7134 72.694-96.7134C38.8929-96.7134 11.2588-69.0073 11.2588-35.2697C11.2588-1.53213 38.9013 26.174 72.7024 26.174ZM58.8241-7.36904C57.4789-7.36904 56.6201-8.14737 56.6201-9.45885C56.6201-10.195 56.84-10.6348 57.4069-11.2905L79.2817-35.5233C84.0439-40.6708 86.1719-44.6198 86.1719-49.2206C86.1719-56.0147 81.2956-60.3281 73.5618-60.3281C66.0186-60.3281 60.6041-55.6592 59.9612-49.3387C59.8178-48.1836 59.179-47.511 57.9012-47.511C56.7337-47.511 55.9554-48.3528 55.9554-49.5839C55.9554-50.117 56.0358-50.6333 56.15-51.3188C57.2584-58.7726 64.7499-64.0505 73.5027-64.0505C83.5923-64.0505 90.22-58.159 90.22-49.2583C90.22-43.7695 87.7404-39.3255 81.1837-32.0872L62.5246-11.4637L62.5246-11.1252L90.8729-11.1252C91.9684-11.1252 92.7636-10.3637 92.7636-9.25133C92.7636-8.14737 91.9684-7.36904 90.8729-7.36904Z"/>
  </g>
  <g id="Ultralight-L" transform="matrix(1 0 0 1 487.631 1556)">
   <path d="M72.0819 25.5534C105.509 25.5534 132.9-1.84242 132.9-35.2697C132.9-68.697 105.514-96.0928 72.0864-96.0928C38.5697-96.0928 11.2588-68.697 11.2588-35.2697C11.2588-1.84242 38.5652 25.5534 72.0819 25.5534ZM58.3974-7.73104C57.3884-7.73104 56.7365-8.30252 56.7365-9.32956C56.7365-9.9235 56.8659-10.1823 57.3035-10.6958L79.4239-35.3811C84.4059-40.7742 86.1073-44.7103 86.1073-49.2852C86.1073-56.3896 81.0628-60.8711 72.98-60.8711C65.1653-60.8711 59.2983-56.0859 58.9011-49.2223C58.9775-48.2353 58.455-47.7307 57.4099-47.7307C56.5527-47.7307 55.9813-48.3916 55.9813-49.3382C55.9813-49.7938 56.0617-50.2584 56.1241-50.8793C57.0128-58.3718 64.362-63.5721 73.0114-63.5721C82.6744-63.5721 89.0047-57.8358 89.0047-49.1419C89.0047-44.0539 86.8742-39.7651 80.1364-32.2811L60.7404-10.7268L60.7404-10.4141L90.1359-10.4141C90.9082-10.4141 91.4707-9.83365 91.4707-9.07033C91.4707-8.30252 90.9082-7.73104 90.1359-7.73104Z"/>
  </g>
  <g id="Black-M" transform="matrix(1 0 0 1 2871.36 1126)">
   <path d="M62.0422 18.116C91.4096 18.116 115.367-5.83621 115.367-35.2035C115.367-64.5709 91.4041-88.5231 62.0367-88.5231C32.6752-88.5231 8.72266-64.5709 8.72266-35.2035C8.72266-5.83621 32.6807 18.116 62.0422 18.116ZM50.3922-12.5892C46.2369-12.5892 43.3044-15.2881 43.3044-19.0789C43.3044-21.5219 43.8671-23.7893 46.9794-26.3413L59.3218-36.5876C63.0861-39.6818 64.2435-41.5412 64.2435-43.4478C64.2435-45.0823 63.1927-46.0396 61.3408-46.0396C59.2432-46.0396 58.1521-44.5257 56.9317-43.0108C55.5822-41.3872 53.9547-39.7377 50.5285-39.7377C46.0519-39.7377 43.0676-41.8599 43.0676-45.988C43.0676-47.08 43.3012-48.218 43.6709-49.2578C45.9394-55.3782 53.2163-59.2897 62.3301-59.2897C73.6525-59.2897 81.3325-53.4817 81.3325-44.9469C81.3325-40.2129 78.6403-36.1545 72.2327-30.9836L67.081-26.5782L67.081-26.0896L75.4822-26.0896C80.4157-26.0896 83.2398-23.6301 83.2398-19.3707C83.2398-15.1739 80.3015-12.5892 75.4822-12.5892Z"/>
  </g>
  <g id="Heavy-M" transform="matrix(1 0 0 1 2575.48 1126)">
   <path d="M61.2053 17.2657C90.0667 17.2657 113.704-6.35571 113.704-35.217C113.704-64.0783 90.0502-87.6997 61.1889-87.6997C32.3418-87.6997 8.72266-64.0783 8.72266-35.217C8.72266-6.35571 32.3582 17.2657 61.2053 17.2657ZM49.6072-12.5396C45.9091-12.5396 43.3409-14.9145 43.3409-18.2853C43.3409-20.4037 43.8857-22.3658 46.4739-24.5528L59.7002-36.4382C63.2655-39.5406 64.891-41.6939 64.891-44.013C64.891-46.2479 63.3353-47.6293 60.7945-47.6293C58.0369-47.6293 56.5868-45.715 55.3341-43.8502C54.0955-42.2598 52.6392-40.7379 49.5959-40.7379C45.7062-40.7379 43.1131-42.6625 43.1131-46.2763C43.1131-47.2721 43.3063-48.2786 43.6524-49.2517C45.7695-55.2585 52.8162-59.2759 61.4649-59.2759C72.3121-59.2759 79.6369-53.6334 79.6369-45.3146C79.6369-40.3635 76.8386-36.3223 70.8937-31.251L64.1545-24.8829L64.1545-24.4264L74.8917-24.4264C79.1281-24.4264 81.6231-22.2587 81.6231-18.513C81.6231-14.8273 79.0408-12.5396 74.8917-12.5396Z"/>
  </g>
  <g id="Bold-M" transform="matrix(1 0 0 1 2279.69 1126)">
   <path d="M60.2692 16.3144C88.5644 16.3144 111.844-6.93686 111.844-35.2321C111.844-63.5273 88.5358-86.7786 60.2405-86.7786C31.9688-86.7786 8.72266-63.5273 8.72266-35.2321C8.72266-6.93686 31.9974 16.3144 60.2692 16.3144ZM48.729-12.484C45.5423-12.484 43.3817-14.4967 43.3817-17.3975C43.3817-19.1529 43.9065-20.7734 45.9083-22.5522L60.1236-36.2711C63.4661-39.3826 65.6153-41.8646 65.6153-44.6453C65.6153-47.5518 63.4948-49.4075 60.1835-49.4075C56.6875-49.4075 54.8358-47.0454 53.547-44.7891C52.4324-43.2359 51.1677-41.8567 48.5526-41.8567C45.3195-41.8567 43.1641-43.5605 43.1641-46.5988C43.1641-47.4869 43.312-48.3464 43.6316-49.2449C45.5795-55.1246 52.3686-59.2605 60.497-59.2605C70.8127-59.2605 77.7401-53.8031 77.7401-45.726C77.7401-40.532 74.823-36.51 69.3959-31.5502L60.8807-22.9864L60.8807-22.5657L74.2313-22.5657C77.6877-22.5657 79.8147-20.7245 79.8147-17.5534C79.8147-14.4396 77.6306-12.484 74.2313-12.484Z"/>
  </g>
  <g id="Semibold-M" transform="matrix(1 0 0 1 1983.62 1126)">
   <path d="M59.6238 15.6586C87.5288 15.6586 110.562-7.33749 110.562-35.2425C110.562-63.1475 87.4917-86.1436 59.5867-86.1436C31.7117-86.1436 8.72266-63.1475 8.72266-35.2425C8.72266-7.33749 31.7487 15.6586 59.6238 15.6586ZM48.1235-12.4457C45.2895-12.4457 43.4099-14.2086 43.4099-16.7855C43.4099-18.2905 43.9209-19.6757 45.5185-21.1729L60.4155-36.1559C63.6045-39.2737 66.1146-41.9823 66.1146-45.0812C66.1146-48.4507 63.6048-50.6333 59.7622-50.6333C55.7572-50.6333 53.6287-47.9625 52.315-45.4364C51.2858-43.9089 50.1532-42.6281 47.8334-42.6281C45.0529-42.6281 43.1992-44.1795 43.1992-46.8211C43.1992-47.6351 43.316-48.3931 43.6172-49.2402C45.4485-55.0323 52.0601-59.2499 59.8298-59.2499C69.779-59.2499 76.4324-53.92 76.4324-46.0096C76.4324-40.6481 73.4336-36.6394 68.3633-31.7564L58.6238-21.679L58.6238-21.283L73.776-21.283C76.6947-21.283 78.568-19.6669 78.568-16.892C78.568-14.1723 76.6583-12.4457 73.776-12.4457Z"/>
  </g>
  <g id="Medium-M" transform="matrix(1 0 0 1 1687.4 1126)">
   <path d="M59.1344 15.1614C86.7435 15.1614 109.59-7.64127 109.59-35.2504C109.59-62.8595 86.7001-85.6621 59.091-85.6621C31.5167-85.6621 8.72266-62.8595 8.72266-35.2504C8.72266-7.64127 31.5601 15.1614 59.1344 15.1614ZM47.6645-12.4166C45.0979-12.4166 43.4312-13.9901 43.4312-16.3214C43.4312-17.6367 43.9317-18.8433 45.2229-20.1271L60.6368-36.0685C63.7094-39.1911 66.4932-42.0716 66.4932-45.4118C66.4932-49.1323 63.6882-51.5629 59.4428-51.5629C55.0518-51.5629 52.7134-48.658 51.3808-45.9272C50.4165-44.4191 49.384-43.2129 47.2881-43.2129C44.8507-43.2129 43.2258-44.6488 43.2258-46.9897C43.2258-47.7474 43.319-48.4286 43.6064-49.2366C45.3492-54.9623 51.8261-59.2419 59.3238-59.2419C68.9953-59.2419 75.4409-54.0087 75.4409-46.2246C75.4409-40.7361 72.38-36.7375 67.5803-31.9128L56.9126-20.6876L56.9126-20.3105L73.4307-20.3105C75.9417-20.3105 77.6226-18.8649 77.6226-16.3904C77.6226-13.9696 75.9212-12.4166 73.4307-12.4166Z"/>
  </g>
  <g id="Regular-M" transform="matrix(1 0 0 1 1391.32 1126)">
   <path d="M58.4961 14.5128C85.7192 14.5128 108.321-8.0375 108.321-35.2606C108.321-62.4838 85.6675-85.0341 58.4443-85.0341C31.2624-85.0341 8.72266-62.4838 8.72266-35.2606C8.72266-8.0375 31.3141 14.5128 58.4961 14.5128ZM47.0657-12.3787C44.8478-12.3787 43.459-13.7052 43.459-15.7161C43.459-16.7838 43.9459-17.7576 44.8373-18.763L60.9254-35.9545C63.8462-39.0833 66.9871-42.188 66.9871-45.8429C66.9871-50.0213 63.797-52.7753 59.0262-52.7753C54.1318-52.7753 51.5195-49.5651 50.1624-46.5674C49.2825-45.0847 48.3806-43.9758 46.5768-43.9758C44.5871-43.9758 43.2606-45.261 43.2606-47.2096C43.2606-47.8939 43.3229-48.4748 43.5922-49.232C45.2196-54.8711 51.521-59.2314 58.6639-59.2314C67.9729-59.2314 74.1477-54.1244 74.1477-46.5051C74.1477-40.851 71.0058-36.8655 66.559-32.1168L54.6805-19.3946L54.6805-19.0419L72.9804-19.0419C74.9596-19.0419 76.3896-17.8189 76.3896-15.7362C76.3896-13.7052 74.9596-12.3787 72.9804-12.3787Z"/>
  </g>
  <g id="Light-M" transform="matrix(1 0 0 1 1095.44 1126)">
   <path d="M57.6748 13.6915C84.4872 13.6915 106.662-8.44816 106.662-35.2606C106.662-62.0731 84.4526-84.2128 57.6401-84.2128C30.8346-84.2128 8.72266-62.0731 8.72266-35.2606C8.72266-8.44816 30.8693 13.6915 57.6748 13.6915ZM46.501-12.8578C44.728-12.8578 43.613-13.9106 43.613-15.545C43.613-16.4245 43.9801-17.1587 44.7004-17.9759L61.1137-35.7663C64.3253-39.2202 66.9015-42.3078 66.9015-45.9284C66.9015-50.5175 63.489-53.4939 58.2562-53.4939C53.0024-53.4939 49.7913-50.1297 48.7593-46.4134C48.1703-45.1531 47.4224-44.2666 45.9266-44.2666C44.3475-44.2666 43.2948-45.3124 43.2948-46.8845C43.2948-47.4662 43.3571-47.9786 43.558-48.6502C44.8945-54.3406 51.0076-58.5983 58.0137-58.5983C66.7581-58.5983 72.5392-53.6966 72.5392-46.3511C72.5392-41.2274 69.8593-37.4472 65.1731-32.3734L52.3192-18.4193L52.3192-18.1008L72.0051-18.1008C73.5565-18.1008 74.6785-17.1173 74.6785-15.4966C74.6785-13.9106 73.5565-12.8578 72.0051-12.8578Z"/>
  </g>
  <g id="Thin-M" transform="matrix(1 0 0 1 799.828 1126)">
   <path d="M56.5885 12.6052C82.8578 12.6052 104.466-8.9913 104.466-35.2606C104.466-61.53 82.8458-83.1265 56.5765-83.1265C30.2689-83.1265 8.72266-61.53 8.72266-35.2606C8.72266-8.9913 30.2809 12.6052 56.5885 12.6052ZM45.7542-13.4915C44.5696-13.4915 43.8167-14.1821 43.8167-15.3187C43.8167-15.9492 44.0254-16.3666 44.5193-16.9349L61.3626-35.5174C64.959-39.4013 66.7884-42.4662 66.7884-46.0416C66.7884-51.1738 63.0816-54.4444 57.2378-54.4444C51.5088-54.4444 47.5056-50.8765 46.9035-46.2098C46.6993-45.2437 46.1551-44.6514 45.0666-44.6514C44.0307-44.6514 43.34-45.3803 43.34-46.4545C43.34-46.9004 43.4023-47.3223 43.5127-47.8808C44.4646-53.6391 50.3287-57.761 57.1537-57.761C65.1513-57.761 70.412-53.1309 70.412-46.1475C70.412-41.7253 68.3431-38.2167 63.34-32.7129L49.1961-17.1293L49.1961-16.8561L70.7152-16.8561C71.7008-16.8561 72.4155-16.1895 72.4155-15.1798C72.4155-14.1821 71.7008-13.4915 70.7152-13.4915Z"/>
  </g>
  <g id="Ultralight-M" transform="matrix(1 0 0 1 503.679 1126)">
   <path d="M56.0321 12.0488C82.0233 12.0488 103.342-9.26949 103.342-35.2606C103.342-61.2518 82.0228-82.5701 56.0317-82.5701C29.9791-82.5701 8.72266-61.2518 8.72266-35.2606C8.72266-9.26949 29.9795 12.0488 56.0321 12.0488ZM45.3717-13.816C44.4885-13.816 43.921-14.3212 43.921-15.2027C43.921-15.7058 44.0486-15.9609 44.4266-16.4017L61.4901-35.3899C65.2835-39.494 66.7304-42.5473 66.7304-46.0996C66.7304-51.51 62.873-54.9313 56.7162-54.9313C50.7438-54.9313 46.3349-51.2591 45.9531-46.1054C45.9459-45.29 45.506-44.8484 44.6261-44.8484C43.8684-44.8484 43.3632-45.415 43.3632-46.2343C43.3632-46.6106 43.4255-46.9861 43.4895-47.4867C44.2443-53.2797 49.981-57.3321 56.7133-57.3321C64.3283-57.3321 69.3224-52.8411 69.3224-46.0431C69.3224-41.9803 67.5665-38.6108 62.4011-32.8868L47.5966-16.4686L47.5966-16.2186L70.0545-16.2186C70.7503-16.2186 71.2563-15.7142 71.2563-15.0175C71.2563-14.3212 70.7503-13.816 70.0545-13.816Z"/>
  </g>
  <g id="Black-S" transform="matrix(1 0 0 1 2884.57 696)">
   <path d="M48.8281 6.78711C71.9727 6.78711 90.8203-12.0605 90.8203-35.2051C90.8203-58.3496 71.9727-77.1973 48.8281-77.1973C25.6836-77.1973 6.83594-58.3496 6.83594-35.2051C6.83594-12.0605 25.6836 6.78711 48.8281 6.78711ZM39.6973-17.5293C36.3281-17.5293 33.9355-19.7266 33.9355-22.8027C33.9355-24.8047 34.375-26.6602 36.9629-28.7598L46.3867-36.3281C49.4141-38.7695 50.1465-40.1367 50.1465-41.5039C50.1465-42.627 49.4629-43.2617 48.1934-43.2617C46.7285-43.2617 45.9473-42.1875 45.0195-41.0645C43.9453-39.7949 42.627-38.4766 39.8438-38.4766C36.1816-38.4766 33.7402-40.1855 33.7402-43.5547C33.7402-44.4336 33.9355-45.3613 34.2285-46.1914C36.0352-51.0254 41.7969-54.0527 49.0723-54.0527C58.0566-54.0527 64.1602-49.4629 64.1602-42.7246C64.1602-39.1113 62.1094-35.9375 56.9336-31.8359L53.3203-28.9062L53.3203-28.5156L59.2773-28.5156C63.3301-28.5156 65.625-26.5137 65.625-23.0469C65.625-19.6289 63.2324-17.5293 59.2773-17.5293Z"/>
  </g>
  <g id="Heavy-S" transform="matrix(1 0 0 1 2588.47 696)">
   <path d="M48.2173 6.16479C70.9816 6.16479 89.6102-12.4524 89.6102-35.2166C89.6102-57.9808 70.97-76.598 48.2058-76.598C25.4531-76.598 6.83594-57.9808 6.83594-35.2166C6.83594-12.4524 25.4646 6.16479 48.2173 6.16479ZM39.098-17.4256C36.0631-17.4256 33.9471-19.3808 33.9471-22.1458C33.9471-23.8943 34.3865-25.5192 36.548-27.3307L46.6864-36.2244C49.5063-38.6312 50.7112-40.252 50.7112-41.9764C50.7112-43.5604 49.6242-44.5294 47.8246-44.5294C45.8411-44.5294 44.8294-43.1325 43.8325-41.802C42.8159-40.5325 41.6243-39.2948 39.1292-39.2948C35.9166-39.2948 33.7748-40.8655 33.7748-43.8428C33.7748-44.6526 33.9355-45.4766 34.217-46.2606C35.9314-50.9908 41.5203-54.1219 48.4154-54.1219C57.0655-54.1219 62.9155-49.6473 62.9155-43.0588C62.9155-39.192 60.7149-36.0066 55.9655-32.0319L51.1191-27.5809L51.1191-27.2134L58.897-27.2134C62.4081-27.2134 64.461-25.4304 64.461-22.3439C64.461-19.3062 62.3335-17.4256 58.897-17.4256Z"/>
  </g>
  <g id="Bold-S" transform="matrix(1 0 0 1 2292.43 696)">
   <path d="M47.5342 5.46875C69.873 5.46875 88.2568-12.8906 88.2568-35.2295C88.2568-57.5684 69.8486-75.9277 47.5098-75.9277C25.1953-75.9277 6.83594-57.5684 6.83594-35.2295C6.83594-12.8906 25.2197 5.46875 47.5342 5.46875ZM38.4277-17.3096C35.7666-17.3096 33.96-18.9941 33.96-21.4111C33.96-22.876 34.3994-24.2432 36.084-25.7324L47.0215-36.1084C49.6094-38.4766 51.3428-40.3809 51.3428-42.5049C51.3428-44.6045 49.8047-45.9473 47.4121-45.9473C44.8486-45.9473 43.5791-44.1895 42.5049-42.627C41.5527-41.3574 40.5029-40.21 38.3301-40.21C35.6201-40.21 33.8135-41.626 33.8135-44.165C33.8135-44.8975 33.9355-45.6055 34.2041-46.3379C35.8154-50.9521 41.2109-54.1992 47.6807-54.1992C55.957-54.1992 61.5234-49.8535 61.5234-43.4326C61.5234-39.2822 59.1553-36.084 54.8828-32.251L48.6572-26.0986L48.6572-25.7568L58.4717-25.7568C61.377-25.7568 63.1592-24.2188 63.1592-21.5576C63.1592-18.9453 61.3281-17.3096 58.4717-17.3096Z"/>
  </g>
  <g id="Semibold-S" transform="matrix(1 0 0 1 1996.19 696)">
   <path d="M47.0632 4.98887C69.1088 4.98887 87.3237-13.1928 87.3237-35.2384C87.3237-57.284 69.0755-75.4656 47.0299-75.4656C25.0176-75.4656 6.83594-57.284 6.83594-35.2384C6.83594-13.1928 25.0509 4.98887 47.0632 4.98887ZM37.9656-17.2296C35.5622-17.2296 33.9688-18.7275 33.9688-20.9046C33.9688-22.1739 34.4083-23.3634 35.7641-24.6305L47.2525-36.0284C49.6805-38.3699 51.7782-40.4697 51.7782-42.8692C51.7782-45.3243 49.9291-46.9248 47.1277-46.9248C44.1644-46.9248 42.7171-44.9182 41.5896-43.1957C40.6818-41.9262 39.7298-40.8409 37.7791-40.8409C35.4157-40.8409 33.8401-42.1503 33.8401-44.3872C33.8401-45.0663 33.9355-45.6943 34.1952-46.3912C35.7354-50.9255 40.9977-54.2525 47.1741-54.2525C55.1928-54.2525 60.5637-49.9957 60.5637-43.6903C60.5637-39.3444 58.08-36.1373 54.1363-32.4021L46.9599-25.0767L46.9599-24.7526L58.1784-24.7526C60.666-24.7526 62.2616-23.3834 62.2616-21.0155C62.2616-18.6965 60.635-17.2296 58.1784-17.2296Z"/>
  </g>
  <g id="Medium-S" transform="matrix(1 0 0 1 1699.83 696)">
   <path d="M46.7061 4.625C68.5293 4.625 86.6162-13.4219 86.6162-35.2451C86.6162-57.0684 68.4893-75.1152 46.666-75.1152C24.8828-75.1152 6.83594-57.0684 6.83594-35.2451C6.83594-13.4219 24.9229 4.625 46.7061 4.625ZM37.6152-17.1689C35.4072-17.1689 33.9756-18.5254 33.9756-20.5205C33.9756-21.6416 34.415-22.6963 35.5215-23.7949L47.4277-35.9678C49.7344-38.2891 52.1084-40.5371 52.1084-43.1455C52.1084-45.8701 50.0234-47.666 46.9121-47.666C43.6455-47.666 42.0635-45.4707 40.8955-43.627C40.0215-42.3574 39.1436-41.3193 37.3613-41.3193C35.2607-41.3193 33.8604-42.5479 33.8604-44.5557C33.8604-45.1943 33.9355-45.7617 34.1885-46.4316C35.6748-50.9053 40.8359-54.293 46.79-54.293C54.6133-54.293 59.8359-50.1035 59.8359-43.8857C59.8359-39.3916 57.2646-36.1777 53.5703-32.5166L45.6729-24.3018L45.6729-23.9912L57.9561-23.9912C60.127-23.9912 61.5811-22.75 61.5811-20.6045C61.5811-18.5078 60.1094-17.1689 57.9561-17.1689Z"/>
  </g>
  <g id="Regular-S" transform="matrix(1 0 0 1 1403.58 696)">
   <path d="M46.2402 4.15039C67.7734 4.15039 85.6934-13.7207 85.6934-35.2539C85.6934-56.7871 67.7246-74.6582 46.1914-74.6582C24.707-74.6582 6.83594-56.7871 6.83594-35.2539C6.83594-13.7207 24.7559 4.15039 46.2402 4.15039ZM37.1582-17.0898C35.2051-17.0898 33.9844-18.2617 33.9844-20.0195C33.9844-20.9473 34.4238-21.8262 35.2051-22.7051L47.6562-35.8887C49.8047-38.1836 52.5391-40.625 52.5391-43.5059C52.5391-46.582 50.1465-48.6328 46.6309-48.6328C42.9688-48.6328 41.2109-46.1914 39.9902-44.1895C39.1602-42.9199 38.3789-41.9434 36.8164-41.9434C35.0586-41.9434 33.8867-43.0664 33.8867-44.7754C33.8867-45.3613 33.9355-45.8496 34.1797-46.4844C35.5957-50.8789 40.625-54.3457 46.2891-54.3457C53.8574-54.3457 58.8867-50.2441 58.8867-44.1406C58.8867-39.4531 56.2012-36.2305 52.832-32.666L43.9941-23.291L43.9941-22.998L57.666-22.998C59.4238-22.998 60.6934-21.9238 60.6934-20.0684C60.6934-18.2617 59.4238-17.0898 57.666-17.0898Z"/>
  </g>
  <g id="Light-S" transform="matrix(1 0 0 1 1107.6 696)">
   <path d="M45.5137 3.42383C66.6836 3.42383 84.2251-14.084 84.2251-35.2539C84.2251-56.4238 66.6499-73.9316 45.48-73.9316C24.3286-73.9316 6.83594-56.4238 6.83594-35.2539C6.83594-14.084 24.3623 3.42383 45.5137 3.42383ZM36.6587-17.5137C35.0991-17.5137 34.1206-18.4434 34.1206-19.8682C34.1206-20.6294 34.4541-21.2964 35.084-22.0088L47.8228-35.7222C50.2285-38.3047 52.4634-40.731 52.4634-43.5815C52.4634-47.021 49.874-49.2685 45.9497-49.2685C41.9697-49.2685 39.6821-46.6909 38.749-44.0532C38.1763-42.9805 37.5313-42.2007 36.2412-42.2007C34.8467-42.2007 33.917-43.1118 33.917-44.4878C33.917-44.9829 33.9658-45.4106 34.1494-45.9697C35.3081-50.4097 40.1709-53.7856 45.7139-53.7856C52.7827-53.7856 57.4639-49.8657 57.4639-44.0044C57.4639-39.7861 55.187-36.7451 51.606-32.8931L41.9053-22.4282L41.9053-22.1655L56.8032-22.1655C58.1826-22.1655 59.1797-21.3032 59.1797-19.8564C59.1797-18.4434 58.1826-17.5137 56.8032-17.5137Z"/>
  </g>
  <g id="Thin-S" transform="matrix(1 0 0 1 811.863 696)">
   <path d="M44.5527 2.4629C65.2422 2.4629 82.2832-14.5644 82.2832-35.2539C82.2832-55.9434 65.2285-72.9707 44.5391-72.9707C23.8281-72.9707 6.83594-55.9434 6.83594-35.2539C6.83594-14.5644 23.8418 2.4629 44.5527 2.4629ZM35.9981-18.0742C34.959-18.0742 34.3008-18.6836 34.3008-19.668C34.3008-20.209 34.4941-20.5957 34.9238-21.0879L48.043-35.502C50.7891-38.4648 52.3633-40.8711 52.3633-43.6816C52.3633-47.6016 49.5137-50.1094 45.0488-50.1094C40.6485-50.1094 37.6602-47.3516 37.1074-43.873C36.875-43.0605 36.4102-42.541 35.4805-42.541C34.5664-42.541 33.957-43.1719 33.957-44.1074C33.957-44.4824 34.0059-44.8301 34.1094-45.2891C34.9277-49.7891 39.5703-53.0449 44.9531-53.0449C51.3613-53.0449 55.5821-49.3652 55.5821-43.8242C55.5821-40.2266 53.8457-37.4258 49.9844-33.1934L39.1426-21.2871L39.1426-21.0645L55.6621-21.0645C56.541-21.0645 57.1778-20.4824 57.1778-19.5762C57.1778-18.6836 56.541-18.0742 55.6621-18.0742Z"/>
  </g>
  <g id="Ultralight-S" transform="matrix(1 0 0 1 515.649 696)">
   <path d="M44.0606 1.97072C64.5039 1.97072 81.2886-14.8105 81.2886-35.2539C81.2886-55.6973 64.5005-72.4785 44.0571-72.4785C23.5718-72.4785 6.83594-55.6973 6.83594-35.2539C6.83594-14.8105 23.5752 1.97072 44.0606 1.97072ZM35.6597-18.3613C34.8872-18.3613 34.3931-18.8066 34.3931-19.5654C34.3931-19.9937 34.5146-20.2368 34.8418-20.6162L48.1558-35.3892C51.0762-38.5469 52.312-40.9429 52.312-43.7329C52.312-47.8989 49.3291-50.54 44.5874-50.54C39.9717-50.54 36.6245-47.6899 36.2666-43.7808C36.2085-43.1016 35.836-42.7153 35.0908-42.7153C34.4229-42.7153 33.9775-43.2026 33.9775-43.9126C33.9775-44.2261 34.0264-44.5327 34.0889-44.9404C34.7329-49.4712 39.2627-52.6655 44.5635-52.6655C50.6333-52.6655 54.6182-49.1089 54.6182-43.7319C54.6182-40.4521 53.1587-37.7744 49.1538-33.3472L37.7276-20.7027L37.7276-20.5005L55.0777-20.5005C55.7002-20.5005 56.1524-20.062 56.1524-19.4326C56.1524-18.8066 55.7002-18.3613 55.0777-18.3613Z"/>
  </g>
 </g>
</svg>
